<svg version="1.1" xmlns="http://www.w3.org/2000/svg" style="display: block;" viewBox="0 0 2048 794" width="800" height="310" preserveAspectRatio="none">
<path transform="translate(0,0)" fill="rgb(207,9,30)" d="M 810.102 434.176 L 928.711 174.261 L 972.552 78.5207 C 977.379 67.8379 1005.18 4.0062 1009.11 1.84166 C 1013.82 8.39018 1028.36 42.0412 1032.82 51.8824 L 1083.97 165.147 L 1165.8 346.185 L 1189.66 398.427 C 1193.97 407.847 1202.2 424.375 1204.27 433.797 C 1223.79 433.799 1244.31 430.059 1257.45 446.967 C 1258.14 450.546 1259.23 455.3 1259.28 458.845 C 1257.71 470.338 1256.05 479.68 1244.78 485.88 C 1239.95 485.903 1235.29 485.162 1231.5 487.633 C 1229.96 492.528 1237.22 501.328 1238.98 507.21 C 1240.82 511.998 1242.61 516.808 1244.33 521.64 C 1260.58 522.86 1282.2 518.778 1292.26 534.122 C 1296.36 542.439 1296.78 546.929 1294.59 556.307 C 1291.79 562.27 1285.99 573.55 1278.25 573.514 C 1274.22 574.027 1272.72 573.41 1270.69 575.997 C 1272.62 592.022 1307.58 580.564 1320.07 585.331 C 1316.75 593.582 1311.52 605.741 1307.14 613.529 C 1323.98 615.633 1334.25 623.729 1333.93 641.705 C 1329.56 653.366 1325.22 663.79 1310.96 664.493 C 1302.67 663.367 1276.7 663.073 1267.18 662.763 L 1165.62 660.197 C 1080.57 659.204 995.516 658.767 910.461 658.887 C 864.118 658.961 811.718 658.426 765.655 660.653 C 747.135 661.047 725.34 661.439 706.931 662.956 L 702.643 669.598 C 696.79 670.013 692.637 670.354 686.791 669.988 C 685.978 667.409 682.476 665.891 679.733 664.083 C 668.286 656.03 667.954 652.923 662.137 640.767 C 660.377 634.277 662.533 626.121 667.662 621.697 C 678.621 612.243 694.774 613.826 708.218 614.196 C 704.936 608.599 698.926 595.633 697.199 589.613 C 709.8 588.893 726.607 589.529 739.803 589.235 C 742.591 582.614 744.891 578.069 748.313 571.732 C 737.618 571.993 726.93 572.469 716.254 573.159 C 707.155 567.528 704.906 562.683 701.128 553.378 C 697.832 537.614 704.063 530.164 717.406 523.63 C 733.315 522.868 754.181 522.601 770.04 523.137 C 771.408 518.032 776.029 509.031 778.478 503.871 C 781.553 497.251 785.125 488.859 789.191 482.977 C 777.192 482.97 762.702 484.979 749.727 485.13 C 741.595 478.168 739.587 471.203 736.142 461.315 C 736.007 459.786 735.93 458.252 735.911 456.717 C 735.741 427.587 789.597 433.779 810.102 434.176 z M 1061.28 431.144 C 1041.48 388.913 1022.11 345.498 1002.89 302.948 C 991.662 278.076 976.835 247.844 966.972 222.942 C 946.799 268.318 925.903 313.788 904.913 358.793 C 894.404 381.325 882.581 411.42 870.43 432.645 C 904.398 430.444 944.614 430.965 978.862 430.499 C 1001.6 430.189 1039.74 429.082 1061.28 431.144 z M 829.255 521.07 C 892.111 516.761 958.541 519.421 1021.68 518.126 C 1047 517.607 1075.86 517.344 1100.91 518.865 C 1099.29 511.856 1087.51 489.4 1083.93 480.41 C 1074.69 481.006 1060.21 480.411 1050.57 480.315 L 989.708 479.828 C 942.555 479.603 895.256 480.877 848.48 480.667 C 845.198 488.422 833.914 515.16 829.255 521.07 z M 787.562 612.371 C 816.499 610.795 846.805 610.715 875.83 610.264 C 921.707 609.398 967.59 608.951 1013.47 608.924 L 1088.41 608.965 C 1106.32 609.012 1125.16 608.666 1142.91 610.432 C 1137.99 601.278 1127.41 578.657 1124.66 569.137 C 1103.01 570.159 1076.49 568.805 1054.63 568.349 C 1026.99 567.955 999.333 567.787 971.68 567.845 C 940.345 567.758 909.01 567.846 877.676 568.109 C 855.092 568.5 829.699 569.947 807.377 569.155 C 804.492 577.566 792.489 605.24 787.562 612.371 z"/>
<path transform="translate(0,0)" fill="rgb(254,254,254)" d="M 829.255 521.07 C 892.111 516.761 958.541 519.421 1021.68 518.126 C 1047 517.607 1075.86 517.344 1100.91 518.865 C 1130.68 519.272 1160.44 519.929 1190.2 520.837 C 1206.08 521.268 1228.78 522.446 1244.33 521.64 C 1260.58 522.86 1282.2 518.778 1292.26 534.122 C 1296.36 542.439 1296.78 546.929 1294.59 556.307 C 1291.79 562.27 1285.99 573.55 1278.25 573.514 C 1274.22 574.027 1272.72 573.41 1270.69 575.997 C 1272.62 592.022 1307.58 580.564 1320.07 585.331 C 1316.75 593.582 1311.52 605.741 1307.14 613.529 C 1323.98 615.633 1334.25 623.729 1333.93 641.705 C 1329.56 653.366 1325.22 663.79 1310.96 664.493 C 1302.67 663.367 1276.7 663.073 1267.18 662.763 L 1165.62 660.197 C 1080.57 659.204 995.516 658.767 910.461 658.887 C 864.118 658.961 811.718 658.426 765.655 660.653 C 747.135 661.047 725.34 661.439 706.931 662.956 L 702.643 669.598 C 696.79 670.013 692.637 670.354 686.791 669.988 C 685.978 667.409 682.476 665.891 679.733 664.083 C 668.286 656.03 667.954 652.923 662.137 640.767 C 660.377 634.277 662.533 626.121 667.662 621.697 C 678.621 612.243 694.774 613.826 708.218 614.196 C 704.936 608.599 698.926 595.633 697.199 589.613 C 709.8 588.893 726.607 589.529 739.803 589.235 C 742.591 582.614 744.891 578.069 748.313 571.732 C 737.618 571.993 726.93 572.469 716.254 573.159 C 707.155 567.528 704.906 562.683 701.128 553.378 C 697.832 537.614 704.063 530.164 717.406 523.63 C 733.315 522.868 754.181 522.601 770.04 523.137 L 829.255 521.07 z M 787.562 612.371 C 816.499 610.795 846.805 610.715 875.83 610.264 C 921.707 609.398 967.59 608.951 1013.47 608.924 L 1088.41 608.965 C 1106.32 609.012 1125.16 608.666 1142.91 610.432 C 1137.99 601.278 1127.41 578.657 1124.66 569.137 C 1103.01 570.159 1076.49 568.805 1054.63 568.349 C 1026.99 567.955 999.333 567.787 971.68 567.845 C 940.345 567.758 909.01 567.846 877.676 568.109 C 855.092 568.5 829.699 569.947 807.377 569.155 C 804.492 577.566 792.489 605.24 787.562 612.371 z"/>
<path transform="translate(0,0)" fill="rgb(254,254,254)" d="M 829.255 521.07 C 892.111 516.761 958.541 519.421 1021.68 518.126 C 1047 517.607 1075.86 517.344 1100.91 518.865 C 1130.68 519.272 1160.44 519.929 1190.2 520.837 C 1206.08 521.268 1228.78 522.446 1244.33 521.64 C 1260.58 522.86 1282.2 518.778 1292.26 534.122 C 1296.36 542.439 1296.78 546.929 1294.59 556.307 C 1291.79 562.27 1285.99 573.55 1278.25 573.514 C 1230.87 570.346 1172.17 569.42 1124.66 569.137 C 1103.01 570.159 1076.49 568.805 1054.63 568.349 C 1026.99 567.955 999.333 567.787 971.68 567.845 C 940.345 567.758 909.01 567.846 877.676 568.109 C 855.092 568.5 829.699 569.947 807.377 569.155 C 795.593 569.421 758.652 569.756 748.313 571.732 C 737.618 571.993 726.93 572.469 716.254 573.159 C 707.155 567.528 704.906 562.683 701.128 553.378 C 697.832 537.614 704.063 530.164 717.406 523.63 C 733.315 522.868 754.181 522.601 770.04 523.137 L 829.255 521.07 z"/>
<path transform="translate(0,0)" fill="rgb(207,9,30)" d="M 1124.66 569.137 C 1172.17 569.42 1230.87 570.346 1278.25 573.514 C 1274.22 574.027 1272.72 573.41 1270.69 575.997 C 1272.62 592.022 1307.58 580.564 1320.07 585.331 C 1316.75 593.582 1311.52 605.741 1307.14 613.529 C 1301.66 614.274 1288.57 613.716 1282.55 613.587 L 1228.74 611.923 C 1200.93 611.098 1169.83 611.876 1142.91 610.432 C 1137.99 601.278 1127.41 578.657 1124.66 569.137 z"/>
<path transform="translate(0,0)" fill="rgb(207,9,30)" d="M 748.313 571.732 C 758.652 569.756 795.593 569.421 807.377 569.155 C 804.492 577.566 792.489 605.24 787.562 612.371 C 771.777 615.18 727.151 613.158 708.218 614.196 C 704.936 608.599 698.926 595.633 697.199 589.613 C 709.8 588.893 726.607 589.529 739.803 589.235 C 742.591 582.614 744.891 578.069 748.313 571.732 z"/>
<path transform="translate(0,0)" fill="rgb(18,168,91)" d="M 679.733 664.083 C 687.418 664.305 698.994 663.395 706.931 662.956 L 702.643 669.598 C 696.79 670.013 692.637 670.354 686.791 669.988 C 685.978 667.409 682.476 665.891 679.733 664.083 z"/>
<path transform="translate(0,0)" fill="rgb(254,254,254)" d="M 870.43 432.645 C 904.398 430.444 944.614 430.965 978.862 430.499 C 1001.6 430.189 1039.74 429.082 1061.28 431.144 C 1090.85 431.275 1120.43 431.681 1150 432.361 C 1168.01 432.833 1186.31 434.002 1204.27 433.797 C 1223.79 433.799 1244.31 430.059 1257.45 446.967 C 1258.14 450.546 1259.23 455.3 1259.28 458.845 C 1257.71 470.338 1256.05 479.68 1244.78 485.88 C 1239.95 485.903 1235.29 485.162 1231.5 487.633 C 1229.96 492.528 1237.22 501.328 1238.98 507.21 C 1240.82 511.998 1242.61 516.808 1244.33 521.64 C 1228.78 522.446 1206.08 521.268 1190.2 520.837 C 1160.44 519.929 1130.68 519.272 1100.91 518.865 C 1099.29 511.856 1087.51 489.4 1083.93 480.41 C 1074.69 481.006 1060.21 480.411 1050.57 480.315 L 989.708 479.828 C 942.555 479.603 895.256 480.877 848.48 480.667 C 845.198 488.422 833.914 515.16 829.255 521.07 L 770.04 523.137 C 771.408 518.032 776.029 509.031 778.478 503.871 C 781.553 497.251 785.125 488.859 789.191 482.977 C 777.192 482.97 762.702 484.979 749.727 485.13 C 741.595 478.168 739.587 471.203 736.142 461.315 C 736.007 459.786 735.93 458.252 735.911 456.717 C 735.741 427.587 789.597 433.779 810.102 434.176 C 828.319 434.085 852.77 434.411 870.43 432.645 z"/>
<path transform="translate(0,0)" fill="rgb(207,9,30)" d="M 1083.93 480.41 L 1197.06 483.62 C 1206.5 483.949 1237.96 484.599 1244.78 485.88 C 1239.95 485.903 1235.29 485.162 1231.5 487.633 C 1229.96 492.528 1237.22 501.328 1238.98 507.21 C 1240.82 511.998 1242.61 516.808 1244.33 521.64 C 1228.78 522.446 1206.08 521.268 1190.2 520.837 C 1160.44 519.929 1130.68 519.272 1100.91 518.865 C 1099.29 511.856 1087.51 489.4 1083.93 480.41 z"/>
<path transform="translate(0,0)" fill="rgb(207,9,30)" d="M 789.191 482.977 C 806.471 483.166 829.922 481.015 848.48 480.667 C 845.198 488.422 833.914 515.16 829.255 521.07 L 770.04 523.137 C 771.408 518.032 776.029 509.031 778.478 503.871 C 781.553 497.251 785.125 488.859 789.191 482.977 z"/>
<path transform="translate(0,0)" fill="rgb(207,9,30)" d="M 528.355 109.921 C 542.864 138.563 556.52 169.998 569.973 199.352 L 641.29 355.396 L 671.484 420.995 C 675.58 429.875 686.221 451.282 688.002 460.004 C 700.55 459.904 724.724 459.251 736.142 461.315 C 739.587 471.203 741.595 478.168 749.727 485.13 C 762.702 484.979 777.192 482.97 789.191 482.977 C 785.125 488.859 781.553 497.251 778.478 503.871 C 763.273 504.591 723.02 502.995 707.954 501.827 C 711.299 508.513 715.479 516.492 717.406 523.63 C 704.063 530.164 697.832 537.614 701.128 553.378 C 704.906 562.683 707.155 567.528 716.254 573.159 C 726.93 572.469 737.618 571.993 748.313 571.732 C 744.891 578.069 742.591 582.614 739.803 589.235 C 726.607 589.529 709.8 588.893 697.199 589.613 C 609.847 587.039 521.682 589.085 434.763 586.004 C 395.76 584.727 352.736 585.283 313.444 585.152 C 299.952 586.393 277.703 585.824 263.702 585.764 C 231.902 585.627 202.358 585.599 170.597 587.262 C 197.579 576.701 296.772 562.171 324.219 562.154 C 324.91 555.136 350.015 501.506 355.135 492.908 C 300.886 494.13 246.378 489.208 192.074 491.089 C 186.683 491.275 182.237 491.873 176.797 491.152 L 176.445 490.322 C 206.572 476.632 329.704 469.154 367.478 466.289 C 369.728 456.834 380.066 435.442 384.509 425.705 L 416.285 355.954 L 488.563 196.133 C 498.026 175.145 517.529 128.576 528.355 109.921 z M 491.502 461.233 C 513.544 458.532 549.506 459.31 572.256 459.022 C 589.892 458.798 620.377 458.236 637.295 459.774 C 630.474 446.946 623.792 432.403 617.923 419.082 C 600.689 379.964 580.689 341.049 564.42 301.603 C 549.276 337.59 531.452 373.955 515.679 409.875 C 511.606 419.15 495.639 455.265 491.502 461.233 z M 449.703 553.335 C 507.902 549.64 566.795 551.597 625.11 551.135 C 643.144 550.992 661.577 551.142 679.554 552.274 C 671.765 536.244 662.814 517.47 656.083 501.016 C 614.932 500.379 573.837 498.156 532.664 497.73 C 513.677 497.533 494.836 495.876 475.731 495.994 C 472.156 506.29 455.111 544.313 449.703 553.335 z"/>
<path transform="translate(0,0)" fill="rgb(0,180,91)" d="M 355.135 492.908 C 393.348 492.865 436.381 495.416 475.731 495.994 C 472.156 506.29 455.111 544.313 449.703 553.335 C 507.902 549.64 566.795 551.597 625.11 551.135 C 643.144 550.992 661.577 551.142 679.554 552.274 C 686.919 552.867 693.767 553.134 701.128 553.378 C 704.906 562.683 707.155 567.528 716.254 573.159 C 726.93 572.469 737.618 571.993 748.313 571.732 C 744.891 578.069 742.591 582.614 739.803 589.235 C 726.607 589.529 709.8 588.893 697.199 589.613 C 609.847 587.039 521.682 589.085 434.763 586.004 C 395.76 584.727 352.736 585.283 313.444 585.152 C 299.952 586.393 277.703 585.824 263.702 585.764 C 231.902 585.627 202.358 585.599 170.597 587.262 C 197.579 576.701 296.772 562.171 324.219 562.154 C 324.91 555.136 350.015 501.506 355.135 492.908 z"/>
<path transform="translate(0,0)" fill="rgb(207,9,30)" d="M 355.135 492.908 C 393.348 492.865 436.381 495.416 475.731 495.994 C 472.156 506.29 455.111 544.313 449.703 553.335 C 413.033 554.853 360.26 557.83 324.219 562.154 C 324.91 555.136 350.015 501.506 355.135 492.908 z"/>
<path transform="translate(0,0)" fill="rgb(0,180,91)" d="M 491.502 461.233 C 513.544 458.532 549.506 459.31 572.256 459.022 C 589.892 458.798 620.377 458.236 637.295 459.774 C 652.088 460.257 673.114 460.811 688.002 460.004 C 700.55 459.904 724.724 459.251 736.142 461.315 C 739.587 471.203 741.595 478.168 749.727 485.13 C 762.702 484.979 777.192 482.97 789.191 482.977 C 785.125 488.859 781.553 497.251 778.478 503.871 C 763.273 504.591 723.02 502.995 707.954 501.827 C 711.299 508.513 715.479 516.492 717.406 523.63 C 704.063 530.164 697.832 537.614 701.128 553.378 C 693.767 553.134 686.919 552.867 679.554 552.274 C 671.765 536.244 662.814 517.47 656.083 501.016 C 614.932 500.379 573.837 498.156 532.664 497.73 C 513.677 497.533 494.836 495.876 475.731 495.994 C 436.381 495.416 393.348 492.865 355.135 492.908 C 300.886 494.13 246.378 489.208 192.074 491.089 C 186.683 491.275 182.237 491.873 176.797 491.152 L 176.445 490.322 C 206.572 476.632 329.704 469.154 367.478 466.289 C 387.427 466.188 406.819 463.74 426.575 462.709 C 447.77 461.603 470.273 461.213 491.502 461.233 z"/>
<path transform="translate(0,0)" fill="rgb(207,9,30)" d="M 656.083 501.016 C 673.223 501.219 690.862 501.214 707.954 501.827 C 711.299 508.513 715.479 516.492 717.406 523.63 C 704.063 530.164 697.832 537.614 701.128 553.378 C 693.767 553.134 686.919 552.867 679.554 552.274 C 671.765 536.244 662.814 517.47 656.083 501.016 z"/>
<path transform="translate(0,0)" fill="rgb(175,7,24)" d="M 1487.05 108.843 L 1597.74 353.211 L 1631.59 427.742 C 1635.51 436.384 1645.41 456.833 1648.04 464.885 C 1649.13 466.283 1649.08 466.335 1650.96 466.426 C 1717.44 469.651 1787.28 474.261 1853.18 483.569 L 1848.93 486.473 L 1854.44 487.999 C 1836.22 488.142 1665.61 491.01 1660.28 493.021 C 1664.91 502.045 1690.69 555.894 1692.18 563.287 L 1692.37 564.013 C 1698.95 567.136 1715.21 566.683 1722.74 568.23 C 1744.93 572.793 1805.86 574.85 1823.99 584.36 C 1821.07 585.074 1793.07 583.403 1787.81 583.472 C 1759.97 583.841 1729.03 582.113 1701.45 583.107 L 1700.03 582.469 C 1691.43 581.202 1670.87 581.703 1661.48 581.734 L 1590.57 582.141 C 1587.87 582.227 1580.99 582.275 1578.64 582.594 C 1568.12 584.951 1523.36 584.18 1510.69 584.298 L 1354.4 585.617 C 1351.1 585.629 1320.45 585.189 1320.07 585.331 C 1307.58 580.564 1272.62 592.022 1270.69 575.997 C 1272.72 573.41 1274.22 574.027 1278.25 573.514 C 1285.99 573.55 1291.79 562.27 1294.59 556.307 C 1296.78 546.929 1296.36 542.439 1292.26 534.122 C 1296.92 525.323 1300.54 513.686 1305.73 505.379 C 1284.88 505.029 1260.88 507.19 1238.98 507.21 C 1237.22 501.328 1229.96 492.528 1231.5 487.633 C 1235.29 485.162 1239.95 485.903 1244.78 485.88 C 1256.05 479.68 1257.71 470.338 1259.28 458.845 C 1280.97 459.033 1306.61 456.592 1327.55 458.267 C 1337.51 433.231 1349.9 406.754 1361.5 382.306 C 1404.41 291.943 1443.42 198.76 1487.05 108.843 z M 1523.18 460.482 C 1517.73 451.764 1502.83 417.315 1497.98 406.663 C 1481.93 371.881 1466.18 336.958 1450.73 301.898 C 1429.36 352.067 1402.25 408.406 1379 458.002 C 1422.78 456.179 1479.41 458.627 1523.18 460.482 z M 1357.39 503.732 C 1354.32 512.949 1340.33 543.605 1335.24 552.251 L 1335.1 552.984 C 1379.61 550.379 1449.75 551.486 1494.64 553.116 L 1543.67 554.938 C 1549.79 555.21 1561.03 556.286 1566.73 556.095 C 1557.78 539.974 1546.91 514.3 1539.31 497.004 C 1536.39 496.121 1508.51 497.966 1503.23 498.173 C 1468.23 499.639 1433.22 500.826 1398.21 501.736 C 1390.79 501.939 1362.47 501.674 1357.34 502.905 L 1357.39 503.732 z"/>
<path transform="translate(0,0)" fill="rgb(207,9,30)" d="M 1487.05 108.843 L 1597.74 353.211 L 1631.59 427.742 C 1635.51 436.384 1645.41 456.833 1648.04 464.885 C 1646.01 466.843 1646.91 466.497 1644.57 466.768 C 1637.99 467.137 1623.08 466.01 1615.94 465.623 C 1600.89 464.805 1584.43 464.319 1569.56 462.702 L 1566.54 462.904 C 1559.12 462.867 1529.51 463.156 1523.64 460.939 L 1523.18 460.482 C 1517.73 451.764 1502.83 417.315 1497.98 406.663 C 1481.93 371.881 1466.18 336.958 1450.73 301.898 C 1429.36 352.067 1402.25 408.406 1379 458.002 L 1378.32 458.12 C 1369.61 460.687 1339.5 459.659 1329.86 458.686 L 1327.55 458.267 C 1337.51 433.231 1349.9 406.754 1361.5 382.306 C 1404.41 291.943 1443.42 198.76 1487.05 108.843 z"/>
<path transform="translate(0,0)" fill="rgb(219,29,44)" d="M 1569.56 462.702 C 1579.36 461.099 1638.54 461.944 1644.46 466.009 L 1644.57 466.768 C 1637.99 467.137 1623.08 466.01 1615.94 465.623 C 1600.89 464.805 1584.43 464.319 1569.56 462.702 z"/>
<path transform="translate(0,0)" fill="rgb(219,29,44)" d="M 1329.86 458.686 C 1333.84 455.855 1373.15 456.125 1378.32 458.12 C 1369.61 460.687 1339.5 459.659 1329.86 458.686 z"/>
<path transform="translate(0,0)" fill="rgb(219,29,44)" d="M 1523.64 460.939 C 1531.68 457.791 1557.65 460.024 1566.54 462.904 C 1559.12 462.867 1529.51 463.156 1523.64 460.939 z"/>
<path transform="translate(0,0)" fill="rgb(175,7,24)" d="M 1653.25 491.561 C 1655.61 491.446 1658.58 490.848 1660.28 493.021 C 1664.91 502.045 1690.69 555.894 1692.18 563.287 L 1692.37 564.013 C 1698.95 567.136 1715.21 566.683 1722.74 568.23 C 1744.93 572.793 1805.86 574.85 1823.99 584.36 C 1821.07 585.074 1793.07 583.403 1787.81 583.472 C 1759.97 583.841 1729.03 582.113 1701.45 583.107 L 1700.03 582.469 C 1691.43 581.202 1670.87 581.703 1661.48 581.734 L 1590.57 582.141 C 1587.87 582.227 1580.99 582.275 1578.64 582.594 C 1568.12 584.951 1523.36 584.18 1510.69 584.298 L 1354.4 585.617 C 1351.1 585.629 1320.45 585.189 1320.07 585.331 C 1307.58 580.564 1272.62 592.022 1270.69 575.997 C 1272.72 573.41 1274.22 574.027 1278.25 573.514 C 1285.99 573.55 1291.79 562.27 1294.59 556.307 L 1296.79 554.703 C 1303.53 555.236 1329.36 555.172 1335.1 552.984 C 1379.61 550.379 1449.75 551.486 1494.64 553.116 L 1543.67 554.938 C 1549.79 555.21 1561.03 556.286 1566.73 556.095 C 1557.78 539.974 1546.91 514.3 1539.31 497.004 C 1545.52 493.878 1636.67 492.302 1653.25 491.561 z"/>
<path transform="translate(0,0)" fill="rgb(207,9,30)" d="M 1653.25 491.561 C 1655.61 491.446 1658.58 490.848 1660.28 493.021 C 1664.91 502.045 1690.69 555.894 1692.18 563.287 C 1684.75 566.606 1613.2 552.258 1594.35 558.787 C 1588.99 558.995 1569.73 559.771 1566.73 556.095 C 1557.78 539.974 1546.91 514.3 1539.31 497.004 C 1545.52 493.878 1636.67 492.302 1653.25 491.561 z"/>
<path transform="translate(0,0)" fill="rgb(219,29,44)" d="M 1653.25 491.561 L 1656.83 492.367 C 1652.97 494.727 1544.82 498.084 1539.31 497.004 C 1545.52 493.878 1636.67 492.302 1653.25 491.561 z"/>
<path transform="translate(0,0)" fill="rgb(219,29,44)" d="M 1594.35 558.787 C 1613.2 552.258 1684.75 566.606 1692.18 563.287 L 1692.37 564.013 C 1687.43 566.934 1607.01 559.263 1594.35 558.787 z"/>
<path transform="translate(0,0)" fill="rgb(207,9,30)" d="M 1306.89 504.53 C 1312.5 503.37 1353.67 501.336 1357.34 502.905 L 1357.39 503.732 C 1354.32 512.949 1340.33 543.605 1335.24 552.251 L 1335.1 552.984 C 1329.36 555.172 1303.53 555.236 1296.79 554.703 L 1294.59 556.307 C 1296.78 546.929 1296.36 542.439 1292.26 534.122 C 1296.92 525.323 1300.54 513.686 1305.73 505.379 L 1306.89 504.53 z"/>
<path transform="translate(0,0)" fill="rgb(219,29,44)" d="M 1306.89 504.53 C 1312.5 503.37 1353.67 501.336 1357.34 502.905 L 1357.39 503.732 C 1348 503.704 1314.15 508.778 1306.89 504.53 z"/>
<path transform="translate(0,0)" fill="rgb(219,29,44)" d="M 1296.79 554.703 C 1301.7 550.042 1327.52 551.919 1335.24 552.251 L 1335.1 552.984 C 1329.36 555.172 1303.53 555.236 1296.79 554.703 z"/>
<path transform="translate(0,0)" fill="rgb(207,9,30)" d="M 1165.62 660.197 L 1267.18 662.763 C 1276.7 663.073 1302.67 663.367 1310.96 664.493 C 1311.61 667.214 1312.08 669.139 1312.38 671.922 C 1333.62 713.198 1339.43 759.847 1397.83 754.287 L 1397.74 794 L 1139.61 794 C 1139.57 780.635 1139.41 767.27 1139.12 753.908 C 1172.91 755.16 1203.21 744.55 1185.19 704.158 C 1179.13 690.562 1170.29 674.065 1165.62 660.197 z"/>
<path transform="translate(0,0)" fill="rgb(207,9,30)" d="M 1627.62 665.235 L 1694.56 664.713 C 1704.38 664.605 1729.4 663.11 1737.41 665.201 L 1738.1 665.514 C 1765.8 705.251 1759.57 762.763 1822.68 759.65 C 1822.63 770.727 1822.29 783.029 1822.55 794 L 1599.86 794 C 1600.21 782.791 1599.84 770.909 1599.66 759.639 C 1681.17 761.177 1625.49 701.078 1617.16 666.311 L 1617.06 665.876 C 1619.74 664.713 1624.52 665.163 1627.62 665.235 z"/>
<path transform="translate(0,0)" fill="rgb(219,29,44)" d="M 1627.62 665.235 L 1694.56 664.713 C 1704.38 664.605 1729.4 663.11 1737.41 665.201 C 1734.56 668.326 1625.92 668.367 1623.31 666.565 L 1627.62 665.235 z"/>
<path transform="translate(0,0)" fill="rgb(207,9,30)" d="M 276.939 664.719 C 317.129 665.412 358.703 664.261 398.71 666.023 C 392.319 681.488 384.465 698.704 377.22 713.764 C 360.195 749.155 383.506 761.109 416.115 759.233 L 416.039 794 L 192.62 794 L 192.016 759.818 C 199.928 760.259 207.794 760.458 215.289 758.113 C 241.206 750.006 246.458 731.035 256.47 708.784 C 262.819 694.673 269.649 677.929 276.939 664.719 z"/>
<path transform="translate(0,0)" fill="rgb(175,7,24)" d="M 1590.57 582.141 L 1661.48 581.734 C 1670.87 581.703 1691.43 581.202 1700.03 582.469 L 1701.45 583.107 C 1705.89 592.378 1731.3 645.691 1732.22 652.389 C 1738.78 655.702 1807.02 660.576 1808.91 665.092 C 1797.31 667.432 1790.81 665.222 1780.46 665.269 C 1767.29 665.329 1751.14 664.782 1738.1 665.514 L 1737.41 665.201 C 1729.4 663.11 1704.38 664.605 1694.56 664.713 L 1627.62 665.235 C 1624.52 665.163 1619.74 664.713 1617.06 665.876 C 1609.58 668.044 1564.54 667.509 1556.52 667.899 C 1532.72 669.056 1314.85 670.648 1312.38 671.922 C 1312.08 669.139 1311.61 667.214 1310.96 664.493 C 1325.22 663.79 1329.56 653.366 1333.93 641.705 C 1345.83 640.425 1366.24 640.89 1378.61 640.831 L 1456.93 640.633 C 1488.88 640.699 1520.84 640.986 1552.8 641.496 C 1565.39 641.708 1594.62 641.852 1606.7 643.841 C 1600.46 632.5 1582.4 594.25 1578.64 582.594 C 1580.99 582.275 1587.87 582.227 1590.57 582.141 z"/>
<path transform="translate(0,0)" fill="rgb(207,9,30)" d="M 1590.57 582.141 L 1661.48 581.734 C 1670.87 581.703 1691.43 581.202 1700.03 582.469 L 1701.45 583.107 C 1705.89 592.378 1731.3 645.691 1732.22 652.389 L 1731.9 653.028 C 1730.59 653.525 1728.94 653.986 1727.55 653.856 C 1689.84 650.332 1651.47 646.544 1613.56 646.045 C 1609.1 645.559 1609.69 646.294 1606.7 643.841 C 1600.46 632.5 1582.4 594.25 1578.64 582.594 C 1580.99 582.275 1587.87 582.227 1590.57 582.141 z"/>
<path transform="translate(0,0)" fill="rgb(219,29,44)" d="M 1613.56 646.045 L 1610.4 644.464 C 1614.62 641.763 1724.3 648.486 1731.9 653.028 C 1730.59 653.525 1728.94 653.986 1727.55 653.856 C 1689.84 650.332 1651.47 646.544 1613.56 646.045 z"/>
<path transform="translate(0,0)" fill="rgb(219,29,44)" d="M 1590.57 582.141 L 1661.48 581.734 C 1670.87 581.703 1691.43 581.202 1700.03 582.469 C 1695.61 584.68 1663.14 584.126 1655.92 583.897 C 1646.46 583.598 1590.68 587.054 1585.62 583.551 L 1590.57 582.141 z"/>
<path transform="translate(0,0)" fill="rgb(0,180,91)" d="M 313.444 585.152 C 352.736 585.283 395.76 584.727 434.763 586.004 C 430.977 596.071 414.973 634.234 408.893 641.079 C 424.484 641.046 442.192 639.406 458.355 639.179 C 504.626 638.707 550.901 638.623 597.174 638.926 C 610.92 638.959 651.504 638.284 662.137 640.767 C 667.954 652.923 668.286 656.03 679.733 664.083 C 682.476 665.891 685.978 667.409 686.791 669.988 C 645.335 671.615 593.319 668.726 551.488 668.109 C 500.644 667.36 449.449 667.26 398.71 666.023 C 358.703 664.261 317.129 665.412 276.939 664.719 L 204.994 664.388 C 196.531 664.416 176.905 665.393 169.848 664.385 L 169.352 663.591 C 184.438 656.492 265.131 649.649 285.673 646.966 C 286.123 640.399 309.436 591.558 313.444 585.152 z"/>
<path transform="translate(0,0)" fill="rgb(207,9,30)" d="M 313.444 585.152 C 352.736 585.283 395.76 584.727 434.763 586.004 C 430.977 596.071 414.973 634.234 408.893 641.079 C 367.21 641.739 325.869 646.643 285.673 646.966 C 286.123 640.399 309.436 591.558 313.444 585.152 z"/>
<path transform="translate(0,0)" fill="rgb(207,9,30)" d="M 706.931 662.956 C 725.34 661.439 747.135 661.047 765.655 660.653 C 750.38 699.947 706.911 754.19 784.482 754.479 C 784.376 767.654 784.183 780.828 783.904 794 L 610.598 794 L 610.25 753.808 C 622.183 754.798 630.565 755.978 642.38 751.764 C 675.844 739.831 688.44 699.66 702.643 669.598 L 706.931 662.956 z"/>
<path transform="translate(0,0)" fill="rgb(207,9,30)" d="M 1853.18 483.569 C 1858.07 483.854 1872.5 484.488 1875.76 487.391 C 1868.63 488.507 1861.64 488.163 1854.44 487.999 L 1848.93 486.473 L 1853.18 483.569 z"/>
</svg>