<?xml version="1.0" standalone="no"?>
<!DOCTYPE svg PUBLIC "-//W3C//DTD SVG 20010904//EN"
 "http://www.w3.org/TR/2001/REC-SVG-20010904/DTD/svg10.dtd">
<svg version="1.0" xmlns="http://www.w3.org/2000/svg"
 width="2994.000000pt" height="3000.000000pt" viewBox="0 0 2994.000000 3000.000000"
 preserveAspectRatio="xMidYMid meet">

<g transform="translate(0.000000,3000.000000) scale(0.100000,-0.100000)"
fill="#FFFFFF" stroke="none">
<path d="M14415 29993 c-178 -5 -625 -33 -840 -54 -1779 -167 -3523 -672
-5200 -1504 -1216 -604 -2325 -1347 -3365 -2255 -300 -261 -809 -758 -1119
-1090 -1170 -1256 -2126 -2752 -2716 -4250 -413 -1048 -534 -1389 -679 -1905
-244 -868 -412 -1875 -476 -2850 -17 -256 -24 -1330 -11 -1657 63 -1588 394
-3244 939 -4703 325 -871 813 -1842 1365 -2720 809 -1285 1779 -2401 2967
-3415 1176 -1003 2561 -1844 4043 -2454 1230 -506 2553 -854 3877 -1020 948
-119 1754 -140 2720 -70 3283 237 6393 1512 8858 3633 563 484 1127 1051 1617
1626 606 709 1219 1598 1659 2404 123 226 482 938 616 1221 995 2102 1431
4749 1214 7370 -143 1738 -565 3379 -1234 4800 -133 283 -503 1019 -603 1202
-532 966 -1194 1892 -1976 2763 -188 209 -819 838 -1036 1032 -1242 1111
-2599 1978 -4145 2648 -2020 876 -4268 1309 -6475 1248z m1295 -287 c803 -54
1473 -142 2180 -287 1770 -364 3501 -1069 5054 -2057 1977 -1257 3609 -2969
4778 -5012 129 -225 468 -890 678 -1330 691 -1446 1118 -3160 1240 -4970 32
-488 42 -1291 20 -1750 -75 -1584 -357 -3019 -856 -4356 -179 -480 -353 -861
-736 -1614 -209 -410 -271 -526 -416 -774 -888 -1521 -2040 -2855 -3427 -3969
-1351 -1085 -2882 -1921 -4552 -2487 -1122 -381 -2287 -626 -3483 -734 -316
-29 -525 -41 -1014 -57 -1161 -40 -2656 150 -3941 501 -868 237 -1604 506
-2470 905 -370 170 -887 445 -1320 703 -1700 1011 -3227 2413 -4385 4027 -618
861 -1250 1989 -1645 2935 -615 1473 -991 3150 -1096 4880 -15 255 -16 1488 0
1760 46 808 182 1719 375 2495 138 555 286 1013 531 1635 42 107 115 296 162
420 427 1122 1022 2192 1782 3205 465 620 923 1136 1527 1721 316 306 374 359
634 583 967 831 2007 1524 3140 2092 270 135 325 161 545 261 1404 637 2905
1055 4375 1217 315 35 562 54 995 75 183 9 1107 -4 1325 -18z"/>
<path d="M14335 29414 c-33 -2 -145 -8 -250 -14 -1159 -65 -2332 -292 -3500
-677 -1878 -619 -3615 -1609 -5140 -2928 -342 -295 -928 -869 -1242 -1217
-1077 -1189 -1952 -2575 -2492 -3948 -432 -1100 -541 -1410 -695 -1979 -222
-819 -382 -1836 -426 -2711 -13 -252 -13 -1411 0 -1645 72 -1323 327 -2678
734 -3900 219 -657 432 -1168 734 -1765 779 -1537 1690 -2792 2843 -3914 976
-950 1975 -1689 3174 -2349 249 -137 814 -415 1089 -537 1544 -682 3193 -1096
4841 -1214 544 -40 905 -43 1510 -16 2548 115 5064 909 7220 2278 1187 754
2266 1688 3181 2753 625 729 1228 1603 1661 2409 142 265 611 1212 696 1405
488 1113 824 2388 981 3715 68 569 96 1015 103 1630 9 763 -23 1364 -112 2090
-175 1421 -565 2813 -1116 3971 -200 422 -560 1128 -690 1354 -1143 1993
-2728 3655 -4659 4887 -2008 1281 -4258 2053 -6610 2267 -478 44 -674 53
-1230 56 -300 1 -572 1 -605 -1z m1600 -584 c127 -12 305 -42 418 -71 64 -16
94 -31 159 -79 129 -95 173 -176 199 -367 11 -84 9 -426 -3 -438 -5 -6 -473
21 -534 31 l-31 4 -5 78 c-5 87 -27 142 -65 168 -28 18 -265 53 -364 54 -76 0
-144 -25 -190 -71 -34 -34 -39 -45 -39 -83 0 -50 11 -61 108 -110 44 -22 87
-31 255 -52 336 -42 470 -75 604 -149 86 -49 191 -153 226 -225 70 -146 92
-459 48 -670 -12 -58 -41 -152 -64 -210 -35 -88 -50 -114 -97 -161 -143 -145
-474 -228 -788 -199 -303 28 -579 93 -675 158 -151 104 -224 270 -234 532 -5
125 7 314 21 327 5 5 588 -16 593 -21 2 -2 -1 -25 -7 -52 -7 -27 -12 -78 -13
-114 -1 -71 19 -120 57 -139 31 -15 359 -44 441 -39 81 5 144 34 179 81 46 62
11 183 -65 222 -60 32 -187 56 -394 75 -248 24 -317 35 -407 65 -93 31 -144
63 -206 129 -98 103 -136 225 -148 466 -16 326 87 636 242 730 188 113 462
159 779 130z m1987 -281 c534 -97 866 -183 1141 -295 134 -54 144 -61 199
-132 101 -128 132 -229 132 -422 -1 -106 -7 -163 -28 -264 -40 -191 -161 -548
-221 -652 -37 -63 -154 -168 -231 -205 -67 -33 -71 -34 -221 -37 -176 -4 -220
3 -496 78 -217 60 -338 84 -347 70 -4 -6 -42 -167 -84 -358 -43 -191 -79 -348
-81 -350 -5 -5 -560 123 -573 133 -4 3 92 456 178 840 73 327 367 1600 375
1623 6 17 8 17 257 -29z m-4198 -538 c28 -163 36 -235 29 -239 -6 -4 -176 -38
-378 -77 -347 -66 -366 -70 -361 -90 2 -11 10 -46 16 -78 9 -46 15 -57 28 -53
54 15 704 127 710 122 7 -7 61 -394 62 -441 l0 -31 -352 -57 c-193 -32 -353
-59 -354 -60 -1 -1 16 -123 37 -272 21 -148 35 -273 31 -276 -8 -7 -482 -73
-486 -67 -5 7 -277 1621 -273 1624 2 2 251 49 553 104 302 55 578 107 614 114
36 8 70 13 75 12 6 -2 28 -107 49 -235z m-1828 -276 c105 -31 251 -188 347
-373 105 -204 146 -363 154 -597 5 -172 -6 -260 -45 -349 -17 -38 -36 -55
-144 -126 -203 -135 -409 -226 -603 -265 -93 -19 -302 -22 -384 -6 -118 24
-124 27 -183 99 -169 206 -288 460 -333 715 -24 134 -17 352 14 449 25 78 49
104 166 182 187 125 451 230 680 271 98 18 270 18 331 0z m8839 -145 c180 -53
308 -101 420 -157 332 -166 554 -424 555 -648 1 -227 -72 -502 -209 -790 -71
-149 -147 -282 -310 -540 -153 -243 -245 -343 -377 -413 -156 -81 -237 -87
-449 -38 -521 123 -880 364 -1033 695 l-35 76 6 107 c13 219 80 471 193 719
97 215 343 641 440 761 92 114 237 218 362 259 47 16 79 18 177 15 105 -3 137
-9 260 -46z m-11830 -295 c75 -20 149 -55 208 -100 42 -32 348 -423 347 -442
-1 -7 -496 -321 -520 -331 -5 -2 -19 18 -32 45 -31 63 -129 163 -159 163 -13
0 -62 -21 -109 -46 -190 -102 -360 -236 -401 -317 l-20 -39 20 -68 c57 -186
272 -529 485 -772 61 -70 82 -88 104 -88 42 0 213 82 321 154 54 36 132 97
174 137 87 80 93 100 57 175 -43 89 -34 91 -250 -52 -105 -69 -195 -123 -199
-118 -30 34 -139 185 -186 258 -52 81 -148 257 -142 262 1 1 196 125 433 277
238 151 443 282 456 291 l25 16 130 -182 c321 -448 423 -672 423 -925 -1 -297
-113 -445 -562 -740 -264 -174 -381 -228 -554 -253 -99 -14 -214 -1 -291 35
-98 44 -236 148 -354 265 -189 187 -301 351 -583 851 -150 266 -168 304 -181
373 -45 236 13 498 138 617 44 43 326 249 452 331 262 172 430 236 615 237 55
1 121 -6 155 -14z m14375 -1280 c644 -509 618 -483 641 -634 21 -140 -4 -266
-81 -421 -112 -223 -255 -405 -384 -490 -63 -42 -167 -80 -216 -80 -15 0 -40
-10 -55 -22 l-28 -22 6 -97 c8 -123 9 -119 -192 -393 -180 -245 -263 -370
-320 -484 -28 -56 -46 -80 -54 -76 -47 28 -300 236 -382 315 l-99 96 33 54
c18 30 91 136 162 237 153 217 241 352 237 368 -2 6 -101 93 -220 193 l-217
181 -85 -98 c-92 -106 -124 -147 -301 -387 -65 -88 -119 -161 -120 -163 -6 -6
-484 373 -482 381 4 12 1571 1996 1577 1997 3 0 264 -205 580 -455z m-15985
-686 c347 -402 718 -833 826 -958 l197 -228 -298 -271 c-164 -150 -303 -272
-307 -272 -8 0 -692 351 -1163 597 -80 42 -138 67 -128 57 9 -10 210 -246 448
-524 l432 -505 -25 -20 c-14 -11 -116 -100 -228 -197 -112 -97 -208 -177 -212
-178 -10 -1 -1677 1898 -1677 1910 0 7 540 489 602 538 14 11 107 -36 654
-329 352 -188 643 -344 648 -347 5 -3 6 1 1 9 -8 12 -808 1001 -841 1040 -13
14 11 39 207 212 122 109 224 197 228 196 3 0 290 -329 636 -730z m8525 447
c113 -9 228 -18 255 -21 504 -53 787 -94 1150 -166 968 -193 1783 -484 2745
-981 1082 -559 2069 -1337 3021 -2378 762 -835 1382 -1781 1845 -2820 477
-1072 739 -2161 844 -3515 29 -368 20 -1374 -15 -1740 -126 -1302 -380 -2354
-823 -3401 -442 -1045 -962 -1849 -1818 -2809 -1860 -2086 -4357 -3344 -7089
-3569 -459 -38 -1241 -46 -1675 -16 -737 50 -1512 164 -2085 306 -1333 332
-2649 1004 -3855 1970 -430 343 -1036 915 -1374 1294 -908 1020 -1564 2063
-2011 3198 -255 647 -452 1441 -580 2332 -121 849 -149 1735 -80 2580 123
1510 567 2973 1298 4285 390 700 903 1412 1427 1980 186 201 663 673 830 821
613 542 1406 1106 2030 1445 333 180 767 377 1145 519 1078 405 2211 634 3460
700 245 13 1115 4 1355 -14z m9459 -1560 l642 -690 -88 -89 c-48 -48 -159
-156 -246 -240 l-158 -151 -224 224 -223 223 -163 -149 c-984 -904 -1225
-1124 -1231 -1121 -10 3 -408 441 -408 448 0 4 298 288 663 631 364 344 669
634 678 644 16 18 6 31 -192 254 -115 129 -208 238 -206 242 2 8 510 468 513
465 1 -1 290 -312 643 -691z m-19759 -947 c525 -445 961 -816 969 -824 12 -12
-14 -48 -178 -244 -106 -127 -197 -231 -202 -231 -6 0 -344 278 -752 618 -408
340 -847 705 -975 811 -213 176 -232 195 -220 212 23 33 393 468 398 469 3 0
435 -365 960 -811z m-1425 -794 l310 -634 767 -3 767 -3 -192 -317 -192 -317
-594 -3 -594 -3 189 -126 c196 -131 426 -272 577 -353 48 -26 87 -49 87 -51 0
-2 -72 -123 -161 -269 l-160 -265 -87 51 c-133 79 -1810 1085 -1953 1173
l-127 77 169 271 c92 150 172 271 178 270 6 -2 184 -111 397 -243 212 -133
388 -240 390 -238 10 10 -167 362 -413 823 -35 66 -65 123 -66 127 -2 8 386
668 393 668 3 0 145 -286 315 -635z m22054 330 c205 -49 447 -278 594 -563 82
-158 157 -422 157 -552 0 -161 -80 -304 -243 -435 -79 -63 -305 -211 -311
-204 -15 16 -123 193 -168 274 -60 108 -124 243 -117 248 2 2 27 17 54 35 28
17 65 47 84 66 l34 36 -49 107 c-101 222 -218 383 -278 383 -15 0 -37 -5 -49
-11 -37 -19 -97 -82 -97 -101 0 -41 47 -154 150 -363 148 -297 190 -430 190
-595 0 -147 -60 -291 -160 -383 -128 -119 -306 -240 -430 -292 -149 -63 -321
-82 -454 -51 -173 41 -483 360 -623 641 -71 142 -145 368 -163 495 -19 139 37
279 164 405 90 89 406 310 420 294 13 -14 173 -267 237 -374 59 -99 75 -133
67 -143 -6 -7 -42 -31 -80 -54 -68 -40 -118 -88 -118 -113 0 -25 52 -151 103
-248 51 -99 160 -244 209 -280 l27 -20 55 27 c31 15 72 46 92 69 30 36 35 47
30 77 -2 19 -79 184 -170 365 -91 182 -173 355 -181 385 -40 140 -26 283 38
404 76 144 366 365 582 443 116 42 292 54 404 28z m-23116 -3451 c293 -55 550
-247 692 -517 112 -213 143 -471 85 -707 -28 -117 -114 -287 -195 -387 -128
-160 -324 -285 -530 -339 -86 -23 -120 -27 -245 -27 -125 0 -159 4 -245 27
-361 95 -628 362 -727 727 -19 71 -23 108 -22 244 0 188 17 270 90 424 79 168
197 305 351 408 220 147 479 198 746 147z m24134 10 c183 -19 396 -122 545
-263 417 -392 419 -1050 6 -1447 -193 -185 -418 -276 -688 -277 -180 -1 -302
28 -464 111 -303 155 -510 464 -534 795 -15 201 15 365 98 532 152 309 454
519 795 554 78 8 124 7 242 -5z m-24725 -3214 c719 -44 1310 -80 1313 -80 3 0
5 -170 5 -377 l0 -378 -188 -64 c-268 -91 -637 -233 -993 -381 -170 -71 -317
-133 -326 -139 -13 -7 19 -9 107 -6 69 3 262 10 430 16 168 5 440 16 605 24
165 8 315 15 333 15 l32 0 0 -260 c0 -215 -2 -260 -14 -260 -8 0 -627 -56
-1377 -125 -750 -68 -1364 -123 -1364 -122 -1 1 1 203 4 449 l6 448 515 173
c469 158 1301 449 1297 454 -12 12 -450 26 -1042 33 -401 5 -740 12 -752 16
l-23 6 0 324 0 325 63 -6 c34 -3 650 -42 1369 -85z m25828 -296 c192 -33 343
-101 453 -204 57 -53 65 -66 90 -142 153 -481 132 -1139 -49 -1499 -47 -95
-77 -125 -163 -168 -188 -94 -325 -121 -647 -128 -496 -11 -1058 71 -1479 214
-148 51 -183 69 -223 121 -103 131 -144 314 -145 657 -1 300 38 596 94 712 29
61 118 150 189 190 112 64 341 123 478 123 l52 0 0 -270 0 -270 -22 -9 c-13
-5 -48 -11 -78 -15 -154 -19 -210 -113 -210 -348 0 -197 35 -315 107 -364 48
-32 208 -82 340 -105 169 -31 506 -31 674 -1 122 22 215 52 249 80 30 25 43
140 44 382 1 172 -2 215 -17 264 -26 82 -41 102 -105 133 -46 22 -70 28 -132
28 -120 0 -110 24 -110 -265 l0 -250 -305 0 -305 0 2 517 3 517 85 18 c250 51
462 82 700 102 88 8 337 -4 430 -20z m-24482 -1831 c53 -250 274 -1415 269
-1420 -12 -12 -521 -143 -528 -135 -4 4 -52 225 -107 491 -56 266 -103 485
-105 487 -2 2 -43 -7 -93 -20 -49 -14 -107 -29 -130 -35 l-40 -11 102 -472
c57 -260 103 -477 104 -483 0 -12 -628 -190 -638 -181 -3 4 -59 239 -124 523
-64 283 -120 518 -123 521 -5 5 -355 -35 -362 -41 -1 -2 54 -264 122 -582 69
-318 124 -580 122 -581 -6 -6 -810 -255 -813 -252 -7 7 -437 1958 -433 1963 6
5 2654 272 2721 274 l46 1 10 -47z m23597 -489 c759 -41 1382 -78 1384 -80 6
-6 -150 -967 -158 -976 -3 -4 -429 -57 -946 -118 -517 -61 -951 -113 -965
-116 -25 -6 155 -48 1285 -295 281 -62 512 -114 514 -116 5 -3 -108 -706 -115
-712 -2 -3 -28 3 -57 12 -225 69 -2623 820 -2625 822 -3 3 105 666 110 671 3
2 324 63 714 135 390 72 712 135 717 138 4 4 -289 47 -650 96 -362 49 -661 91
-666 95 -8 6 64 520 73 520 3 0 626 -34 1385 -76z m-23246 -1244 c50 -129 91
-238 91 -241 0 -3 -245 -114 -544 -245 -299 -132 -540 -240 -537 -242 4 -1
265 59 581 133 455 107 577 133 584 122 4 -7 61 -139 126 -292 91 -217 115
-282 105 -290 -7 -5 -274 -147 -593 -315 -319 -168 -579 -306 -577 -308 1 -2
281 83 621 189 341 105 623 192 627 193 13 2 206 -485 193 -489 -6 -3 -342
-111 -746 -240 -404 -130 -1000 -322 -1324 -426 -324 -105 -592 -186 -597
-182 -7 7 -286 700 -296 734 -3 12 154 92 681 349 378 183 685 334 684 336 -2
1 -331 -83 -733 -187 -401 -103 -730 -187 -731 -186 -14 19 -284 730 -279 735
7 7 2569 1091 2572 1088 1 0 42 -107 92 -236z m22311 -755 c415 -124 1005
-301 1310 -392 305 -91 556 -167 558 -168 3 -2 -305 -836 -311 -842 -4 -4
-2548 1046 -2560 1057 -6 5 93 276 204 558 6 16 15 22 27 18 9 -3 357 -107
772 -231z m1150 -1421 c201 -80 367 -147 368 -149 4 -4 -706 -1546 -717 -1557
-3 -4 -49 17 -101 46 -52 29 -185 102 -295 163 -1185 654 -2001 1106 -2004
1109 -3 3 48 110 112 240 l117 236 846 -427 c465 -234 848 -424 852 -421 5 3
105 207 223 455 117 248 219 451 224 451 6 0 174 -66 375 -146z m-2560 -659
c102 -54 193 -104 202 -110 16 -11 4 -34 -123 -236 -77 -123 -145 -232 -150
-241 -8 -14 123 -96 898 -562 500 -300 916 -551 926 -558 16 -12 3 -36 -155
-290 -95 -153 -176 -278 -181 -278 -4 0 -412 270 -907 600 l-899 600 -94 -133
c-51 -72 -119 -169 -151 -214 -32 -46 -62 -85 -66 -88 -8 -5 -462 334 -475
354 -2 5 196 301 442 659 l446 652 51 -29 c28 -16 134 -73 236 -126z m-21095
-338 c94 -144 170 -265 170 -269 0 -4 -67 -52 -150 -106 -152 -101 -279 -207
-290 -242 -4 -11 1 -46 10 -78 40 -138 155 -302 250 -358 70 -41 111 -36 213
26 203 123 545 362 1122 783 140 103 258 185 262 184 15 -5 344 -425 337 -430
-53 -41 -244 -205 -469 -402 -499 -438 -735 -627 -961 -770 -223 -142 -469
-247 -609 -260 -170 -17 -395 85 -545 247 -136 146 -292 383 -432 656 l-68
132 0 148 c0 135 2 154 29 236 65 198 219 363 491 525 111 66 444 241 460 241
6 0 87 -118 180 -263z m2660 -1331 c94 -104 172 -192 173 -197 2 -5 -137 -228
-308 -496 -527 -820 -1100 -1725 -1131 -1786 -6 -12 22 10 62 49 67 65 1687
1593 1751 1652 l27 24 128 -98 c375 -288 635 -540 779 -755 86 -128 98 -167
91 -283 -10 -157 -67 -297 -184 -454 -32 -42 -153 -174 -269 -292 -223 -226
-271 -263 -441 -342 -60 -28 -79 -32 -159 -32 -90 -1 -92 0 -195 51 -132 66
-226 141 -467 376 l-193 188 -142 -148 c-79 -81 -228 -237 -332 -346 -105
-108 -193 -196 -197 -195 -4 2 -195 220 -423 486 l-415 483 184 272 184 272
-138 178 c-76 98 -167 216 -203 262 l-66 83 -285 -129 c-157 -71 -289 -129
-294 -129 -7 0 -340 408 -453 555 -5 7 74 41 219 94 1230 452 2157 793 2297
846 l170 64 30 -33 c17 -18 107 -117 200 -220z m17336 240 c136 -29 308 -122
482 -261 l57 -45 -165 -190 c-91 -104 -170 -192 -176 -195 -5 -4 -52 23 -104
59 -52 36 -101 66 -107 66 -56 -1 -233 -157 -372 -330 l-68 -85 63 -57 c35
-32 85 -69 112 -83 l47 -26 68 52 c37 29 131 110 210 179 176 154 278 227 396
286 120 59 211 78 341 70 l100 -5 170 -85 c257 -127 427 -246 564 -392 278
-297 317 -583 126 -919 -155 -271 -471 -565 -754 -703 -72 -34 -81 -36 -172
-35 -250 3 -409 96 -806 473 l-113 106 209 213 c193 196 211 212 231 201 11
-6 68 -56 125 -110 57 -54 112 -103 123 -109 15 -8 40 12 163 132 157 153 221
230 268 323 53 105 55 98 -62 195 -152 127 -133 122 -213 59 -38 -30 -140
-121 -226 -203 -86 -83 -192 -177 -235 -209 -89 -67 -213 -130 -292 -148 -74
-17 -221 -8 -294 18 -113 40 -265 149 -403 287 -179 180 -258 339 -271 545 -6
107 -3 118 99 288 176 293 405 508 657 619 85 36 123 40 222 19z m-1040 -1266
c112 -121 204 -224 204 -229 0 -6 -175 -154 -390 -331 -214 -177 -394 -326
-399 -330 -9 -9 38 -69 134 -172 l45 -49 385 325 c212 179 388 326 391 326 8
0 429 -488 435 -504 3 -8 -161 -147 -400 -340 l-405 -327 106 -145 c57 -79
108 -146 113 -149 4 -3 209 161 455 363 246 202 453 367 460 367 10 0 198
-192 527 -541 l58 -60 -28 -26 c-25 -23 -254 -210 -1152 -942 -173 -141 -317
-256 -320 -255 -4 0 -1552 2239 -1573 2274 -5 10 160 153 565 489 315 262 575
476 578 476 4 0 98 -99 211 -220z m-13893 -1158 c127 -86 232 -160 232 -167 0
-6 -159 -575 -354 -1265 -195 -690 -354 -1256 -352 -1257 1 -1 289 500 641
1113 351 613 641 1116 644 1118 3 2 144 -60 314 -138 305 -139 307 -140 307
-171 0 -16 -27 -365 -60 -775 -32 -409 -58 -745 -57 -746 1 -1 130 299 287
668 157 368 289 672 293 675 8 5 474 -182 490 -196 6 -6 -973 -2694 -986
-2708 -4 -3 -811 341 -824 351 -2 1 56 428 127 949 72 521 130 955 130 964 0
10 -187 -353 -416 -807 -229 -454 -419 -829 -423 -833 -10 -10 -1191 653
-1191 668 0 7 47 149 104 316 58 167 106 309 108 316 2 10 -509 356 -545 368
-7 3 -122 -90 -257 -206 -134 -115 -249 -208 -255 -207 -16 5 -575 430 -575
438 0 4 408 306 907 671 499 365 1024 750 1167 855 257 189 261 191 286 176
14 -9 130 -85 258 -170z m12323 102 c82 -24 179 -86 272 -174 302 -285 416
-533 347 -752 -11 -34 -20 -66 -20 -70 0 -3 39 -8 88 -10 86 -3 89 -4 153 -50
84 -60 232 -215 347 -365 50 -65 142 -185 206 -268 63 -82 156 -197 207 -254
86 -97 91 -105 73 -118 -39 -29 -582 -353 -590 -353 -5 1 -63 78 -129 172
-265 379 -498 688 -518 688 -13 0 -576 -294 -577 -301 0 -3 120 -219 266 -480
147 -261 269 -481 271 -489 3 -11 -80 -61 -293 -178 -164 -89 -301 -159 -305
-155 -9 10 -577 1187 -944 1958 l-262 550 51 29 c49 28 231 138 516 311 259
157 497 279 610 311 63 17 167 17 231 -2z m-1007 -1970 c240 -715 436 -1305
436 -1311 0 -9 -734 -304 -755 -303 -5 0 -163 300 -349 665 -187 366 -341 664
-342 662 -2 -2 93 -320 210 -708 117 -387 211 -707 207 -712 -4 -4 -179 -79
-390 -166 l-383 -159 -28 61 c-15 34 -285 609 -600 1277 -314 668 -574 1220
-576 1226 -5 12 492 198 510 191 6 -3 135 -257 286 -566 151 -308 275 -559
276 -558 2 1 -69 274 -157 606 -88 333 -156 608 -152 611 10 8 607 230 620
230 5 0 153 -258 328 -574 176 -316 321 -573 323 -572 1 2 -95 281 -214 620
-118 340 -214 619 -212 621 13 10 514 171 519 166 4 -3 203 -591 443 -1307z
m-7986 506 c639 -122 731 -145 879 -218 139 -68 242 -175 276 -286 17 -58 17
-621 -1 -733 -43 -272 -115 -457 -228 -582 -102 -114 -174 -141 -376 -141
-168 0 -232 10 -518 80 -133 33 -247 60 -254 60 -8 0 -44 -165 -105 -477 -52
-263 -97 -482 -101 -486 -5 -5 -153 22 -330 59 l-322 68 7 41 c16 104 192 780
333 1280 273 970 398 1395 410 1395 7 0 155 -27 330 -60z m4362 -245 c41 -9
116 -37 167 -61 83 -40 96 -50 137 -106 203 -285 334 -707 402 -1295 20 -169
22 -617 5 -743 -45 -310 -238 -489 -621 -574 -235 -52 -561 -60 -725 -17 -179
47 -338 156 -402 278 -117 221 -207 689 -235 1224 -15 302 2 745 32 834 79
231 260 367 576 435 246 52 502 62 664 25z m-1647 -71 c108 -67 202 -188 241
-314 51 -159 59 -436 21 -714 l-16 -119 -90 -108 c-49 -59 -89 -109 -89 -112
0 -3 19 -16 43 -30 60 -35 124 -108 153 -173 44 -100 55 -201 60 -564 5 -398
13 -464 70 -604 7 -19 0 -19 -316 -13 -177 3 -324 8 -325 9 -3 4 -52 623 -60
758 -3 58 -11 129 -16 157 -9 48 -15 56 -54 79 -81 47 -248 63 -486 48 l-96
-7 -7 -401 c-3 -221 -9 -457 -13 -525 l-6 -124 -316 7 c-174 4 -317 9 -318 10
-2 1 38 619 87 1372 50 753 90 1375 90 1382 0 9 147 12 700 12 l700 0 43 -26z
m3102 -894 c59 -138 106 -252 104 -254 -6 -6 -708 -196 -723 -196 -12 0 -106
534 -96 544 8 7 595 163 601 160 4 -2 55 -116 114 -254z"/>
<path d="M18116 27748 c-31 -85 -67 -235 -73 -309 l-6 -76 49 -16 c149 -49
422 -107 505 -107 45 0 87 42 126 125 36 79 39 198 7 259 l-20 40 -280 63
c-153 34 -282 63 -286 63 -3 0 -13 -19 -22 -42z"/>
<path d="M11501 27134 c-114 -34 -231 -91 -231 -114 0 -65 97 -349 139 -409
19 -27 28 -31 68 -31 67 0 156 26 261 76 l94 44 -7 32 c-37 182 -79 308 -128
380 -29 44 -35 48 -72 47 -22 0 -78 -11 -124 -25z"/>
<path d="M20362 26868 c-114 -160 -176 -264 -248 -413 -67 -141 -126 -310
-145 -420 l-12 -69 53 -48 c71 -66 155 -122 253 -168 80 -38 240 -90 278 -90
36 0 228 280 340 495 64 123 136 300 171 419 l23 79 -55 49 c-100 91 -234 174
-352 218 -48 18 -201 60 -218 60 -4 0 -43 -51 -88 -112z"/>
<path d="M22652 25406 c-56 -69 -102 -127 -102 -129 0 -5 397 -340 432 -365
16 -12 25 -9 67 22 87 64 161 163 161 215 0 13 -46 60 -136 138 -119 103 -299
242 -314 243 -3 0 -52 -56 -108 -124z"/>
<path d="M14400 25604 c-1305 -62 -2526 -333 -3620 -804 -409 -176 -768 -371
-1310 -713 -1963 -1237 -3407 -2930 -4254 -4991 -450 -1094 -718 -2305 -776
-3501 -21 -437 -10 -1122 25 -1580 64 -827 236 -1625 522 -2420 997 -2770
3207 -5151 5783 -6230 871 -365 1872 -629 2862 -754 485 -61 833 -84 1328 -84
365 -1 522 6 956 43 2049 176 4029 968 5644 2259 308 246 550 462 854 761 510
502 918 985 1293 1530 1338 1943 1984 4529 1758 7035 -61 676 -196 1375 -389
2017 -157 519 -320 921 -630 1553 -242 493 -414 795 -677 1190 -382 574 -756
1029 -1289 1569 -584 591 -1063 986 -1750 1441 -320 212 -608 387 -840 510
-1234 656 -2572 1026 -4155 1151 -189 15 -1132 27 -1335 18z m-854 -955 c307
-30 537 -109 769 -263 242 -162 409 -343 506 -550 83 -177 146 -419 170 -655
16 -160 6 -458 -20 -580 -23 -110 -43 -136 -136 -181 -230 -111 -434 -34 -844
319 -269 231 -337 276 -545 360 -205 83 -352 179 -498 324 -204 205 -318 427
-318 622 0 159 52 277 175 401 176 177 395 237 741 203z m3392 -168 c30 -14
98 -56 152 -95 54 -39 111 -78 127 -87 33 -18 81 -103 115 -204 21 -63 23 -88
22 -235 0 -150 -3 -173 -28 -255 -82 -271 -265 -478 -576 -654 -41 -24 -172
-86 -290 -138 -118 -52 -253 -115 -300 -139 -205 -105 -367 -235 -472 -376
-53 -71 -100 -108 -137 -108 -44 0 -172 202 -220 350 -103 320 -87 768 45
1255 41 149 79 217 190 335 152 161 328 262 566 325 158 42 281 54 528 52 214
-2 228 -3 278 -26z m-5173 -227 c157 -30 288 -102 389 -215 58 -65 211 -295
289 -434 134 -243 188 -421 188 -629 l0 -109 -38 -39 c-106 -109 -373 -118
-603 -20 -236 100 -345 119 -989 177 -268 24 -445 59 -585 116 -55 22 -82 40
-122 83 -76 83 -106 145 -106 217 0 58 2 63 57 135 85 110 216 229 436 394
217 163 264 192 391 244 230 95 468 122 693 80z m6618 -59 c381 -67 709 -222
1012 -477 109 -92 264 -259 326 -352 32 -48 39 -67 39 -108 0 -101 -46 -150
-247 -261 -439 -244 -1076 -354 -1457 -253 -151 40 -236 84 -285 146 -135 170
-191 337 -191 565 0 151 20 250 71 355 100 205 382 399 579 400 36 0 105 -7
153 -15z m2432 -1205 c399 -68 640 -243 756 -547 l34 -88 0 -215 c0 -201 -2
-222 -28 -325 -15 -60 -62 -211 -104 -335 -65 -193 -98 -269 -228 -535 -161
-326 -228 -433 -323 -514 -59 -51 -148 -99 -216 -117 -47 -12 -54 -12 -93 7
-59 28 -116 97 -166 198 -36 72 -42 93 -40 140 5 181 147 413 387 635 348 320
464 467 532 666 23 69 26 301 5 365 -20 59 -85 140 -152 190 -218 160 -552
147 -911 -37 -185 -94 -294 -223 -448 -529 -45 -90 -105 -202 -133 -248 -53
-89 -162 -213 -208 -237 -16 -8 -95 -27 -177 -44 -82 -16 -174 -39 -205 -50
-75 -28 -138 -79 -167 -133 -23 -43 -24 -49 -12 -103 14 -69 51 -126 162 -254
170 -195 203 -256 180 -334 -9 -32 -44 -71 -155 -181 -215 -211 -230 -260
-137 -445 37 -74 55 -125 63 -175 13 -84 3 -238 -18 -278 -27 -52 -128 -142
-204 -180 -101 -51 -195 -72 -469 -108 -514 -66 -635 -105 -1065 -339 -392
-214 -593 -299 -790 -335 -68 -13 -102 -25 -142 -52 -159 -105 -266 -308 -294
-557 -14 -126 -1 -376 31 -611 68 -488 69 -499 31 -620 -36 -117 -54 -290 -47
-455 3 -80 9 -251 12 -380 l6 -235 -54 -52 c-136 -132 -356 -267 -539 -331
-177 -62 -412 -97 -616 -90 l-109 3 -159 80 c-131 65 -169 80 -217 83 -74 6
-106 -8 -163 -69 -61 -65 -75 -102 -75 -197 0 -207 68 -303 366 -517 159 -114
320 -267 352 -336 33 -68 45 -152 38 -251 l-7 -87 39 -39 c53 -53 104 -75 276
-120 l148 -39 25 21 c43 38 43 102 -3 232 -89 254 -39 369 270 623 234 193
311 297 323 434 13 141 138 294 313 379 108 53 115 56 410 145 297 91 330 99
472 117 146 19 423 22 553 6 335 -41 602 -141 818 -307 147 -114 272 -253 331
-372 66 -132 126 -332 145 -491 14 -108 14 -339 0 -471 -37 -373 -209 -760
-438 -990 -100 -100 -147 -128 -236 -136 l-65 -6 0 50 c0 28 9 102 20 164 22
129 24 178 9 232 -13 47 -67 109 -116 132 -85 40 -134 47 -418 55 -264 7 -285
9 -373 35 -81 24 -98 26 -131 16 -55 -16 -114 -62 -162 -127 -43 -56 -43 -58
-55 -176 -24 -232 -58 -355 -154 -555 -121 -254 -292 -472 -532 -678 -100 -86
-286 -222 -292 -214 -6 8 -27 120 -41 219 -36 246 -30 544 15 844 22 142 19
176 -25 252 -58 100 -171 168 -385 231 -105 30 -144 37 -245 40 -107 4 -140 1
-300 -31 -231 -45 -315 -56 -428 -56 -132 0 -214 26 -324 102 -23 15 -56 31
-72 34 -45 9 -111 -28 -177 -99 l-57 -61 7 -121 c12 -203 55 -477 161 -1010
30 -148 57 -296 61 -327 8 -70 5 -71 -112 -32 -262 85 -442 235 -794 659 -192
231 -323 371 -416 446 l-62 49 -113 0 c-482 1 -879 113 -1255 356 -195 125
-345 257 -505 443 -187 217 -225 284 -339 601 -73 203 -118 286 -200 368 -88
88 -143 115 -241 120 -93 5 -147 -17 -213 -88 -55 -59 -94 -140 -135 -284 -57
-197 -78 -223 -248 -305 -150 -73 -200 -103 -308 -187 -99 -76 -201 -182 -285
-298 -204 -279 -250 -326 -318 -326 -51 1 -108 29 -169 84 -95 86 -215 357
-267 603 -44 211 -61 375 -76 768 -17 430 -15 679 5 760 58 234 196 399 536
639 85 60 205 146 268 190 201 142 376 325 455 476 59 113 95 260 63 260 -7 0
-37 -25 -67 -56 -249 -254 -715 -526 -1183 -689 -103 -36 -109 -37 -165 -26
-65 13 -179 65 -249 113 -68 46 -172 154 -218 226 -22 34 -43 62 -46 62 -12 0
-79 -159 -102 -245 -14 -49 -42 -166 -62 -259 -44 -203 -76 -308 -122 -401
-71 -143 -133 -205 -348 -350 -269 -181 -400 -291 -645 -541 -183 -187 -369
-395 -559 -624 -133 -161 -174 -190 -266 -190 l-61 0 -27 70 c-17 45 -27 89
-27 123 0 30 -11 197 -25 373 -93 1195 -94 1649 -4 2074 90 421 254 743 514
1006 219 221 487 387 700 435 39 9 123 14 240 13 169 0 187 -2 298 -32 132
-35 191 -64 236 -119 51 -62 61 -108 61 -282 0 -265 19 -360 84 -420 l26 -24
26 24 c75 69 157 216 269 485 77 181 153 337 198 403 17 26 65 80 106 121 90
89 187 141 401 215 152 53 195 73 262 122 59 42 131 147 123 177 -29 100 -39
103 -223 66 -293 -59 -487 -62 -626 -9 -104 39 -101 30 -101 241 0 180 -8 241
-37 281 -12 16 -23 4 -103 -105 -154 -210 -327 -365 -492 -440 -37 -16 -117
-41 -177 -55 -61 -13 -145 -36 -186 -50 -172 -58 -443 -206 -768 -420 -250
-164 -280 -174 -352 -123 -43 31 -54 68 -47 173 11 184 82 342 278 617 240
336 264 376 382 630 268 576 473 839 762 976 122 58 194 74 343 74 137 0 163
-8 204 -62 30 -39 88 -154 149 -293 47 -107 75 -145 110 -145 32 0 101 76 139
154 l33 67 -6 147 c-3 81 -22 271 -41 422 -89 698 -95 876 -37 1155 57 279
218 529 398 623 135 70 207 87 363 86 155 0 223 -14 357 -72 130 -56 269 -142
523 -324 571 -409 623 -432 950 -432 227 0 306 13 790 129 571 137 725 154
1400 162 508 6 577 1 815 -52 446 -100 761 -294 1009 -619 54 -71 92 -152 107
-225 17 -89 6 -277 -31 -501 -36 -220 -37 -288 -9 -400 21 -81 21 -86 5 -168
-51 -256 -179 -437 -526 -740 -212 -186 -341 -312 -414 -407 -96 -123 -96
-124 -81 -169 18 -52 63 -105 109 -129 49 -26 140 -26 296 -2 169 27 458 26
655 -3 374 -53 514 -34 637 89 59 59 128 193 135 264 7 70 -8 110 -68 181 -68
79 -104 143 -134 236 -41 130 -47 189 -57 603 -16 617 -15 784 6 890 59 301
209 557 420 712 140 103 381 228 621 323 358 141 740 214 1110 215 176 0 194
-2 244 -23 33 -14 99 -28 171 -37 87 -10 130 -20 166 -39 61 -31 154 -46 304
-46 310 0 516 69 1075 364 503 265 667 330 925 366 93 13 298 3 435 -20z
m1336 -1357 c73 -37 187 -152 294 -298 48 -66 122 -165 163 -220 66 -87 76
-105 75 -138 -4 -86 -94 -157 -199 -157 -28 0 -125 -14 -215 -32 -102 -19
-198 -31 -254 -32 -82 -1 -95 2 -144 29 -62 34 -104 82 -128 143 -14 38 -15
53 -4 125 24 158 102 352 187 468 44 60 131 139 153 139 9 0 42 -12 72 -27z
m541 -1334 c283 -93 541 -261 778 -506 186 -191 312 -376 389 -570 46 -115 71
-276 71 -456 0 -193 -38 -306 -122 -367 -137 -99 -336 -105 -568 -15 -125 48
-538 254 -597 298 -186 137 -334 399 -378 672 -19 113 -19 181 -1 270 8 39 17
138 21 220 10 252 31 343 93 408 77 81 168 94 314 46z m-1267 -37 c147 -57
305 -207 386 -370 71 -141 259 -787 259 -891 0 -112 -71 -168 -204 -158 -90 6
-307 74 -384 120 -31 19 -108 60 -170 92 -189 96 -265 184 -314 364 -28 100
-30 330 -5 436 28 117 99 303 130 340 69 84 189 110 302 67z m-2135 -1495 c0
-86 -22 -193 -65 -316 -37 -105 -70 -228 -81 -306 -14 -101 -164 -529 -244
-701 -145 -311 -335 -531 -555 -645 -86 -44 -323 -123 -415 -138 -84 -14 -311
-14 -403 0 -40 5 -153 25 -252 44 -248 46 -246 46 -359 55 -129 10 -281 -3
-385 -34 -71 -20 -83 -21 -88 -9 -10 26 6 276 23 353 11 49 17 136 19 251 3
184 11 233 51 312 23 44 251 338 274 352 12 8 35 -44 44 -100 4 -22 11 -141
15 -265 11 -283 19 -311 125 -416 142 -140 333 -259 481 -299 86 -23 231 -30
306 -16 131 26 328 132 458 248 124 109 229 274 273 430 29 101 31 286 4 413
-33 156 -112 355 -200 507 l-37 62 47 27 c69 40 203 82 334 105 134 23 286 62
350 91 25 11 66 21 92 23 28 2 65 13 90 28 51 29 80 37 90 22 4 -5 8 -41 8
-78z m2075 -31 c168 -44 339 -183 471 -383 85 -127 134 -282 171 -533 29 -204
27 -870 -4 -1444 -5 -105 -9 -121 -30 -147 -32 -38 -84 -52 -132 -36 -41 15
-216 148 -341 261 -284 256 -470 557 -558 906 -25 98 -27 120 -27 325 0 195 3
230 22 308 13 48 32 159 44 245 24 188 44 280 74 348 25 57 76 119 120 146 36
22 118 24 190 4z m-3422 -371 c118 -31 215 -116 300 -266 48 -83 48 -85 43
-150 -20 -228 -79 -444 -153 -552 -72 -107 -146 -161 -277 -202 -230 -73 -353
-82 -440 -31 -91 53 -215 217 -265 349 -32 87 -48 241 -33 327 31 183 144 314
357 416 137 65 299 115 395 123 9 0 42 -6 73 -14z m4882 -192 c369 -91 754
-322 1076 -645 337 -339 529 -669 639 -1102 71 -281 100 -518 100 -825 0 -294
-27 -493 -95 -698 -93 -279 -205 -394 -389 -396 -68 -1 -74 1 -155 48 -143 86
-278 195 -511 415 -333 315 -473 426 -648 515 -89 45 -181 129 -267 243 -157
209 -236 454 -236 727 0 145 16 244 82 501 66 262 82 380 82 609 0 138 -5 232
-17 304 -18 116 -15 155 21 222 28 52 65 84 121 104 42 14 56 13 197 -22z
m-1677 -1809 c64 -32 233 -190 301 -283 180 -242 252 -578 237 -1099 -9 -296
-47 -527 -141 -857 -78 -270 -222 -629 -283 -703 l-28 -33 -171 198 c-241 278
-314 379 -384 527 -60 129 -82 237 -77 377 l5 116 56 119 c93 200 157 446 191
741 8 73 25 289 36 480 16 264 25 354 37 371 17 27 106 72 144 72 14 0 48 -12
77 -26z m-13580 -1053 c108 -56 160 -176 261 -606 194 -830 225 -1052 219
-1550 l-3 -290 -53 -101 c-58 -113 -168 -255 -361 -469 -356 -395 -407 -472
-535 -820 -97 -260 -143 -351 -222 -435 -66 -69 -163 -130 -208 -130 -37 0
-122 57 -177 119 -67 74 -122 182 -188 374 -57 163 -91 244 -119 285 -36 51
-185 570 -247 857 -48 226 -60 340 -59 580 0 178 3 225 22 312 28 130 72 256
128 363 24 47 61 126 82 175 77 183 151 293 316 470 123 132 254 245 553 475
320 247 453 353 482 384 29 31 59 33 109 7z m14980 -146 c162 -38 237 -105
448 -400 51 -71 139 -184 196 -250 378 -439 592 -888 663 -1391 47 -330 22
-638 -75 -918 -93 -270 -166 -402 -295 -532 -87 -89 -143 -127 -237 -160 -36
-12 -44 -11 -151 27 l-112 41 -52 71 c-84 116 -228 262 -491 500 -377 342
-505 485 -597 674 -68 136 -88 222 -89 378 l-1 130 52 125 c134 326 240 695
379 1330 69 311 74 323 136 356 66 34 136 40 226 19z m-12468 -1372 c66 -75
133 -232 246 -574 58 -178 122 -353 140 -389 43 -82 131 -187 357 -426 249
-262 306 -347 327 -483 10 -60 9 -86 -5 -154 -22 -109 -58 -182 -150 -302
-139 -181 -327 -467 -484 -737 -60 -103 -65 -108 -123 -138 -47 -23 -75 -30
-119 -30 -52 0 -60 3 -85 33 -32 37 -521 774 -676 1017 -197 310 -225 366
-263 513 -108 425 -6 896 308 1426 52 88 74 114 135 163 127 101 191 129 286
125 67 -3 70 -4 106 -44z m10460 -263 c72 -36 176 -132 226 -208 47 -70 89
-177 117 -296 19 -83 21 -120 22 -426 0 -371 -4 -412 -69 -635 -71 -248 -196
-518 -418 -905 -333 -578 -344 -595 -423 -626 -59 -22 -132 -15 -183 18 -102
68 -502 640 -673 963 l-61 116 5 137 c5 168 27 254 101 407 94 194 165 282
531 655 143 146 289 301 324 345 109 136 209 300 240 395 11 34 15 36 104 62
50 14 93 27 95 27 1 1 29 -12 62 -29z m-11968 -1322 c105 -63 236 -192 316
-312 82 -122 137 -234 232 -466 137 -339 199 -447 539 -938 211 -304 270 -487
227 -701 -9 -45 -93 -306 -187 -579 -299 -872 -397 -1223 -450 -1605 -15 -111
-31 -133 -91 -131 -84 3 -117 27 -261 194 -256 298 -583 686 -683 810 -336
418 -622 841 -769 1135 -118 237 -154 394 -162 711 -3 124 -1 241 6 305 31
267 113 572 211 776 88 184 241 402 394 561 187 193 348 279 528 281 74 1 81
-1 150 -41z m13273 -113 c145 -41 411 -300 567 -552 187 -301 301 -642 382
-1140 33 -201 34 -213 20 -283 -55 -293 -130 -399 -281 -400 -55 0 -210 54
-265 92 -27 19 -105 131 -203 293 -67 110 -156 197 -218 214 -74 21 -135 10
-173 -32 -34 -37 -54 -90 -54 -144 0 -42 36 -154 119 -370 154 -400 184 -529
185 -793 1 -212 -9 -264 -74 -395 -65 -133 -284 -406 -410 -512 -36 -29 -98
-70 -138 -90 -60 -30 -86 -37 -150 -40 -51 -3 -85 0 -102 9 -45 24 -114 184
-225 523 -114 345 -140 404 -288 652 -109 183 -187 331 -218 413 -47 125 -64
325 -35 408 32 90 149 291 466 802 346 555 493 821 610 1100 58 138 80 166
184 221 91 49 184 56 301 24z m-10260 -649 c23 -14 68 -59 102 -103 34 -43 78
-94 98 -113 110 -105 332 -579 429 -917 97 -336 138 -607 152 -983 6 -180 -9
-588 -24 -660 l-8 -35 -80 0 c-67 1 -89 5 -146 32 -37 18 -89 46 -115 64 -67
46 -192 168 -286 279 -45 52 -118 134 -162 181 -312 332 -511 695 -586 1067
l-22 113 32 117 c79 283 135 440 211 592 71 142 165 283 244 368 29 31 35 33
75 28 24 -3 63 -17 86 -30z m2344 -37 c17 -56 106 -226 233 -446 157 -271 208
-406 208 -553 0 -69 -3 -81 -30 -118 -57 -80 -218 -177 -336 -203 -67 -15
-118 -2 -169 42 -43 38 -106 137 -133 211 -64 173 -52 513 28 748 41 120 160
360 179 360 4 0 13 -19 20 -41z m2576 -121 c94 -158 157 -357 194 -613 30
-211 29 -232 -19 -365 -44 -123 -66 -163 -109 -195 -22 -17 -39 -20 -121 -17
-160 5 -254 38 -342 120 -61 57 -74 81 -83 157 -14 130 32 257 184 499 48 78
102 166 119 196 35 63 92 225 92 263 0 14 3 33 7 42 5 15 8 15 25 -6 10 -13
34 -50 53 -81z m2396 -215 c58 -26 113 -82 127 -130 6 -21 20 -94 31 -163 11
-69 40 -244 65 -390 67 -392 78 -537 56 -720 -29 -234 -107 -387 -289 -571
-127 -127 -203 -182 -536 -383 -344 -208 -359 -216 -407 -216 -42 0 -117 31
-142 59 -22 24 -42 86 -56 175 -16 98 -5 185 56 436 54 221 62 298 51 455 -21
304 26 562 148 806 87 173 192 315 342 460 112 109 191 168 256 191 72 26 232
21 298 -9z m-3651 -811 c47 -16 185 -75 308 -131 519 -237 667 -281 934 -281
142 0 144 0 258 41 305 109 311 111 374 111 78 2 152 -35 202 -101 42 -54 42
-80 6 -186 -87 -256 -326 -507 -551 -580 -44 -14 -73 -16 -148 -11 -176 12
-305 49 -663 188 -441 172 -491 183 -825 183 -344 -1 -451 -24 -875 -186 -501
-191 -793 -277 -910 -266 -195 17 -433 277 -515 561 -14 50 -15 70 -5 130 25
158 50 187 170 194 110 6 188 -17 404 -117 105 -49 220 -99 256 -111 98 -33
189 -37 288 -12 151 39 245 94 495 294 386 308 547 365 797 280z m4645 -964
c49 -25 109 -85 184 -184 73 -97 84 -117 115 -215 122 -384 148 -830 71 -1204
-30 -142 -64 -244 -125 -372 -65 -137 -136 -238 -245 -348 -185 -186 -420
-338 -870 -561 -160 -79 -400 -208 -535 -289 -135 -80 -293 -170 -352 -201
-101 -51 -275 -124 -297 -124 -6 0 -17 13 -26 30 -12 24 -15 80 -15 332 0 623
-40 898 -163 1118 l-42 75 0 121 c0 119 0 121 39 198 46 95 129 182 240 254
43 29 185 105 317 171 254 127 352 186 427 254 26 24 72 60 102 82 111 77 209
164 415 365 337 329 416 398 560 485 57 34 63 36 120 29 33 -3 69 -11 80 -16z
m-9205 -23 c114 -31 269 -103 373 -174 126 -85 244 -189 513 -452 263 -257
412 -385 544 -466 41 -26 92 -62 113 -82 64 -60 155 -188 202 -284 63 -130 85
-230 92 -417 7 -190 -5 -303 -58 -550 -127 -586 -143 -681 -158 -910 -7 -116
-10 -129 -40 -183 -19 -32 -47 -72 -64 -89 -27 -26 -36 -30 -72 -26 -52 6
-214 75 -330 140 -49 28 -178 108 -285 178 -228 148 -331 207 -570 323 -546
267 -931 644 -1053 1033 -44 137 -50 227 -44 574 11 554 45 776 156 1005 78
161 178 278 322 375 l64 42 100 -5 c61 -4 137 -16 195 -32z m2722 -1883 c64
-28 207 -168 330 -322 55 -68 193 -255 307 -415 155 -217 229 -332 295 -455
49 -91 149 -276 222 -411 87 -159 134 -256 134 -276 0 -55 -29 -129 -66 -167
-92 -95 -157 -110 -469 -111 -196 0 -218 2 -328 28 -237 57 -389 120 -560 233
-77 52 -110 81 -148 133 -257 350 -328 969 -167 1471 67 210 114 274 228 311
44 15 171 4 222 -19z m3568 -252 c66 -34 113 -73 170 -145 47 -59 53 -72 72
-167 29 -138 31 -419 4 -553 -66 -337 -248 -657 -480 -843 -69 -55 -86 -64
-218 -105 -360 -114 -447 -132 -658 -132 -154 0 -170 2 -243 28 -95 33 -171
81 -250 156 -74 70 -87 96 -87 168 1 105 22 161 110 299 211 329 409 583 620
795 247 249 440 385 705 496 69 29 89 33 145 30 42 -3 81 -12 110 -27z"/>
<path d="M8654 22350 c-154 -17 -249 -121 -304 -335 -42 -166 -36 -328 26
-685 27 -154 43 -219 64 -260 15 -30 44 -95 65 -145 117 -286 214 -399 377
-442 l65 -17 169 140 c371 306 455 388 551 541 67 109 96 198 101 319 7 178
-27 261 -176 429 -148 166 -257 247 -452 336 -243 109 -346 134 -486 119z"/>
<path d="M10330 19155 c0 -3 15 -88 34 -188 19 -100 62 -362 96 -582 68 -442
103 -626 155 -802 137 -471 390 -816 735 -1002 157 -84 342 -143 750 -237 560
-129 795 -221 946 -369 106 -104 119 -144 118 -350 -1 -134 -5 -180 -27 -284
-15 -68 -27 -138 -27 -155 0 -67 95 -203 200 -286 l39 -31 12 22 c16 31 -2
106 -58 244 -25 61 -45 119 -45 131 0 11 20 50 45 86 92 135 101 240 48 557
-53 314 -41 478 38 540 53 42 107 125 127 196 24 85 14 227 -32 455 -35 169
-38 198 -37 340 1 85 7 256 14 380 6 126 9 301 6 398 -7 196 -9 201 -98 272
-101 79 -234 106 -479 95 -263 -11 -360 10 -520 114 -91 60 -303 162 -445 216
-374 141 -742 205 -1354 235 -237 12 -241 12 -241 5z m575 -368 c61 -20 151
-47 200 -61 117 -32 199 -63 226 -85 l22 -18 -51 -47 c-70 -66 -120 -144 -160
-251 l-34 -90 5 -170 c13 -418 143 -675 427 -842 144 -84 180 -101 252 -118
75 -17 263 -20 374 -4 245 34 489 157 645 326 105 113 200 271 235 390 18 61
20 62 107 15 59 -32 98 -75 137 -152 43 -84 57 -156 80 -392 14 -149 27 -229
45 -285 15 -49 25 -102 25 -142 0 -61 -1 -63 -22 -57 -13 4 -86 9 -163 13
-166 7 -376 -7 -715 -48 -699 -85 -1021 -29 -1319 230 -214 186 -349 544 -406
1081 -13 128 -45 629 -45 718 0 23 4 32 13 29 6 -3 62 -21 122 -40z m1195
-307 c153 -43 284 -124 412 -253 74 -73 95 -103 132 -180 70 -147 83 -235 45
-309 -31 -62 -173 -198 -272 -263 -49 -32 -125 -72 -170 -91 -73 -30 -92 -34
-177 -34 -159 0 -243 32 -390 147 -187 146 -266 305 -277 558 -5 107 -3 126
17 178 46 121 182 226 340 262 86 20 241 13 340 -15z"/>
<path d="M11917 18206 c-73 -27 -114 -62 -144 -123 -25 -52 -28 -68 -27 -158
1 -128 21 -181 85 -218 76 -44 224 -61 312 -36 53 14 110 69 137 132 18 41 24
76 28 165 l5 113 -46 43 c-27 27 -68 53 -104 66 -74 28 -194 36 -246 16z"/>
<path d="M17594 18016 c-80 -18 -157 -52 -183 -80 -25 -26 -41 -108 -41 -206
0 -109 9 -139 54 -185 57 -59 136 -87 243 -87 185 0 264 88 267 297 1 107 -9
149 -46 191 -63 72 -171 98 -294 70z"/>
<path d="M5725 7209 c-143 -66 -275 -127 -293 -134 l-34 -15 102 -115 102
-115 22 28 c101 122 374 472 368 472 -4 -1 -124 -55 -267 -121z"/>
<path d="M6952 6087 l-174 -174 89 -82 c90 -85 279 -241 366 -301 l47 -34 38
35 c20 20 67 59 104 88 85 66 135 124 150 174 l11 38 -74 75 c-114 116 -367
354 -376 354 -5 0 -86 -78 -181 -173z"/>
<path d="M8277 4775 c-119 -97 -219 -180 -222 -184 -7 -12 265 -205 275 -195
9 11 171 546 166 551 -2 2 -101 -75 -219 -172z"/>
<path d="M21095 5057 c-164 -101 -394 -249 -417 -269 l-26 -23 99 -151 100
-152 190 112 c104 61 225 137 268 168 l79 57 -54 102 c-93 179 -147 213 -239
156z"/>
<path d="M12365 3598 c-3 -13 -27 -120 -53 -239 l-48 -217 173 -46 c196 -53
314 -76 390 -76 l52 0 30 95 c33 100 61 251 61 322 l0 42 -82 25 c-115 35
-473 116 -513 116 -3 0 -7 -10 -10 -22z"/>
<path d="M16260 3395 c-63 -13 -127 -24 -142 -24 -33 -1 -106 -70 -133 -126
-30 -63 -30 -180 -1 -435 14 -124 30 -279 36 -345 12 -137 39 -263 82 -382
l30 -83 56 -17 c43 -14 91 -18 197 -18 131 0 146 2 232 32 51 18 119 46 151
62 l59 30 6 108 c9 138 -8 430 -33 598 -44 286 -132 523 -216 582 -72 50 -148
54 -324 18z"/>
<path d="M14134 3315 c-3 -6 -3 -105 -2 -220 l3 -210 105 3 c224 7 410 22 445
36 46 19 54 43 61 179 7 135 0 158 -58 188 -45 24 -25 23 -427 32 -81 2 -125
-1 -127 -8z"/>
</g>
</svg>
