<svg version="1.2" xmlns="http://www.w3.org/2000/svg" viewBox="0 0 139 82" width="137" height="81">
	<title>rohlogo-svg</title>
	<style>
		.s0 { fill: #cc2229 } 
		.s1 { fill: #ffffff } 
	</style>
	<g id="Untitled">
		<g id="Layer">
			<path id="Layer" fill-rule="evenodd" class="s0" d="m25.5 57.9h-0.5v12.4h-16.6l-2.1-2v-45.5h33.5l2.1 2.1 5.5 5.6v21.9l-4 4 4.4 19.3h-16.8l-2-2.1zm18.3-28.8l-4.6-4.7h-31.3v42.3h13.5v-12.4h4.9l3.9 17.8h13.6l-4.1-18.3 4.1-4.1zm46.2 1.4v34.4l-5.5 5.5h-28l-2-2-5.6-5.6v-34.3l5.6-5.6h27.9l5.6 5.6zm-39.6-1.4v33l4.6 4.7h26.7l4.7-4.7v-33l-4.7-4.7h-26.7zm63.5 11.1v-17.3h16.6l2.1 2.1v50.8h-16.6l-2.1-2.1v-17.5h-3.6v14.2h-16.7l-2.1-2.1v-45.4h16.7l2.1 2.1v15.2zm-92.6-4.8h8.8v8.1h-8.8zm3.7 6.6h3.5v-2.9h-3.5zm90.4-17.5v17.2h-8.8v-17.2h-13.6v42.3h13.6v-14.2h8.8v19.6h13.5v-47.7zm-51.5 10.9h8.8v20.6h-8.8zm3.7 19h3.6v-15.4h-3.6z"/>
			<path id="Layer" fill-rule="evenodd" class="s1" d="m18.7 6.3h4.1v12.7h-4.1zm28.7 5v6.3l-1.4 1.4h-8l-1.4-1.4v-9.9l1.4-1.4h8.8v3.3h-6.1v6.2h2.7v-1.7h-1.3v-2.8zm12-2.3v7.3l-1 1h-5.8l-1.1-1v-7.3l1.1-1h5.8zm-4.9 5.9h1.9v-4.5h-1.9zm9.1-3.2h3.3v2.4h-3.3v3.2h-3v-9.4h7.9v2.4h-4.9zm32.1-4.1v10l-1.4 1.4h-8l-1.4-1.4v-10l1.4-1.3h8zm-6.7 8h2.6v-6.2h-2.6zm31.4-8v9.9l-1.4 1.4h-8l-1.4-1.4v-9.9l1.4-1.4h8zm-6.7 8h2.6v-6.2h-2.6zm19-1.8l-1.2 1.2 1.2 3.9h-4l-1.2-3.7h-1.5v3.7h-4.1v-12.7h9.4l1.4 1.4zm-6.7-1.9h2.7v-2.4h-2.7zm-108.8 1.9l-1.3 1.2 1.3 3.9h-4.1l-1.2-3.8h-1.4v3.8h-4.1v-12.8h9.4l1.4 1.4zm-6.7-1.9h2.6v-2.4h-2.6zm72.9-5.8v12.8h-4v-4.3h-2.7v4.3h-4.1v-12.8h4.1v5.2h2.7v-5.2zm-52.4 0h4.1v12.8h-4.1l-2.6-5.4v5.4h-4.1v-12.8h4.1l2.6 5.4zm72.9 0h4.1v12.8h-4.1l-2.6-5.4v5.4h-4.1v-12.8h4.1l2.6 5.4z"/>
		</g>
	</g>
</svg>