<svg version="1.1" xmlns="http://www.w3.org/2000/svg" style="display: block;" viewBox="0 0 2048 2048" width="600" height="600" preserveAspectRatio="none">
<path transform="translate(0,0)" fill="rgb(232,29,32)" d="M 1434.66 380.291 L 1436.91 379.976 C 1457.01 387.111 1509.3 464.7 1528.44 483.047 C 1545.89 499.79 1560.06 510.355 1579.24 525.248 C 1588.39 525.456 1600.73 525.569 1609.99 524.922 C 1620.49 524.189 1635.92 518.398 1646.9 519.059 C 1649.59 519.222 1650.44 520.61 1651.69 522.292 C 1652.92 530.874 1643.36 545.436 1640.47 555.346 C 1633.46 576.032 1644.21 578.148 1659.96 586.697 C 1665.93 589.933 1682.17 601.106 1686.18 607.371 C 1686.92 608.529 1686.05 609.365 1685.41 610.642 C 1676.99 615.907 1662.87 613.854 1652.75 616.43 C 1634.2 621.15 1619.67 630.906 1602.76 639.417 C 1596.96 642.337 1585.92 643.985 1583.23 648.59 C 1584.69 652.373 1601.72 664.187 1606.3 667.842 C 1683.33 729.391 1748.87 810.941 1779.19 905.897 C 1812.43 1008.44 1802.79 1120.07 1752.48 1215.4 C 1669.81 1374.9 1502.14 1476.52 1335.43 1528.94 C 1263.73 1550.9 1189.82 1564.82 1115.05 1570.45 C 1100.32 1571.62 1085.56 1573.31 1070.79 1573.81 C 893.135 1579.81 719.632 1547.65 561.08 1465.18 C 547.835 1458.38 518.01 1441.22 506.045 1432.52 C 491.69 1452.62 466.658 1470.24 452.213 1490.85 C 438.76 1510.04 432.767 1537.69 416.334 1554.84 C 408.731 1562.78 389.824 1567.99 378.119 1573.72 C 371.597 1567.83 368.518 1564.38 360.733 1560.14 C 347.21 1560.33 343.503 1560.96 331.696 1554.82 C 321.506 1532 345.249 1498.48 352.129 1473.22 C 329.296 1446.15 345.669 1444.03 352.772 1416.59 L 342.497 1409.33 C 336.829 1398.13 339.41 1394.02 335.987 1385.34 C 331.421 1376.02 324.454 1367.54 322.434 1357.11 C 316.579 1326.89 365.575 1339.72 375.21 1326.61 C 374.683 1321.65 346.683 1291.17 340.85 1283.22 C 319.558 1254.59 301.455 1223.71 286.863 1191.15 C 243.452 1092.97 241.077 981.516 280.267 881.58 C 383.669 618.939 718.412 489.972 980.492 484.263 C 998.45 483.872 1016.39 481.162 1034.53 482.022 C 1058.03 483.136 1081.31 485.193 1104.88 485.404 C 1197.3 492.468 1295.3 509.826 1381.6 544.059 C 1390.86 524.363 1402.73 510.174 1407.51 488.049 C 1410 476.488 1411.74 466.664 1412.76 455.066 C 1413.98 441.318 1413.67 396.729 1418.32 386.484 C 1423.39 381.528 1427.67 381.517 1434.66 380.291 z M 1520.53 776.977 C 1528.56 787.36 1537.4 804.185 1543.46 816.098 C 1575.42 878.658 1592.89 947.608 1594.57 1017.84 C 1620.95 1017.03 1649.93 1017.6 1676.5 1017.63 C 1710.13 1017.76 1743.76 1017.65 1777.39 1017.3 C 1776.47 1005.97 1775.91 994.097 1774.53 983.05 C 1761.51 878.221 1704.56 786.324 1628.64 714.928 C 1626.68 713.082 1626.02 713.006 1623.52 712.598 C 1595.81 733.512 1551.77 762.023 1520.53 776.977 z M 273.123 1017.69 L 378.5 1017.64 C 398.236 1017.6 439.236 1016.3 457.312 1017.88 C 454.055 942.589 487.827 840.156 529.602 777.468 C 498.599 759.877 468.148 742.142 439.143 721.354 C 435.988 719.093 428.38 713.041 425.148 712.602 C 417.798 719.89 410.424 727.417 403.268 734.624 C 333.223 805.164 282.582 898.501 275.197 998.76 C 274.742 1004.94 273.664 1011.37 273.123 1017.69 z M 1123.19 588.49 C 1114.06 596.946 1107.01 602.276 1097.07 609.748 C 1120.23 629.258 1144.35 671.337 1155.35 699.749 C 1170.3 694.302 1187.57 689.825 1203.26 684.485 C 1214.99 680.206 1233.62 673.784 1244.19 667.692 C 1215.77 638.405 1182.28 614.504 1145.34 597.145 C 1141.26 595.186 1127.26 588.968 1123.19 588.49 z M 859.332 1018.16 C 873.518 1016.85 895.265 1017.54 909.977 1017.55 L 1005.25 1017.56 L 1015.15 1018.06 C 1013.15 1003.71 1013.79 984.256 1013.82 969.41 L 1014.15 898.818 C 959.34 897.859 923.483 895.485 868.843 887.411 C 862.905 915.155 863.156 951.245 860.5 979.847 C 859.373 991.975 861.171 1006.14 859.332 1018.16 z M 806.449 667.96 C 819.971 673.764 836.754 680.885 850.751 685.457 C 866.564 690.741 879.455 694.456 895.38 699.02 C 911.05 666.516 926.863 634.672 953.296 609.079 C 949.304 606.131 945.156 602.797 941.148 599.927 C 936.922 596.9 930.365 589.014 925.602 589.034 C 890.916 600.197 829.873 639.907 806.449 667.96 z M 1235.8 898.291 C 1235.51 898.082 1235.22 897.872 1234.93 897.663 C 1227.3 893.715 1222.72 881.457 1213.5 883.413 C 1210.32 883.776 1207.1 883.761 1204.47 885.239 C 1204.32 897.444 1206.72 909.914 1207.75 922.157 C 1208.88 935.602 1209.08 951.36 1211.97 964.442 C 1213.89 959.93 1215.94 954.514 1218.47 950.407 C 1228.29 931.992 1231.1 918.357 1235.8 898.291 z M 1244.74 1387.48 C 1217.79 1376.69 1183.55 1362.93 1155.03 1357 C 1140.89 1388.65 1122.7 1422.36 1097.73 1446.75 C 1107.08 1453.48 1116.02 1459.96 1124.36 1467.98 C 1130.02 1463.94 1155.27 1453.51 1165.44 1447.82 C 1192.07 1432.68 1224.07 1410.12 1244.74 1387.48 z M 748.309 1353.68 C 731.137 1369.88 731.945 1375.28 722.384 1394.52 C 714.677 1399.5 698.601 1408.1 694.1 1414.93 L 694.033 1417.25 C 696.729 1420.02 697.414 1421.08 701.03 1422.6 C 703.612 1422.12 702.762 1422.53 704.895 1421.18 C 724 1407.84 742.508 1397.12 762.746 1385.53 C 762.067 1373.61 759.376 1360.77 748.309 1353.68 z M 722.337 619.941 C 732.774 628.343 742.708 634.335 754.333 641.028 C 764.787 647.096 775.303 653.058 785.878 658.913 C 826.272 615.91 859.842 594.626 912.835 571.446 C 910.528 566.764 904.843 553.103 901.133 551.428 C 863.011 557.113 809.552 577.309 774.141 593.051 C 757.334 600.522 738.855 611.404 722.337 619.941 z M 1403.06 1018.02 C 1416.58 1017.2 1432.98 1017.58 1446.75 1017.6 L 1529.07 1017.56 C 1542.85 1017.56 1560.4 1017.05 1573.95 1017.84 C 1573.14 1008.97 1572.75 1000.19 1571.94 991.32 C 1565.55 921.493 1542.14 847.395 1503.31 788.659 L 1501.19 787.813 C 1470.37 803.291 1438.81 817.232 1406.61 829.586 C 1396.61 833.375 1382.93 838.787 1372.76 841.321 C 1389.63 888.394 1397.72 937.953 1402.19 987.651 C 1403.04 997.121 1402.63 1008.22 1403.06 1018.02 z M 1347.8 1448.92 C 1335.95 1455.2 1325.01 1462.25 1312.85 1468.59 C 1278.67 1486.64 1242.8 1501.3 1205.76 1512.38 C 1197.18 1515 1160.8 1522.72 1157.47 1526.96 C 1157.6 1553.92 1178.32 1541.22 1195.17 1539.46 C 1236.06 1535.86 1355.14 1503.77 1391.78 1485.92 C 1383.19 1477.46 1357.8 1454.7 1347.8 1448.92 z M 659.159 1486.42 C 711.831 1506.79 766.197 1522.46 821.627 1533.26 C 830.867 1535.08 849.571 1539.04 858.115 1539.24 C 871.595 1542.35 877.05 1542.82 890.563 1544.17 C 891.653 1537.74 892.542 1531.11 894.462 1524.91 C 841.168 1512.81 794.386 1497.25 745.369 1472.6 C 730.66 1465.2 716.54 1455.56 702.815 1448.75 C 691.765 1456.52 667.835 1476.64 659.159 1486.42 z M 1033.25 1553.03 C 1067.16 1552.86 1107.12 1551.55 1140.64 1546.23 C 1138.47 1538.7 1136.29 1531.12 1133.74 1523.71 C 1118.16 1478.45 1069.88 1444.81 1021.65 1447.4 C 988.278 1450.32 960.452 1461.51 938.222 1487.63 C 920.404 1508.56 918.156 1522.54 910.726 1546.6 C 950.624 1552.14 993.046 1553.04 1033.25 1553.03 z M 1191.25 1494.48 C 1239.76 1482.22 1285.25 1458.91 1328.84 1435.35 C 1318.01 1428.09 1275.58 1400.12 1264.73 1398.6 C 1229.59 1432.77 1195.22 1460.16 1150.06 1479.04 C 1146.11 1480.69 1140.52 1482.47 1139.83 1486.73 C 1141.91 1491.32 1146.8 1501.88 1150.74 1504.45 C 1157.33 1504.15 1184.48 1496.76 1191.25 1494.48 z M 578.64 1450.12 C 592.025 1457.7 622.46 1471.53 636.875 1477.57 C 649.579 1464.73 673.097 1446.38 681.976 1436.44 L 681.679 1434.72 C 658.342 1431.59 657.638 1406.06 627.838 1405.4 C 599.726 1409.32 591.005 1427.55 578.64 1450.12 z M 685.365 593.002 C 691.216 597.916 697.126 603.168 703.601 607.183 C 757.188 572.6 830.806 543.412 893.61 531.462 C 892.945 526.192 892.325 516.999 890.118 512.713 C 888.35 512.265 888.364 512.082 886.609 512.155 C 865.119 516.401 843.655 518.938 821.889 523.26 C 776.499 532.266 731.794 544.431 688.099 559.665 C 682.213 561.704 664.757 566.84 661.248 571.077 C 664.155 575.782 680.455 589.599 685.365 593.002 z M 477.325 1018.18 C 490.839 1016.88 510.498 1017.53 524.709 1017.54 L 609.25 1017.64 C 619.651 1017.58 639.548 1016.99 649.117 1018.1 C 647.01 976.338 655.167 928.444 664.468 887.872 C 667.518 874.566 675.015 852.901 676.858 840.629 C 656.077 837.413 596.561 809.503 575.124 800.347 C 569.632 798.002 551.473 788.118 547.853 787.206 C 500.268 871.154 483.861 921.062 477.325 1018.18 z M 721.552 1435.28 C 758.32 1456.79 797.251 1474.37 837.701 1487.72 C 848.893 1491.47 877.192 1498.14 884.7 1501.56 C 892.196 1502.12 894.052 1502.88 901.117 1505.25 C 905.021 1498.59 909.424 1491.43 912.775 1484.56 C 884.132 1472.34 842.717 1450.5 819.85 1428.86 C 814.657 1433.15 807.846 1439 802.285 1442.47 C 792.544 1418.16 784.966 1423.07 766.316 1407.89 C 750.918 1415.81 735.935 1425.64 721.552 1435.28 z M 370.474 1419.38 C 367.683 1425.03 358.843 1441.13 367.191 1444.42 L 371.564 1443.03 C 379.589 1435.46 386.907 1421.98 370.474 1419.38 z M 1089.73 710.657 C 1103.1 709.616 1121.55 707.168 1134.32 703.127 C 1123.48 681.73 1097.24 631.683 1077.53 619.259 C 1059.67 625.253 1054.66 626.555 1035.99 628.844 L 1036.09 714.284 C 1050.41 713.761 1076.84 713.781 1089.73 710.657 z M 1035.91 898.65 L 1036.05 1017.75 L 1048.75 1017.64 L 1124.59 1017.63 C 1138.7 1017.63 1156.46 1017.18 1170.25 1018.34 C 1175.21 1004.71 1181.4 996.077 1190.96 985.176 C 1190.35 970.836 1185.51 896.156 1181.01 888.398 C 1178.54 887.792 1179.69 887.751 1177.56 888.271 C 1162.56 891.279 1143.71 892.646 1128.22 894.225 C 1097.7 897.337 1066.6 899.304 1035.91 898.65 z M 962.214 710.696 C 977.965 713.975 998.04 713.799 1014.46 714.211 C 1012.99 688.071 1013.9 654.874 1014.01 628.204 C 993.952 627.935 986.524 621.421 972.604 619.497 C 954.857 636.844 942.435 655.113 930.54 676.872 C 926.334 684.566 921.314 695.998 916.872 702.968 C 927.282 706.85 940.524 707.776 951.547 709.723 C 954.889 710.314 959.273 709.966 962.214 710.696 z M 1541.61 741.319 C 1558.56 731.15 1593.09 710.266 1608.38 697.833 C 1601.1 691.505 1556.52 654.489 1550.35 653.933 C 1534.23 660.188 1521.77 663.034 1515 680.761 C 1509.65 694.777 1497.61 730.479 1498.79 744.318 C 1502.73 750.563 1505.61 754.032 1509.88 759.816 L 1541.61 741.319 z M 1067.78 1433.17 C 1072.33 1434.58 1073.05 1434.83 1077.15 1437.16 C 1102.85 1411.98 1119.28 1384.1 1134.25 1351.6 C 1125.07 1350.07 1104.68 1347.76 1097.17 1344.85 C 1092.62 1355.06 1074.05 1358.96 1062.17 1355.67 C 1058.57 1354.67 1042.1 1341.72 1036.88 1351.36 C 1034.88 1375.71 1035.96 1402.02 1036.07 1426.73 C 1046.51 1428.11 1057.92 1429.48 1067.78 1433.17 z M 495.608 1355.65 C 495.408 1364.77 494.313 1373.3 492.781 1382.29 C 500.875 1404.32 510.188 1410.65 529.434 1422.38 C 537.811 1427.48 544.071 1431.59 553.121 1436.16 C 553.515 1428.67 553.422 1424.26 552.99 1416.75 C 552.817 1409.62 552.145 1407.74 548.991 1401.35 L 547.858 1400.64 C 540.543 1396.12 525.735 1392.69 529.502 1381.25 C 533.745 1377.06 537.778 1375.09 543.202 1372.78 C 561.062 1365.19 567.21 1360.28 577.534 1344.21 C 571.302 1336.03 564.997 1327.9 558.62 1319.82 C 552.141 1324.52 537.162 1336.21 528.485 1335.78 C 521.329 1335.43 509.299 1321.21 502.991 1318.83 C 495.763 1321.97 462.359 1341.72 460.071 1348.36 C 465.305 1353.03 487.682 1354.64 495.608 1355.65 z M 1269.82 1360.34 C 1305.33 1315.49 1325.17 1280.1 1345.98 1226.77 C 1320.71 1220.76 1294.96 1211.64 1269.46 1205.91 C 1262.76 1204.41 1250.39 1200.99 1244.04 1200.68 C 1230.02 1217.27 1221.02 1234.33 1224.68 1255.21 C 1231.02 1291.45 1212.57 1288.06 1193.87 1309.58 C 1187.62 1316.77 1191.03 1328.25 1180.41 1340.71 L 1180.82 1341.8 C 1211.38 1350.93 1231.56 1359.1 1260.6 1371.48 L 1269.82 1360.34 z M 1366.58 1234.26 C 1363.9 1238.02 1351.83 1268.74 1348.21 1276.24 C 1332.3 1309.13 1304.62 1355.47 1279.87 1381.61 C 1306.06 1394.42 1325.08 1406.84 1348.9 1423.25 L 1379.97 1400.79 C 1420.18 1370.18 1461.88 1328.64 1490.2 1286.53 C 1454.81 1268.9 1419.46 1252.77 1382.12 1239.58 C 1376.97 1237.76 1371.86 1235.68 1366.58 1234.26 z M 1329.01 1018.05 C 1332.26 1017.81 1336.05 1017.4 1339.25 1017.5 C 1353.24 1017.48 1368.59 1017.13 1382.47 1017.49 C 1381.52 1006.41 1377.96 943.707 1373.56 937.786 C 1366.59 953.397 1361.03 965.034 1352.38 979.73 C 1345.62 991.204 1334.63 1006.72 1329.01 1018.05 z M 1777.18 1039.17 C 1717.53 1039.6 1653.86 1040.68 1594.53 1038.77 C 1591.77 1128.47 1567.65 1202.8 1521.15 1279.09 C 1542.31 1287.8 1574.66 1310.08 1594.71 1322.47 C 1603.76 1328.06 1616.99 1339.27 1626.15 1343.36 C 1637.89 1333.56 1654.57 1315.92 1664.73 1304.14 C 1722.69 1238.93 1761.72 1163.69 1774.01 1077.14 C 1775.95 1063.48 1775.67 1052.08 1777.18 1039.17 z M 1256.33 632.674 C 1259.89 628.12 1261.01 626.856 1265.88 623.616 C 1278.36 616.912 1288.86 613.447 1300.05 604.67 C 1265.04 586.447 1228.25 571.859 1190.27 561.134 C 1177.09 557.322 1160.95 554.249 1148.84 550.485 C 1145.44 558.064 1142 564.575 1138.09 571.922 C 1173.27 583.435 1229.79 620.151 1254.51 648.1 C 1254.99 643.24 1255.39 637.388 1256.33 632.674 z M 790.77 685.034 C 762.805 708.632 716.619 793.248 705.236 828.831 C 740.627 838.453 775.346 849.884 811.863 856.16 C 823.858 857.661 838.114 861.918 850.523 863.873 C 852.881 853.009 854.326 841.655 856.536 830.497 C 861.66 803.346 868.407 776.527 876.74 750.184 C 879.595 741.245 883.974 727.508 887.957 719.236 C 868.349 713.162 850.181 708.286 830.763 701.209 C 822.194 698.086 797.436 686.522 790.77 685.034 z M 846.555 1193.38 C 818.471 1196.59 789.52 1204.65 761.553 1210.12 C 769.635 1213.67 780.026 1218.02 788.599 1220.11 C 814.075 1224.53 831.215 1235.46 857.62 1224.8 C 853.732 1213.91 853.167 1198.87 850.636 1193.83 C 848.276 1192.98 849.149 1193.09 846.555 1193.38 z M 738.093 1340.4 C 733.401 1329.88 726.281 1318.62 720.077 1308.84 C 717.951 1308.07 718.83 1308.06 717.512 1308.22 C 703.843 1311.64 674.442 1313.21 659.433 1313.54 C 644.395 1313.87 620.329 1308.3 603.649 1309.36 C 596.162 1309.83 583.78 1310.97 576.959 1310.21 C 587.931 1322.5 596.101 1332.65 608.137 1344.12 C 618.794 1353.28 622.487 1352.22 636.671 1352.64 C 645.1 1344.15 653.737 1332.48 666.328 1332.13 C 687.407 1331.53 720.106 1329.22 738.093 1340.4 z M 791.055 1327.51 C 780.801 1323.69 758.687 1314.06 749.591 1313.88 C 752.139 1324.09 754.626 1323.74 764.339 1326.23 C 766.473 1341.54 767.443 1349.05 783.177 1336.53 C 785.565 1333.89 789.035 1330.29 791.055 1327.51 z M 273.808 1039.06 C 272.455 1047.21 275.788 1058.74 276.444 1067.06 C 281.9 1136.24 311.245 1204.64 351.534 1260.87 C 363.618 1277.84 376.748 1294.04 390.849 1309.38 C 414.627 1315.01 414.798 1316.14 423.548 1335.86 C 427.941 1345.75 453.558 1324.53 460.765 1319.49 C 455.712 1312.74 445.402 1302 446.326 1294.26 C 446.548 1292.25 446.991 1290.27 447.649 1288.36 C 451.635 1280.59 454.934 1275.75 463.907 1273.4 C 480.885 1268.94 500.696 1264.92 516.082 1255.88 L 515.719 1255.02 C 510.897 1243.83 503.555 1232.63 498.424 1221.06 C 474.147 1166.31 456.243 1099.16 456.78 1039.02 C 395.79 1039.53 334.798 1039.54 273.808 1039.06 z M 1326.25 795.107 C 1329.63 794.018 1328.73 794.971 1330.65 792.794 C 1328.59 784.814 1318.95 784.737 1312.26 785.181 C 1309.49 786.94 1308.06 787.518 1306.32 790.322 C 1307.02 797.237 1320.81 795.315 1326.25 795.107 z M 916.792 1351 C 932.54 1384.01 946.156 1411.2 973.6 1436.9 C 982.493 1432.77 996.095 1429.35 1005.8 1428.17 C 1009.2 1427.82 1011.8 1428.03 1014.35 1425.92 C 1013.8 1402.92 1013.75 1379.91 1014.2 1356.91 C 989.871 1355.32 966.239 1355.69 941.94 1354.9 C 931.54 1354.56 928.97 1350.33 916.792 1351 z M 837.621 1417.8 C 859.376 1430.61 875.826 1444.04 899.999 1455.86 C 910.061 1460.42 916.907 1463.31 927.451 1467 C 935.673 1460.18 944.591 1453.17 952.593 1446.22 C 940.623 1433.56 929.843 1419.83 920.392 1405.19 C 916.749 1399.49 907.056 1379.23 904.022 1377.09 C 899.182 1379.14 891.464 1382.61 886.384 1383.67 C 864.323 1388.25 854.788 1404.35 837.621 1417.8 z M 1146.36 1315.3 C 1144.37 1318.94 1141.34 1326.14 1137 1326.99 C 1127.67 1328.84 1124.04 1312.79 1114.6 1313.42 C 1109.94 1313.73 1103.16 1318.89 1102.27 1323.55 C 1103.78 1325.77 1137.55 1331.45 1141.09 1330.97 C 1144.44 1327.12 1146.76 1320.36 1147.21 1315.37 C 1149.95 1310.49 1159.18 1287.65 1156.81 1282.47 L 1155.24 1282.68 C 1151.09 1287.58 1148.17 1307.58 1146.36 1315.3 z M 1452 1459.93 C 1493.36 1440.28 1532.78 1416.77 1569.73 1389.71 C 1580.24 1382.14 1599.99 1367.21 1608.92 1358.46 C 1586.38 1342.13 1563.04 1326.93 1538.99 1312.91 C 1531.49 1308.48 1517.15 1299.87 1509.39 1296.49 C 1473.82 1347.62 1419.45 1404.45 1365.79 1436.54 C 1377.81 1443.86 1405.5 1467.29 1414.18 1477.9 C 1426.73 1471.36 1439.79 1466.17 1452 1459.93 z M 913.889 1310.51 C 908.907 1317.27 910.909 1325.45 917.077 1330.7 C 919.364 1330.8 919.58 1330.88 921.838 1330.63 C 928.782 1322.11 923.31 1313.41 913.889 1310.51 z M 868.545 1168.16 C 876.299 1167.22 908.744 1164.09 912.583 1161.28 C 940.166 1141.13 935.325 1080.89 975.369 1074.47 C 980.679 1073.62 994.094 1073.84 999.759 1075.52 C 1005 1082.11 1001.65 1087.44 996.044 1092.32 C 989.966 1096.58 985.168 1099.2 978.636 1102.79 C 979.373 1108.08 979.727 1110.98 979.847 1116.3 C 980.053 1125.48 975.461 1147.62 981.317 1154.39 C 985.729 1154.31 1006.98 1143.55 1014.79 1141.03 C 1013.81 1131.18 1013.76 1121.31 1013.85 1111.42 C 1014.05 1087.25 1013.79 1063.07 1014.22 1038.9 C 964.739 1039.47 909.009 1040.15 859.813 1038.54 C 860.141 1062.69 860.095 1086.68 862.719 1110.74 C 864.769 1129.55 865.195 1149.64 868.545 1168.16 z M 838.892 1039.04 L 668.968 1039.09 C 670.048 1103.26 682.266 1147.47 697.644 1207.82 C 714.827 1200.27 798.234 1179.46 817.761 1177.07 C 827.854 1174.72 839.06 1173.49 848.077 1171.19 C 840.587 1135.96 837.823 1075.78 838.892 1039.04 z M 1372.52 563.374 C 1355.94 556.418 1338.01 551.158 1320.77 546.062 C 1277 532.747 1232.31 522.699 1187.06 516.001 C 1180.79 515.028 1166.23 512.078 1160.9 511.564 C 1159.62 518.276 1158.16 525.449 1157.15 532.179 C 1186.99 533.999 1245.72 556.376 1274.23 568.593 C 1280.08 571.098 1302.25 582.118 1305.37 582.907 C 1306.88 581.127 1306.65 582.046 1306.75 580.424 C 1307.26 571.477 1316.91 561.222 1323.6 555.972 C 1325.27 557.06 1331.12 560.811 1331.86 562.252 C 1336.99 572.167 1331.4 577.122 1343.02 580.366 C 1358.62 577.345 1361.93 575.703 1372.52 563.374 z M 669.03 1017.8 C 718.573 1017.13 769.206 1017.62 818.831 1017.62 C 825.299 1017.54 832.801 1017.28 839.17 1017.55 C 838.19 967.907 841.95 933.49 847.075 884.859 C 814.162 879.022 781.503 871.833 749.181 863.31 C 733.845 859.255 711.417 851.73 697.354 848.567 C 694.011 862.839 689.164 876.864 685.733 891.169 C 676.973 927.703 668.903 979.96 669.03 1017.8 z M 1145.03 1038.53 C 1108.01 1039.42 1072.69 1038.69 1035.99 1038.73 C 1036.02 1050.02 1034.07 1120.05 1037.5 1123.53 L 1040.24 1122.69 C 1051.74 1118.47 1069.22 1111.63 1078.74 1104.77 C 1091.15 1095.81 1144.77 1050.66 1150.74 1041.04 L 1150.75 1039.41 C 1148.15 1038.19 1147.98 1038.46 1145.03 1038.53 z M 1256.04 686.058 C 1222.26 700.889 1198.87 709.397 1162.74 718.916 C 1182.05 764.042 1191.69 817.236 1200.69 865.136 C 1212.56 861.604 1216.22 860.364 1226.4 853.603 C 1244.47 836.903 1241.95 819.664 1252.66 799.636 C 1258.92 787.923 1278.47 769.121 1290.59 764.1 C 1294.83 766.297 1298.94 769.062 1303.52 769.126 C 1307.52 767.808 1308.1 766.517 1309.95 762.846 C 1310.86 761.019 1311.75 759.178 1312.61 757.324 C 1309.45 751.713 1303.29 737.717 1297.16 735.785 C 1288.96 733.203 1269.62 749.332 1265.17 743.303 C 1260.74 737.306 1264.32 687.738 1256.32 686.057 C 1256.23 686.038 1256.13 686.058 1256.04 686.058 z M 1329.15 1038.02 C 1324.52 1041.49 1319.41 1056.96 1313.12 1065.97 C 1308.67 1061.09 1303.04 1054.55 1298.45 1050.02 C 1272.82 1074.7 1280.18 1106.58 1271.12 1137.62 C 1267.37 1150.47 1258.3 1166.97 1253.28 1180.67 C 1263.34 1182.88 1297.74 1190.02 1305.18 1193.43 C 1319.31 1196.42 1338.76 1202.55 1352.92 1206.91 C 1365.84 1171.44 1375 1122.16 1378.94 1084.7 C 1380.5 1069.91 1380.32 1055.43 1382.3 1039.43 C 1367.6 1038.96 1341.76 1040.05 1329.15 1038.02 z M 1075.81 876.788 C 1099.85 877.279 1154.16 870.696 1178.4 867.213 C 1175.88 839.06 1155.09 749.879 1142.21 724.808 C 1140.12 723.861 1141.03 723.798 1139.54 724.227 C 1118.56 730.717 1058.96 736.589 1035.84 736.2 C 1036.85 782.698 1035.89 831.151 1036.09 877.896 C 1049.19 877.544 1062.76 877.361 1075.81 876.788 z M 979.75 876.847 C 991.542 877.209 1002.81 877.545 1014.61 877.417 C 1012.82 859.288 1013.92 824.001 1013.87 804.463 C 1013.82 787.372 1012.98 751.393 1014.68 736.214 C 988.206 735.888 961.795 733.479 935.695 729.009 C 928.8 727.881 913.052 723.89 909.105 723.396 C 893.891 759.094 877.435 828.463 872.552 866.605 C 898.628 871.09 953.808 877.208 979.75 876.847 z M 635.536 1203.79 C 649.512 1204.87 662.546 1206.27 676.288 1207.5 C 656.528 1158.16 650.744 1091.41 648.324 1038.97 C 593.028 1038.84 532.342 1040.68 477.621 1038.9 C 479.198 1096.64 492.002 1153.52 515.319 1206.37 C 521.562 1220.79 529.466 1234.35 535.353 1247.87 C 541.638 1245.06 549.738 1242.07 556.433 1240.32 C 587.582 1232.16 601.331 1204.35 635.536 1203.79 z M 1371.49 650.075 C 1358.61 653.637 1343.65 659.688 1331.52 662.212 C 1323.99 659.811 1321.48 659.13 1314.9 654.334 C 1310.78 656.98 1301.38 662.23 1299.13 665.494 C 1299.56 678.527 1333.71 685.289 1335.52 723.754 C 1335.6 725.416 1335.65 727.08 1335.66 728.744 L 1323.4 735.027 C 1327.88 742.285 1332.23 749.626 1336.43 757.047 C 1361.16 764.773 1364.28 768.171 1355.37 795.284 C 1359.25 803.858 1362.64 812.641 1365.54 821.592 C 1368.3 820.719 1385.48 814.755 1387.24 814.388 C 1423.45 800.238 1455.58 786.998 1490.24 769.444 C 1486.67 763.021 1477.96 752.011 1473.62 746.204 C 1459.73 727.619 1389.92 653.597 1371.49 650.075 z M 1010.74 504.474 C 993.187 504.801 928.439 504.963 913.314 510.128 C 911.006 514.649 913.023 519.146 914.451 524.015 C 924.109 556.937 944.488 581.231 975.356 596.63 C 996.788 607.322 1014.87 608.574 1038.46 607.55 C 1068.61 604.039 1096.15 588.777 1115.11 565.078 C 1128.73 547.999 1135.22 530.969 1139.99 509.911 C 1097.06 505.353 1053.89 503.537 1010.74 504.474 z M 634.123 579.941 C 613.048 590.164 592.438 599.129 571.536 610.088 C 525.225 634.49 481.762 663.95 441.943 697.93 C 465.391 713.935 487.244 726.944 510.309 742.17 C 516.651 745.739 535.181 756.73 540.819 759.062 L 541.627 758.119 C 550.225 747.928 557.56 736.149 566.387 725.473 C 601.76 682.69 638.36 651.532 683.362 619.427 C 668.011 606.729 653.395 593.407 638.249 580.516 C 637.373 579.77 635.219 579.908 634.123 579.941 z M 700.121 633.668 L 699.146 634.468 C 688.996 642.676 677.263 649.63 666.764 657.88 C 623.855 691.598 592.084 725.036 560.79 769.43 C 580.071 779.169 624.015 800.375 644.243 806.87 C 656.627 811.736 671.761 818.189 684.59 820.844 C 692.107 805.371 698.099 789.068 706.059 772.866 C 724.67 734.987 744.145 707.902 769.974 675.127 C 761.194 669.767 705.661 634.228 700.121 633.668 z M 1373.41 1213.85 C 1422.62 1231.1 1456.07 1246.63 1502.61 1268.55 C 1508.77 1258.91 1513.86 1249.42 1519.34 1239.4 C 1544.33 1192.83 1561.1 1142.28 1568.89 1090 C 1571.59 1071.04 1572.1 1057.67 1573.55 1039.32 C 1517.9 1038.75 1458.14 1041.02 1402.77 1038.81 C 1403.14 1085.91 1390.77 1169.88 1373.41 1213.85 z"/>
<path transform="translate(0,0)" fill="rgb(254,212,224)" fill-opacity="0.0117647" d="M 1146.36 1315.3 C 1148.17 1307.58 1151.09 1287.58 1155.24 1282.68 L 1156.81 1282.47 C 1159.18 1287.65 1149.95 1310.49 1147.21 1315.37 L 1146.36 1315.3 z"/>
<path transform="translate(0,0)" fill="rgb(232,29,32)" d="M 1189.75 1591.32 C 1194.69 1590.91 1201.09 1590.96 1206.15 1590.86 C 1203.7 1621.03 1198.79 1651.73 1195.87 1681.94 C 1195.18 1689.13 1194.63 1695.63 1193.44 1702.77 C 1185.92 1703.44 1168.31 1705.79 1161.87 1705.46 C 1155.98 1700.77 1137.48 1648.98 1134.23 1638.82 C 1129.78 1652.83 1123.93 1693.8 1121.32 1709.85 C 1110.28 1711.21 1099.27 1712.84 1088.3 1714.74 C 1083.34 1701.55 1076.61 1681.07 1072.63 1667.72 C 1066.58 1650.49 1058.46 1627.65 1053.8 1609.77 C 1053.27 1607.73 1053.78 1607.89 1055.21 1606.15 C 1060.09 1603.98 1077.74 1602.12 1082.7 1604.43 C 1087.64 1606.72 1099.31 1653.21 1102.36 1661.63 C 1106.09 1643.28 1108.66 1617.75 1113.39 1600.85 C 1124.97 1597.22 1133.72 1597.64 1145.65 1597.29 C 1152.51 1615.28 1160.14 1636.85 1168.61 1653.94 C 1171.09 1644.43 1173.15 1606 1173.98 1594.24 C 1179.09 1592.94 1184.53 1592.18 1189.75 1591.32 z"/>
<path transform="translate(0,0)" fill="rgb(232,29,32)" d="M 899.083 1597.62 C 930.961 1593 960.589 1614.99 965.394 1646.84 C 970.199 1678.69 948.378 1708.45 916.554 1713.43 C 884.471 1718.46 854.423 1696.42 849.579 1664.31 C 844.735 1632.2 866.944 1602.28 899.083 1597.62 z M 912.626 1686.93 C 934.134 1681.5 945.062 1622.3 902.957 1624.26 C 885.543 1628.11 881.194 1654.67 884.667 1669.43 C 888.262 1684.7 899.446 1687.01 912.626 1686.93 z"/>
<path transform="translate(0,0)" fill="rgb(232,29,32)" d="M 1007.55 331.422 C 1011.88 330.86 1019.48 331.116 1024.08 331.133 C 1023.84 340.361 1025.23 351.026 1025.5 360.392 C 1026.28 387.716 1030.02 416.827 1030.24 443.857 C 1019.07 444.067 1008.5 444.291 997.321 443.933 C 982.063 425.818 968.023 402.889 952.036 386.135 C 953.895 403.629 955.703 430.277 955.562 447.407 C 952.229 447.386 948.602 447.664 945.25 447.839 C 936.446 447.993 932.79 448.402 924.073 449.909 C 920.754 435.059 922.08 410.916 920.91 395.033 C 919.464 375.402 918.07 356.966 917.836 337.234 C 926.71 337.337 938.149 335.95 947.179 335.108 C 960.253 345.117 979.588 377.324 994.166 392.852 C 993.084 377.509 992.004 348.325 992.727 333.117 C 997.544 332.175 1002.64 331.862 1007.55 331.422 z"/>
<path transform="translate(0,0)" fill="rgb(232,29,32)" d="M 732.872 1573.45 C 755.101 1576.8 780.819 1581.79 802.403 1587.68 C 822.129 1593.07 830.471 1612.01 821.633 1630.31 C 815.819 1642.35 805.76 1644.98 793.989 1649.38 C 809.488 1661.88 811.286 1683.24 817.266 1702 C 808.074 1700.56 798.915 1698.91 789.795 1697.07 C 788.065 1696.85 781.577 1696.18 780.562 1694.54 C 774.194 1684.24 769.323 1644.6 754.997 1643.88 C 753.254 1645.16 751.935 1645.61 751.602 1647.94 C 749.695 1661.32 748.142 1674.14 743.709 1687.06 C 736.625 1686.83 719.785 1683.54 711.672 1682.44 C 713.009 1665.69 718.826 1640.88 722.082 1623.45 C 724.385 1611.11 729.219 1584.35 732.872 1573.45 z M 757.311 1624.96 C 769.291 1625.09 774.494 1628.45 785.64 1625.87 C 804.699 1607.19 772.736 1603.75 761.473 1600.38 C 760.119 1607.93 758.133 1617.49 757.311 1624.96 z"/>
<path transform="translate(0,0)" fill="rgb(232,29,32)" d="M 1301.64 1569.44 C 1330.39 1568.16 1341.5 1596.2 1325.5 1618.55 C 1323.31 1621.61 1318.05 1625.14 1314.84 1627.46 C 1336.34 1635.62 1345.27 1651.18 1359.6 1668.17 C 1349.31 1669.46 1331.81 1672.32 1322.86 1676.93 C 1313.82 1667.32 1305.6 1657.03 1296.58 1647.61 C 1290.27 1641.03 1285.73 1638.58 1277 1638.7 C 1276.1 1645.52 1284.57 1676.65 1287.23 1684.17 C 1278.61 1685.61 1262.34 1689.66 1254.1 1692.37 C 1249.74 1680.56 1246.37 1663.53 1243.4 1650.93 C 1237.97 1628.81 1232.94 1606.59 1228.3 1584.28 C 1247.57 1580.06 1283.86 1570.24 1301.64 1569.44 z M 1265.89 1598.02 C 1267.58 1605.26 1269.69 1613.44 1270.92 1620.68 C 1275.24 1619.58 1279.43 1618.49 1283.8 1617.61 C 1292.75 1614.91 1295.89 1612.9 1301.65 1605.4 L 1296.04 1594.05 C 1292.43 1594.08 1287.04 1593.95 1283.59 1594.21 C 1276.98 1595.36 1272.36 1596.29 1265.89 1598.02 z"/>
<path transform="translate(0,0)" fill="rgb(232,29,32)" d="M 1824.54 1141.51 C 1832.38 1143.49 1849.88 1151.04 1857.96 1154.28 C 1880.77 1163.36 1903.44 1172.77 1925.97 1182.51 C 1924.45 1188.29 1917.72 1207.03 1914.4 1209.56 C 1904.66 1216.97 1852.35 1225.78 1841.53 1226.28 C 1858.77 1234.73 1881 1243.46 1899.02 1250.52 C 1895.47 1259.07 1890.46 1273.69 1886.36 1281.03 C 1879.58 1276.84 1860.29 1269.39 1852.41 1266.15 C 1829.74 1256.83 1806.5 1248.29 1784.03 1238.42 C 1787.99 1229.49 1792.47 1216.95 1797.4 1209.27 C 1818.38 1203.08 1846.59 1198.94 1868.83 1193.63 C 1855.23 1188.13 1823.67 1176.23 1812.51 1169.91 C 1815.88 1161.23 1819.82 1148.87 1824.54 1141.51 z"/>
<path transform="translate(0,0)" fill="rgb(232,29,32)" d="M 1861.22 1009.82 L 1863.45 1010.76 C 1867.33 1016.26 1867.24 1034.74 1867.76 1042.37 C 1863.48 1045.56 1861.03 1048.15 1857.27 1051.88 C 1855.66 1059.94 1856.02 1064.54 1856.23 1072.73 C 1867.08 1086.67 1875.64 1088.53 1893.18 1088.56 C 1910.54 1088.71 1924.36 1075.9 1921.13 1057.97 C 1919.48 1048.77 1917.66 1037.27 1905.5 1040.82 C 1903.88 1043.79 1904.13 1057.92 1904.03 1062.15 C 1896.35 1062.5 1888.62 1062.23 1880.93 1062.06 C 1880.55 1048.69 1882.1 1024.46 1882.96 1010.72 C 1892.19 1010.19 1923.98 1008.91 1930.61 1013.51 C 1950.6 1042.78 1954.04 1096.11 1918.66 1115.25 C 1903.8 1123.18 1886.4 1124.92 1870.27 1120.08 C 1830.07 1108.25 1825.04 1071.19 1834.69 1036 C 1838.38 1022.54 1849.66 1015.55 1861.22 1009.82 z"/>
<path transform="translate(0,0)" fill="rgb(232,29,32)" d="M 833.262 349.336 C 835.046 348.812 835.634 348.95 837.532 348.861 C 843.974 353.537 892.581 439.274 899.042 450.768 C 888.879 454.057 877.2 454.884 865.186 458.327 C 861.623 451.702 859.152 446.698 856.123 439.818 C 849.286 440.763 844.18 441.836 837.44 443.356 C 829.566 444.267 824.101 445.045 816.553 447.374 C 816.222 452.687 816.262 464.249 810.641 466.093 C 804.663 468.053 787.159 471.343 781.528 470.332 C 781.41 469.95 781.254 469.578 781.175 469.186 C 779.946 463.108 800.3 359.05 803.822 355.829 C 808.971 351.123 826.444 350.321 833.262 349.336 z M 819.071 421.335 C 825.316 420.804 831.548 420.14 837.763 419.342 L 842.397 417.601 C 843.69 413.789 828.267 385.002 824.551 382.457 C 823.107 396.408 822.47 407.723 819.071 421.335 z"/>
<path transform="translate(0,0)" fill="rgb(232,29,32)" d="M 220.211 894.141 C 222.294 894.072 221.866 894.138 223.956 894.648 C 226.116 901.525 222.507 920.543 218.843 926.871 C 215.853 929.074 205.678 930.159 201.058 930.97 C 198.608 943.022 196.532 957.672 194.456 969.969 C 201.507 973.286 205.065 975.093 211.599 979.266 C 210.495 985.04 208.776 1008.32 205.006 1010.45 C 195.98 1008.85 166.035 989.751 155.617 983.716 C 139.576 975.348 117.89 962.24 102.437 952.537 C 104.419 940.071 106.045 928.159 109.473 915.989 C 145.766 909.674 183.914 901.416 220.211 894.141 z M 133.079 938.916 C 140.775 943.115 148.546 947.173 156.389 951.088 C 159.638 952.672 167.989 957.179 171.052 957.416 C 173.874 951.926 174.701 942.047 175.246 935.824 C 172.66 934.727 170.089 935.273 167.203 935.491 C 155.093 937.004 145.379 938.784 133.079 938.916 z"/>
<path transform="translate(0,0)" fill="rgb(232,29,32)" d="M 575.36 421.294 C 583.576 424.792 650.333 495.863 660.62 507.088 C 637.723 515.062 632.04 527.413 614.759 506.202 C 609.82 507.998 604.606 510.232 599.706 512.22 C 591.846 515.973 586.354 517.998 578.089 520.916 C 579.604 528.993 580.055 532.487 580.396 540.68 C 569.435 545.376 559.094 549.799 548.372 555.035 L 542.795 435.346 C 553.561 430.457 564.418 425.772 575.36 421.294 z M 576.303 496.189 C 581.831 494.038 587.312 491.765 592.741 489.372 L 596.932 487.272 L 597.379 485.713 C 592.922 479.581 577.394 460.733 571.499 456.582 C 571.861 466.492 573.559 487.097 576.303 496.189 z"/>
<path transform="translate(0,0)" fill="rgb(232,29,32)" d="M 1438.27 1522.07 L 1440.64 1523.26 C 1444.51 1528.4 1446.07 1536.17 1447.95 1542.62 C 1440.15 1545.69 1404.86 1557.97 1396.72 1562.9 C 1394.74 1564.1 1399.22 1576.16 1400.68 1580.33 C 1407.58 1576.66 1444.07 1561.58 1450.76 1563.92 C 1454.4 1568.46 1456.34 1576.32 1458.33 1582.21 C 1443.67 1587.2 1423.21 1594.29 1409.14 1600.2 C 1410.69 1607.42 1413.13 1614.43 1416.39 1621.06 C 1427.89 1616.74 1459.95 1604 1470.49 1601.6 C 1472.97 1603.44 1472.89 1604.34 1473.91 1607.31 C 1475.96 1612.94 1477.92 1618.59 1479.81 1624.27 C 1465.43 1628.62 1447.39 1636.17 1433.01 1641.34 C 1422.73 1645.04 1402.59 1652.06 1393.91 1657.03 C 1388.81 1647.29 1382.67 1629.05 1378.66 1618.15 C 1370.8 1596.56 1362.79 1575.03 1354.61 1553.56 C 1362.54 1549.01 1378.94 1543.46 1387.89 1540.16 C 1404.57 1533.82 1421.37 1527.79 1438.27 1522.07 z"/>
<path transform="translate(0,0)" fill="rgb(232,29,32)" d="M 711.448 375.475 C 720.572 374.808 727.844 373.809 736.342 378.183 C 752.164 386.225 759.345 409.685 750.883 425.267 C 742.252 441.161 720.819 445.428 704.754 450.094 C 707.456 462.829 711.932 478.152 715.257 491.012 C 709.926 491.753 704.431 493.572 699.22 495.083 C 694.153 496.624 688.888 498.683 683.708 498.584 C 683.109 498.166 682.511 497.748 681.912 497.33 C 672.002 470.235 661.655 419.473 651.273 394.702 L 650.708 393.374 C 663.224 387.991 696.974 379.443 711.448 375.475 z M 691.553 403.469 C 692.965 411.056 693.893 422.272 699.271 427.213 C 702.243 427.784 703.61 427.144 706.517 426.362 C 715.694 423.21 728.6 414.337 715.72 402.114 C 714.762 401.205 709.266 400.192 707.643 400.316 C 702.271 401.321 696.907 402.372 691.553 403.469 z"/>
<path transform="translate(0,0)" fill="rgb(232,29,32)" d="M 614.465 1538.14 C 623.563 1539.62 631.99 1542.71 640.708 1545.42 C 669.642 1554.46 706.688 1561.76 691.211 1602.1 C 680.917 1628.93 649.239 1624.37 628.247 1614.34 L 626.109 1614.26 C 622.007 1619.8 614.66 1645.71 613.41 1653.41 C 602.471 1649.59 591.281 1646.18 580.256 1642.33 C 586.926 1620.31 594.258 1598.1 601.148 1576.14 C 603.562 1568.44 610.801 1544.33 614.465 1538.14 z M 633.016 1593.45 C 642.138 1595.3 645.895 1598.1 654.647 1596.36 C 673.722 1581.14 653.445 1572.28 639.342 1568.51 C 637.148 1576.03 633.896 1585.91 633.016 1593.45 z"/>
<path transform="translate(0,0)" fill="rgb(232,29,32)" d="M 1528.97 1478.06 C 1546.12 1476.46 1552.89 1481.24 1563.57 1493.98 C 1554.88 1498.65 1545.7 1504.47 1536.99 1509.49 C 1531.77 1506.68 1526.27 1501.03 1520.16 1502.9 C 1512.97 1505.11 1505.11 1512.32 1507.26 1520.41 C 1515.73 1528.38 1558.25 1505.69 1574.79 1518.38 C 1582.48 1523.31 1588.3 1531.15 1590.17 1540.49 C 1596.7 1573.05 1557.17 1592.53 1531.81 1596.66 C 1516.78 1597.53 1506.7 1588.33 1497.52 1577.96 C 1506.39 1570.76 1514.72 1566.43 1524.56 1560.75 C 1531.75 1567.17 1537.18 1571.75 1547.78 1569.28 C 1555.01 1567.84 1563.12 1558.18 1559.72 1550.77 C 1556.15 1542.44 1534.09 1546.71 1526.97 1549.13 C 1497.33 1559.21 1467.04 1541.37 1481.67 1508.23 C 1488.49 1492.79 1513.09 1483.05 1528.97 1478.06 z"/>
<path transform="translate(0,0)" fill="rgb(232,29,32)" d="M 1650.19 1395.62 C 1656.72 1395.87 1664.78 1410.38 1668.73 1415.89 C 1660.58 1420.59 1647.57 1430.48 1639.44 1436.33 C 1648.01 1445.61 1656.46 1458.32 1664.03 1468.57 C 1672.6 1480.18 1681.84 1491.85 1689.33 1504.14 C 1680.71 1509.31 1669.77 1517.27 1662.3 1524.05 C 1656.74 1515.47 1648.51 1504.91 1642.29 1496.49 C 1632.27 1483.18 1622.49 1469.7 1612.93 1456.06 C 1605.01 1461.56 1593.48 1473.73 1585.33 1474.12 C 1577.69 1471.74 1573.2 1461.62 1569.39 1454.51 C 1592.65 1436.95 1626.14 1411.53 1650.19 1395.62 z"/>
<path transform="translate(0,0)" fill="rgb(232,29,32)" d="M 219.663 681.007 C 229.83 685.99 273.765 721.993 285.628 731.852 C 295.788 721.027 309.088 702.931 319.1 690.673 C 349.816 708.511 337.652 711.465 319.439 734.443 C 308.912 748.495 297.61 761.489 287.195 776.009 C 279.119 770.754 262.484 757.236 254.165 750.526 C 237.977 737.472 213.274 720.149 199.242 705.844 C 203.097 700.214 214.946 685.506 219.663 681.007 z"/>
<path transform="translate(0,0)" fill="rgb(232,29,32)" d="M 247.931 784.417 C 254.531 788.049 265.444 793.518 272.24 796.193 C 262.211 820.333 246.282 852.354 234.497 876.138 C 226.699 873.224 213.794 866.586 206.033 862.867 L 158.043 839.958 C 149.412 835.723 142.485 832.466 133.533 828.86 C 138.697 817.474 143.044 807.905 148.672 796.767 C 168.186 809.041 202.165 821.603 223.954 834.006 C 232.273 818.049 239.423 800.807 247.931 784.417 z"/>
<path transform="translate(0,0)" fill="rgb(232,29,32)" d="M 471.576 469.812 C 478.391 471.741 516.036 537.962 517.642 549.693 C 520.881 573.355 494.821 593.11 473.5 597.11 C 458.319 599.958 452.967 595.344 441.56 587.264 C 438.374 584.153 437.146 582.788 437.064 578.637 C 440.817 570.279 453.045 563.285 460.953 558.165 C 464.129 562.386 467.109 567.076 471.758 569.245 C 477.632 569.831 482.331 565.653 484.646 560.542 C 484.013 546.402 453.686 504.908 445.466 487.949 L 444.801 486.558 C 450.589 482.214 464.947 473.878 471.576 469.812 z"/>
<path transform="translate(0,0)" fill="rgb(232,29,32)" d="M 1692.56 1353.8 C 1699.53 1357.01 1747.55 1404.35 1752.93 1411.69 C 1762.16 1403.7 1782.83 1379.42 1790.91 1375.29 C 1796.95 1376.91 1805.19 1386.86 1809.62 1391.6 C 1801.86 1400.62 1794.88 1407.83 1786.55 1416.3 C 1777.6 1427.49 1760.41 1441.06 1749.59 1454.97 C 1728.63 1431.25 1693.93 1401.78 1670.5 1377.74 C 1675.6 1370.87 1686.28 1360.31 1692.56 1353.8 z"/>
<path transform="translate(0,0)" fill="rgb(232,29,32)" d="M 1765.48 1265.71 C 1795.09 1286.87 1825.93 1307.35 1855.75 1328.63 C 1849.44 1337.66 1843.28 1346.79 1837.27 1356.01 C 1829.08 1352.73 1809.88 1338.18 1801.17 1332.21 C 1782.82 1319.61 1763.64 1306.69 1745.99 1293.17 C 1750.03 1285.77 1760.03 1272.15 1765.48 1265.71 z"/>
<path transform="translate(0,0)" fill="rgb(232,29,32)" d="M 1711.52 505.018 C 1720.81 506.789 1721.19 507.924 1727.37 514.888 C 1718.11 530.476 1708.65 530.978 1694.75 540.803 C 1686.21 546.839 1677.36 554.566 1668.77 560.999 C 1664.2 563.282 1659.72 564.838 1655.67 561.211 C 1655.32 558.585 1654.98 559.078 1655.92 556.499 C 1659.57 546.541 1704.46 508.082 1711.52 505.018 z"/>
<path transform="translate(0,0)" fill="rgb(232,29,32)" d="M 993.382 1662.44 C 1007.77 1662.27 1022.82 1661.87 1037.12 1662.5 C 1037.21 1668.34 1037.86 1680.24 1036.81 1685.35 L 1035.14 1686.09 C 1021.54 1686.09 1006.36 1685.79 992.923 1686.79 C 992.607 1680.24 991.713 1668.5 993.382 1662.44 z"/>
</svg>