<svg version="1.1" xmlns="http://www.w3.org/2000/svg" style="display: block;" viewBox="0 0 1264 1264" width="316" height="316" preserveAspectRatio="none">
<path transform="translate(0,0)" fill="rgb(231,49,150)" d="M 848.39 352.282 C 875.151 352.376 893.267 351.524 920.02 359.433 C 969.865 374.168 1001.41 403.043 1026.67 448.181 C 1052 493.454 1057.33 549.539 1044.93 599.817 C 1043.13 607.135 1031.94 628.12 1028.14 635.467 L 1001.11 687.807 C 963.211 763.454 923.731 838.297 882.692 912.286 C 875.336 925.421 866.984 939.023 859.919 952.168 C 843.822 982.118 834.91 1002.36 803.365 1018.93 C 776.171 1033 744.558 1035.9 715.259 1027.01 C 675.432 1014.6 650.232 980.448 631.698 944.876 C 620.872 958.373 614.253 977.056 604.51 991.288 C 589.254 1013.57 560.809 1027.04 534.671 1031.48 C 503.92 1036.7 477.056 1031.42 451.488 1013.51 C 441.373 1005.72 429.887 993.367 423.008 982.562 C 400.779 947.652 379.422 909.958 359.784 873.595 C 333.77 825.8 308.233 777.746 283.177 729.441 C 269.177 703.089 255.36 676.641 241.725 650.099 C 234.421 635.613 225.187 618.626 220.739 603.401 C 210.79 570.079 214.52 537.978 220.563 504.618 C 224.868 480.857 225.941 474.488 237.365 452.896 C 259.584 408.213 304.41 374.777 351.168 362.24 C 405.489 347.675 462.225 352.5 506.268 388.3 C 518.863 398.538 530.88 381.4 541.631 375.686 C 595.195 347.218 659.379 344.852 714.502 370.815 C 725.237 375.917 737.826 385.287 748.648 391.279 C 755.882 387.572 766.108 379.09 774.044 374.399 C 798.071 360.198 821.438 356.361 848.39 352.282 z M 519.35 936.281 C 495.729 918.657 489.317 890.276 475.923 865.627 L 370.786 670.79 C 354.744 640.746 323.022 597.028 318.305 565.244 C 305.955 482.018 387.253 435.481 456.698 477.3 C 459.775 469.588 465.641 456.363 469.872 449.424 C 443.989 422.748 413.257 417.851 377.957 424.215 C 326.143 433.556 281.116 488.502 281.83 540.862 C 282.103 560.921 283.826 581.351 291.357 600.24 C 305.383 635.162 326.687 670.144 344.48 703.787 L 400.432 809.062 C 416.288 839.466 430.699 869.006 447.838 898.941 C 457.74 915.891 468.028 932.613 478.695 949.092 C 483.79 956.843 491.776 967.589 496.23 975.183 C 541.123 987.084 550.158 957.592 567.808 923.494 C 586.915 888.543 605.991 851.641 623.649 815.923 C 626.919 809.308 629.966 802.765 633.408 796.215 C 669.618 727.106 706.68 658.446 744.587 590.253 C 754.363 572.132 763.886 553.876 773.155 535.49 C 779.903 522.038 787.795 503.813 796.636 492.308 C 808.674 476.639 825.408 465.232 844.393 459.756 C 890.358 446.193 932.357 474.9 945.206 519.298 C 955.514 554.916 940.979 587.534 923.556 617.874 C 905.765 647.851 889.003 678.404 871.837 708.737 C 865.567 719.816 861.94 733.748 855.684 744.693 C 824.447 799.344 794.998 854.77 765.939 910.583 C 760.839 920.379 753.248 928.943 747.112 938.068 C 725.006 914.41 703.185 852.568 687.744 842.209 C 681.334 844.626 672.535 866.632 669.43 873.327 C 682.655 899.37 707.146 965.276 734.029 975.776 C 775.271 991.884 795.196 932.977 809.992 903.745 C 822.561 879.204 835.508 854.859 848.83 830.718 L 942.736 657.568 C 951.536 641.04 960.292 624.218 969.74 608.057 C 990.711 572.189 988.579 518.962 969.143 482.559 C 953.344 453.285 926.461 431.572 894.518 422.287 C 884.103 419.267 873.262 417.978 862.429 418.471 C 797.841 420.066 771.135 458.37 744.555 511.802 C 715.792 569.623 684.149 625.904 653.692 682.753 L 583.172 817.472 L 543.648 892.93 C 534.703 909.802 530.733 920.237 519.35 936.281 z M 574.257 690.089 C 587.259 674.533 599.126 659.829 586.094 640.26 L 585.64 639.316 C 580.363 628.497 572.336 617.855 566.468 607.295 C 552.267 581.742 541.508 547.304 551.643 518.833 C 566.494 477.114 613.119 444.445 657.316 462.581 C 667.543 466.778 677.05 471.021 686.755 476.37 C 692.486 465.824 696.927 458.136 701.067 446.828 C 679.881 427.995 661.04 419.713 631.975 421.215 C 631.094 421.258 630.214 421.323 629.336 421.41 C 552.968 427.498 507.108 485.151 511.694 561.576 C 513.389 589.823 531.893 613.588 544.155 637.787 C 556.115 660.61 555.477 670.64 574.257 690.089 z M 626.206 529.331 C 617.873 535.235 617.221 536.228 613.237 545.657 C 616.175 558.575 622.232 567.989 629.778 578.644 L 631.582 579.43 L 632.968 578.422 C 639.915 566.614 651.299 553.455 647.785 538.904 C 645.536 529.595 634.172 528.243 626.206 529.331 z M 535.495 763.3 C 507.527 714.761 483.6 661.77 456.085 612.725 C 443.676 590.606 434.28 566.227 420.285 544.992 C 414.493 535.917 407.312 528.368 395.946 528.924 C 387.727 533.225 385.505 535.686 382.754 544.614 L 382.388 545.818 C 383.081 549.749 385.089 562.132 386.573 565.144 C 397.169 586.653 409.661 605.681 420.839 627.266 L 479.311 738.771 C 486.326 752.121 504.497 792.214 514.068 800.074 L 516.358 800.563 C 516.927 800.008 517.969 799.12 518.356 798.441 C 524.162 790.564 532.486 772.735 535.495 763.3 z M 857.168 527.197 C 846.954 535.129 769.091 684.928 756.667 709.773 C 750.816 721.473 733.751 751.451 728.329 765.336 C 726.341 770.429 737.239 792.013 741.365 796.064 C 743.442 798.103 743.491 798.44 746.554 800.029 C 749.224 799.586 748.267 800.239 749.748 798.408 C 759.823 783.774 771.285 760.008 779.531 744.115 L 814.473 678.32 C 833.286 642.546 855.1 608.072 871.751 571.218 C 875.932 561.965 887.697 538.271 876.596 531.923 C 870.628 528.51 864.03 526.664 857.168 527.197 z"/>
<path transform="translate(0,0)" fill="rgb(231,49,150)" d="M 616.81 219.36 C 624.798 210.016 651.169 215.346 649.925 230.466 C 649.772 238.423 644.632 245.046 641.75 252.274 C 632.461 275.61 649.35 286.42 670.841 286.888 C 681.112 287.111 699.051 285.476 698.614 271.921 C 698.101 255.982 689.814 255.344 694.873 237.615 C 700.985 232.006 705.258 228.602 713.815 229.026 C 722.755 229.274 738.265 239.034 736.177 249.353 C 732.823 265.923 716.552 268.931 714.845 286.718 C 712.327 312.961 765.887 324.809 770.609 300.207 C 772.646 289.594 769.383 288.31 774.864 275.115 C 779.038 271.776 785.69 266.877 792.149 267.849 C 808.524 270.314 819.707 292.428 805.319 304.376 C 799.131 309.514 784.425 309.196 778.565 317.311 C 766.68 327.772 755.222 367.687 740.972 367.793 C 723.604 361.013 706.723 351.032 690.383 344.713 C 649.365 328.85 591.122 337.173 551.517 354.516 C 547.327 356.317 543.269 358.413 539.375 360.788 C 534.028 364.078 523.736 373.925 518.067 370.525 C 508.518 364.801 501.9 349.675 495.47 340.735 C 489.24 332.073 483.117 324.366 476.712 316.285 C 467.872 313.471 454.07 309.982 450.347 300.837 C 443.814 284.79 460.541 275.254 472.67 272.467 C 479.296 274.485 481.407 275.347 487.096 279.277 C 488.756 282.443 490.549 285.597 491.656 288.989 C 490.645 295.308 488.103 304.88 492.246 310.307 C 501.056 321.847 523.94 316.73 533.641 309.279 C 540.868 303.728 544.373 290.673 546.978 282.211 C 534.399 264.693 516.766 264.891 524.719 240.924 C 534.907 231.189 547.155 226.408 558.892 237.505 C 569.699 247.724 554.214 268.816 564.77 280.826 C 574.904 292.355 602.413 289.664 613.502 280.549 C 618.891 276.119 621.489 269.606 623.577 263.23 C 619.749 253.844 616.818 251.345 611.503 243.11 C 606.687 234.335 608.668 225.23 616.81 219.36 z"/>
<path transform="translate(0,0)" fill="rgb(231,49,150)" d="M 926.491 1071.97 L 928.909 1072.18 C 934.414 1076.29 955.086 1109.65 960.349 1117.67 L 974.942 1106.54 L 984.124 1118.64 C 979.678 1125.3 961.183 1137.27 953.548 1139.96 C 949.399 1131.12 929.988 1103.08 923.722 1093.55 L 912.987 1101.24 C 920.834 1114.8 931.334 1131.95 938.26 1146.25 C 939.231 1148.25 938.457 1149.08 937.581 1150.62 C 933.699 1152.81 930.329 1155.05 925.956 1155.88 C 920.813 1153.84 901.356 1115.77 897.417 1108.6 C 887.694 1115.4 886.687 1112.33 879.738 1123.78 C 875.235 1122.07 870.727 1120.01 866.08 1121.73 L 865.338 1123.47 L 866.561 1126.06 C 886.206 1132.97 927.629 1143.2 897.365 1172.84 C 884.741 1185.21 873.974 1172.82 865.015 1172.11 C 862.649 1175.98 867.723 1177.99 866.186 1183.81 C 861.07 1186.49 833.936 1197.25 829.334 1196.02 C 823.322 1190.88 810.438 1142.02 806.18 1131.32 C 804.278 1126.54 840.123 1115.95 843.723 1116.28 C 844.812 1118.04 845.684 1119.65 846.664 1121.48 L 848.182 1121.63 C 860.252 1099.6 856.661 1106.14 879.089 1104.51 C 879.393 1103.38 880.567 1099.13 881.336 1098.69 C 895.584 1090.57 912.939 1080.43 926.491 1071.97 z M 850.825 1140.54 C 873.758 1166.13 827.897 1149.4 837.636 1173.67 C 840.945 1176.14 843.901 1174.48 847.734 1173.28 C 852.802 1171.4 857.456 1169.57 862.719 1168.25 C 865.468 1164.57 869.271 1159.16 872.316 1155.96 C 877.965 1158.7 885.531 1164.08 890.094 1156.12 C 886.931 1146.7 863.998 1147.24 857.547 1140.13 C 855.45 1137.82 850.75 1132.57 847.866 1132.02 C 840.765 1134.4 831.926 1136.46 827.429 1142.49 L 828.132 1143.88 C 836.273 1146.04 842.777 1142.53 850.825 1140.54 z"/>
<path transform="translate(0,0)" fill="rgb(231,49,150)" d="M 742.936 1141.78 C 765.726 1140.23 804.92 1118.8 807.511 1155.75 C 807.974 1162.35 804.166 1167.44 800.742 1172.68 L 801.316 1173.56 C 805.966 1180.54 819.088 1192.01 821.237 1196.95 C 819.373 1202.25 808.343 1203.73 803.857 1201.52 C 799.574 1199.41 795.775 1193.57 792.886 1189.71 C 790.472 1186.75 790.302 1185.46 787.196 1184.61 C 786.631 1187.88 787.358 1188.33 788.515 1191.72 C 790.246 1197.69 792.592 1201.49 789.259 1207.01 C 785.743 1209.49 779.063 1209.94 774.568 1210.6 C 770.45 1196.85 766.239 1174.05 763.104 1159.37 C 762.722 1156.41 762.344 1151.41 759.776 1149.68 C 758.483 1151.73 758.932 1151.44 758.938 1154.33 C 757.574 1169.4 760.651 1226.6 736.794 1215.05 C 731.234 1207.17 729.324 1196.13 725.323 1188.03 C 724.371 1185.27 723.824 1182.81 721.666 1181.48 L 720.734 1183.72 C 719.434 1194.46 718.155 1209.06 714.817 1218.97 C 710.69 1219.86 704.697 1221.65 700.865 1220.6 C 696.877 1215.92 678.171 1159.94 674.524 1150.27 C 679.449 1149.41 686.7 1147.73 691.433 1148.39 C 697.97 1153.95 699.677 1175.87 704.044 1181.16 C 705.499 1179.68 710.026 1151.28 711.387 1146.08 C 715.377 1145.12 719.765 1143.61 723.649 1144.49 C 730.107 1150.47 734.398 1174.98 739.783 1176.65 C 740.965 1174.02 742.002 1148.74 742.936 1141.78 z"/>
<path transform="translate(0,0)" fill="rgb(231,49,150)" d="M 311.144 1038.89 C 321.688 1044.86 332.295 1054.41 342.195 1061.7 C 347.333 1065.48 352.558 1068.3 357.293 1071.72 L 357.542 1072.77 C 360.077 1083.69 358.66 1105.76 359.475 1118.21 L 360.931 1118.21 C 365.147 1112.95 374.269 1094.93 381.272 1085.65 L 394.957 1093.9 C 391.36 1101.73 363.517 1150.23 358.864 1154.98 C 336.991 1160.17 342.957 1109.93 343.972 1099.11 C 337.947 1109.2 327.55 1125.47 323.378 1135.83 C 319.729 1133.94 308.514 1128.51 309.226 1125.85 C 311.905 1115.85 333.091 1084.07 337.955 1076.3 C 339.941 1073.82 339.766 1074.78 339.896 1072.08 C 337.914 1072.27 335.657 1074.6 333.998 1075.99 L 332.977 1075.46 C 326.154 1071.93 317.587 1062.94 312.753 1064.01 C 311.024 1067.4 311.212 1065.93 311.922 1069.51 C 316.256 1075.51 323.246 1077.86 329.013 1083.18 C 325.833 1088.86 323.744 1091.79 319.404 1096.75 C 312.44 1092.28 306.082 1087.13 299.552 1082.05 C 296.997 1085.7 294.127 1090.02 291.339 1093.41 L 311.354 1108.51 C 308.921 1111.92 304.978 1118.13 301.715 1120.25 C 295.537 1119.95 272.829 1101.52 268.653 1095.97 C 268.794 1093.41 306.344 1044.4 311.144 1038.89 z"/>
<path transform="translate(0,0)" fill="rgb(231,49,150)" d="M 1144.21 781.468 C 1164.59 776.528 1185.13 788.988 1190.17 809.348 C 1195.21 829.707 1182.85 850.311 1162.51 855.446 C 1142.04 860.616 1121.27 848.151 1116.19 827.654 C 1111.12 807.156 1123.68 786.443 1144.21 781.468 z M 1157.95 839.155 C 1164.31 837.186 1169.52 833.679 1172.63 827.595 C 1174.92 823.139 1175.31 817.946 1173.7 813.201 C 1170.29 803.218 1159.35 797.367 1149.13 798.071 C 1142.13 800.705 1136.99 803.255 1133.72 810.541 C 1131.62 815.17 1131.47 820.446 1133.29 825.191 C 1137.23 835.502 1147.57 839.597 1157.95 839.155 z"/>
<path transform="translate(0,0)" fill="rgb(231,49,150)" d="M 201.058 941.859 C 221.88 939.644 240.577 954.671 242.894 975.481 C 245.211 996.292 230.276 1015.06 209.477 1017.48 C 188.534 1019.92 169.605 1004.85 167.272 983.9 C 164.939 962.945 180.092 944.09 201.058 941.859 z M 189.152 994.634 C 196.987 999.546 200.926 1001.22 210.278 999.459 C 217.72 996.349 221.469 993.383 224.665 985.733 C 225.571 983.578 226.394 981.389 227.133 979.171 C 222.616 965.019 216.845 958.18 201.271 958.906 C 183.24 968.298 179.785 976.421 189.152 994.634 z"/>
<path transform="translate(0,0)" fill="rgb(231,49,150)" d="M 1184.74 626.943 C 1205.66 624.045 1224.94 638.754 1227.67 659.701 C 1230.4 680.649 1215.54 699.809 1194.57 702.372 C 1173.84 704.907 1154.94 690.248 1152.24 669.536 C 1149.54 648.824 1164.05 629.809 1184.74 626.943 z M 1192.52 685.528 C 1203.85 684.143 1211.95 673.875 1210.65 662.53 C 1209.35 651.184 1199.15 643.009 1187.79 644.218 C 1176.31 645.441 1168.03 655.782 1169.34 667.252 C 1170.65 678.722 1181.06 686.927 1192.52 685.528 z"/>
<path transform="translate(0,0)" fill="rgb(231,49,150)" d="M 1180.58 491.695 C 1201.24 487.779 1221.15 501.37 1225.04 522.035 C 1228.92 542.701 1215.3 562.597 1194.63 566.451 C 1174 570.296 1154.16 556.711 1150.28 536.09 C 1146.41 515.469 1159.96 495.604 1180.58 491.695 z M 1166.79 529.003 C 1166.74 535.437 1169.66 541.531 1174.71 545.519 C 1179.76 549.507 1186.37 550.941 1192.61 549.405 C 1196.67 548.408 1200.34 546.213 1203.13 543.107 C 1209.38 536.171 1210.25 525.931 1205.28 518.037 C 1200.3 510.142 1190.69 506.515 1181.73 509.156 C 1172.92 511.757 1166.85 519.817 1166.79 529.003 z"/>
<path transform="translate(0,0)" fill="rgb(231,49,150)" d="M 608.206 1147.11 C 628.887 1144.4 647.885 1158.87 650.777 1179.53 C 653.669 1200.18 639.373 1219.31 618.744 1222.39 C 597.849 1225.51 578.421 1210.99 575.492 1190.06 C 572.563 1169.14 587.258 1149.85 608.206 1147.11 z M 596.693 1171.91 C 592.958 1176.59 591.411 1182.64 592.448 1188.54 C 593.477 1194.4 596.96 1199.54 602.019 1202.67 C 607.078 1205.8 613.233 1206.62 618.935 1204.92 C 629.95 1201.65 636.242 1190.08 633.009 1179.06 C 629.775 1168.03 618.232 1161.69 607.194 1164.89 C 603.053 1166.09 599.384 1168.54 596.693 1171.91 z"/>
<path transform="translate(0,0)" fill="rgb(231,49,150)" d="M 282.537 163.849 C 285.442 163.916 286.221 164.399 288.205 166.515 C 295.412 174.201 293.577 178.526 287.637 184.391 C 294.099 193.218 312.061 209.636 314.296 219.288 C 314.882 221.819 314.829 224.225 313.195 226.348 C 311.729 228.254 306.372 232.081 304.097 232.022 C 297.714 231.859 277.892 202.182 272.076 195.946 L 262.452 201.889 C 262.246 204.082 261.735 211.102 260.814 212.607 C 256.204 220.136 239.328 217.061 235.489 226.562 C 232.63 233.21 237.331 247.298 244.636 249.662 C 258.293 254.083 265.631 244.527 269.732 233.837 C 269.921 230.587 269.656 228.661 271.598 226.127 C 275.284 224.531 282.798 226.003 286.63 227.22 C 301.182 243.315 254.33 296.002 222.653 255.322 C 216.943 248.052 214.46 238.761 215.783 229.612 C 217.405 218.727 224.233 209.461 233.034 203.142 C 239.86 198.188 248.391 196.186 256.709 197.584 C 258.417 197.868 257.568 197.995 259.141 196.891 C 257.067 194.755 253.846 191.275 255.114 188.123 C 258.798 178.965 274.558 169.024 282.537 163.849 z"/>
<path transform="translate(0,0)" fill="rgb(231,49,150)" d="M 258.717 991.682 C 265.17 992.547 268.026 996.761 272.094 1001.56 C 268.632 1011.1 255.73 1035.97 250.466 1044.7 C 263.21 1037.2 278.992 1027.38 292.706 1022.4 C 296.929 1025.4 300.612 1029.05 304.384 1032.6 C 297.163 1046.09 272.548 1079.08 262.781 1092.89 C 245.911 1082.86 251.187 1078.92 261.05 1065.63 C 262.359 1063.24 271.013 1052.19 273.333 1048.9 C 260.376 1057.06 250.262 1062.07 236.673 1068.94 C 233.241 1065.95 229.607 1062.44 226.23 1059.32 C 233.211 1042.74 236.313 1036.58 245.877 1021.49 C 238.206 1026.61 231.905 1033.12 224.613 1038.61 C 212.936 1047.39 208.579 1042.61 201.065 1033.94 C 216.572 1022.12 242.713 1002.51 258.717 991.682 z"/>
<path transform="translate(0,0)" fill="rgb(231,49,150)" d="M 1147.09 704.743 C 1162.76 704.014 1179.78 707.072 1195.49 708.051 C 1200.08 708.337 1216.63 708.167 1219.43 710.531 C 1227.76 733.885 1187.48 723.168 1176.53 722.101 C 1187.63 728.663 1203.18 737.025 1213.05 744.564 C 1211.91 748.731 1210.49 753.054 1209.2 757.198 C 1195.87 760.478 1182.6 759.639 1168.79 760.708 C 1177.38 764.53 1185.78 767.699 1194.43 771.164 L 1205.62 776.635 C 1203.81 783.338 1202.76 786.712 1200.1 793.221 C 1179.25 782.197 1156.21 774.994 1135.7 764.307 C 1129.96 761.319 1133.91 745.793 1149.29 745.504 C 1162.05 745.265 1172.6 745.129 1185.55 745.671 C 1173.04 738.271 1152.98 727.498 1142.52 718.431 C 1143.57 714.426 1145.7 708.789 1147.09 704.743 z"/>
<path transform="translate(0,0)" fill="rgb(231,49,150)" d="M 667.696 41.6365 C 686.921 37.2611 706.042 49.3359 710.355 68.5746 C 714.668 87.8133 702.531 106.895 683.278 111.145 C 664.114 115.376 645.139 103.307 640.846 84.1567 C 636.553 65.0064 648.56 45.9918 667.696 41.6365 z M 676.468 92.8195 C 683.238 92.349 689.021 87.7624 691.021 81.2774 C 693.02 74.7925 690.825 67.7454 685.496 63.5439 C 682.634 61.2875 679.102 60.0474 675.458 60.0189 C 669.441 59.9717 663.879 63.2199 660.964 68.4844 C 658.049 73.7489 658.247 80.1862 661.481 85.2614 C 664.714 90.3366 670.465 93.2366 676.468 92.8195 z"/>
<path transform="translate(0,0)" fill="rgb(231,49,150)" d="M 326.766 133.853 C 346.086 129.62 365.151 141.951 369.215 161.307 C 373.278 180.664 360.781 199.62 341.39 203.514 C 322.238 207.36 303.565 195.05 299.552 175.932 C 295.538 156.814 307.684 138.035 326.766 133.853 z M 321.085 157.194 L 317.181 168.615 C 321.03 178.386 324.658 186.222 337.082 185.904 C 348.302 180.094 349.093 178.976 351.555 166.517 L 346.238 157.256 C 340.355 153.862 338.02 151.972 331.15 152.133 C 327.784 153.727 324.263 155.28 321.085 157.194 z"/>
<path transform="translate(0,0)" fill="rgb(231,49,150)" d="M 170.912 859.801 C 189.29 874.556 160.989 891.234 150.355 900.605 C 162.478 898.667 177.21 889.175 188.994 892.576 C 192.783 893.67 194.384 898.676 196.048 902.36 C 189.654 911.738 174.508 924.394 165.799 932.926 C 180.959 925.822 189.132 923.404 205.47 919.139 C 208.643 923.119 212.589 926.556 211.543 931.859 C 208.138 937.38 191.959 939.685 183.35 943.049 C 177.78 945.566 150.198 955.768 143.891 954.507 C 140.257 953.78 137.143 946.029 135.429 942.308 C 142.03 934.361 157.111 919.834 164.792 912.331 C 153.421 915.216 134.345 925.125 123.834 920.965 C 119.794 919.365 117.978 913.434 116.381 909.473 C 132.767 895.761 155.15 871.578 170.912 859.801 z"/>
<path transform="translate(0,0)" fill="rgb(231,49,150)" d="M 1054.76 960.194 C 1057.09 960.553 1056.36 960.435 1058.42 962.254 C 1060.18 966.505 1059.96 972.306 1060.08 977.04 C 1052.18 979.24 1046.35 980.493 1040.59 986.745 C 1033.26 994.271 1030.85 1008.99 1040.18 1016.1 C 1050.78 1024.18 1065.1 1024.1 1073.15 1012.56 C 1075.72 1008.87 1078.84 1002.29 1078.13 997.939 L 1076.63 997.764 C 1073.46 999.506 1068.78 1006.82 1065.02 1010.75 C 1059.46 1007.2 1057.71 1005.84 1052.94 1001.29 C 1055.49 995.688 1070.03 975.38 1076.54 971.906 C 1078.26 970.989 1079.71 972.408 1081.46 973.433 C 1103.77 996.161 1094.99 1030.4 1065.02 1037.94 C 1055.05 1040.54 1044.46 1038.99 1035.64 1033.66 C 1027.03 1028.36 1020.31 1019.49 1018.09 1009.56 C 1015.81 999.046 1017.84 988.052 1023.74 979.047 C 1031.15 967.908 1042 962.743 1054.76 960.194 z"/>
<path transform="translate(0,0)" fill="rgb(231,49,150)" d="M 132.625 780.999 C 135.358 780.68 135.723 780.702 138.391 781.373 C 141.536 783.847 142.978 790.051 144.479 794.234 C 134.889 808.039 125.116 821.717 115.162 835.262 C 127.721 828.515 139.993 823.803 153.194 818.588 C 156.072 822.977 159.332 827.876 159.187 833.278 C 156.526 838.228 105.173 856.47 96.2846 860.519 C 93.2846 861.027 94.664 861.23 91.9857 860.028 C 84.2983 847.643 90.545 840.661 98.0327 829.984 C 104.036 821.423 110.53 813.208 117.325 805.256 C 104.722 812.316 90.5561 817.647 77.1171 823.06 C 74.8966 817.72 72.5909 812.416 70.2007 807.15 C 87.8205 797.918 114.179 791.03 132.625 780.999 z"/>
<path transform="translate(0,0)" fill="rgb(231,49,150)" d="M 948.335 137.261 C 964.047 134.959 980.92 147.163 988.07 160.986 C 995.362 175.087 977.817 179.001 972.016 174.699 C 969.099 172.535 967.683 160.082 958.905 157.209 C 936.127 149.754 924.846 182.335 949.394 190.616 L 950.561 189.962 C 948.945 186.378 945.478 184.434 942.184 181.99 C 945.579 176.184 947.43 173.63 951.661 168.38 C 955.895 168.389 977.618 185.377 982.672 189.13 C 977.646 198.057 968.585 207.969 957.942 209.045 C 911.713 213.718 897.776 145.451 948.335 137.261 z"/>
<path transform="translate(0,0)" fill="rgb(231,49,150)" d="M 799.877 65.2954 C 812.813 63.0035 833.104 73.0063 839.717 84.3398 C 844.363 92.3016 832.273 96.3995 826.87 98.8817 C 820.547 92.9047 816.675 86.4919 807.409 84.4901 C 794.73 81.7508 790.112 91.4013 788.017 101.471 L 791.679 111.676 C 794.84 114.184 803.689 120.425 807.61 118.2 C 804.199 114.516 802.598 112.629 799.714 108.534 C 798.564 103.017 801.516 97.8605 806.673 95.8579 C 813.331 99.5654 837.239 103.478 837.48 110.97 C 837.83 121.863 823.613 135.198 812.557 136.526 C 779.77 140.465 756.058 106.729 776.961 78.891 C 782.828 71.1366 790.244 66.7455 799.877 65.2954 z"/>
<path transform="translate(0,0)" fill="rgb(231,49,150)" d="M 1002.77 1007.73 C 1003.21 1007.81 1005.46 1008.18 1006.16 1008.97 C 1021.04 1025.7 1037.3 1040.97 1052.15 1057.57 C 1052.22 1058.38 1052.3 1059.2 1052.37 1060.02 C 1050.85 1064.02 1046.14 1067.5 1042.78 1070.44 C 1027.54 1067.13 1008.56 1063.24 994.364 1057.65 C 1001.37 1066.8 1021.07 1079.26 1020.88 1090.07 C 1019.26 1094.8 1015.3 1096.99 1011.19 1099.45 C 1008.21 1097.48 999.071 1088.28 996.893 1085.5 C 991.01 1078 962.517 1053.04 963.196 1045.42 C 965.649 1041.31 970.372 1038.41 974.328 1035.55 C 990.846 1041.36 1005.6 1042.7 1021.39 1050.1 C 1016.85 1044.07 997.688 1025.98 991.23 1019.31 C 994.738 1014.33 997.981 1011.37 1002.77 1007.73 z"/>
<path transform="translate(0,0)" fill="rgb(231,49,150)" d="M 1194.3 422.109 C 1195.95 422.115 1196.65 422.393 1198.25 422.759 C 1200.89 425.665 1201.72 430.433 1202.8 434.387 C 1195.89 446.348 1179.69 461.407 1170.44 473.743 C 1178.68 470.47 1187.06 467.56 1195.56 465.023 C 1200.66 463.467 1206.65 461.374 1211.39 463.917 C 1212.58 467.989 1214.02 471.65 1213.53 475.837 C 1212.29 477.71 1212.03 478.635 1209.66 479.29 C 1188.8 485.05 1168.29 491.18 1147.7 497.899 C 1123.69 491.626 1167.25 452.061 1174.33 444.688 C 1164.87 448.18 1140.85 459.028 1132.66 455.436 C 1129.48 451.618 1129.77 449.29 1129.52 444.01 C 1130.59 442.176 1131.21 440.745 1133.56 440.01 C 1152.98 433.927 1174.9 427.621 1194.3 422.109 z"/>
<path transform="translate(0,0)" fill="rgb(231,49,150)" d="M 1156.95 571.865 C 1183.37 570.393 1202.92 569.767 1229.73 567.018 C 1230.61 574.084 1231.03 578.509 1231.2 585.68 C 1223.98 585.628 1180.46 587.003 1176.27 589.265 C 1174.87 591.682 1175.07 593.615 1174.94 596.431 L 1176 598.759 C 1184.74 601.568 1215.13 598.704 1232.23 602.236 C 1232.16 607.054 1232.25 612.867 1231.88 617.592 C 1216.35 618.649 1187.79 616.395 1176.29 618.094 C 1173.35 621.8 1172.97 634.825 1159.57 628.814 C 1157.7 626.46 1157.73 626.264 1157.05 623.252 C 1157.67 611.043 1158.19 598.86 1157.23 586.659 C 1156.85 581.881 1155.68 576.476 1156.95 571.865 z"/>
<path transform="translate(0,0)" fill="rgb(231,49,150)" d="M 570.56 44.2758 C 572.291 43.9834 573.209 44.1099 574.951 44.1542 C 577.521 46.1211 578.32 48.6634 578.781 51.7668 C 581.719 71.5433 584.633 91.5409 587.33 111.335 C 562.438 117.315 566.406 109.061 564.521 87.8308 C 560.507 88.4153 557.243 88.967 553.281 89.8239 C 548.211 96.2849 557.093 102.942 555.008 114.139 C 552.933 117.212 554.081 116.199 550.018 117.67 L 536.124 118.241 C 531.482 97.4364 531.187 71.2 526.417 51.9771 C 532.065 50.3029 538.355 47.6106 543.662 50.0346 C 548.714 54.6766 547.818 63.9905 548.207 71.3101 C 552.537 70.4231 557.668 69.9559 562.126 69.4386 C 560.147 61.5284 558.507 54.9084 557.159 46.8643 L 570.56 44.2758 z"/>
<path transform="translate(0,0)" fill="rgb(231,49,150)" d="M 857.561 84.6049 C 865.851 85.0288 869.219 88.0311 876.036 92.5806 C 872.511 99.4549 869.444 105.21 865.477 111.834 C 869.395 113.711 873.793 115.501 877.817 117.229 C 882.041 108.16 882.609 104.672 889.281 97.0712 C 895.226 99.8099 898.72 101.654 904.313 105.051 C 898.188 121.819 887.016 142.608 880.119 159.458 C 878.371 163.73 877.835 164.799 874.248 166.087 C 871.863 165.065 869.494 164.007 867.14 162.913 C 854.359 156.949 865.675 143.319 870.417 134.825 C 866.693 132.738 862.123 130.569 858.259 128.608 C 855.839 134.048 853.065 146.02 848.206 149.441 C 843.404 152.821 835.308 149.813 832.141 144.624 C 830.896 138.225 853.249 93.6934 857.561 84.6049 z"/>
<path transform="translate(0,0)" fill="rgb(231,49,150)" d="M 49.3454 731.646 C 56.1629 733.203 69.2325 733.914 76.6476 734.471 C 93.6299 735.745 110.145 736.77 127.111 738.564 C 133.77 759.743 127.554 756.119 111.827 769.296 C 107.325 773.068 102.269 776.608 97.6085 780.183 C 87.2397 788.622 79.6153 794.418 68.3542 801.602 C 62.6319 784.805 62.4166 785.464 76.0673 774.587 C 74.7783 768.79 70.4206 756.993 68.3562 750.93 C 63.8266 750.728 57.986 749.968 53.3745 749.505 C 50.5301 742.943 49.1261 738.829 49.3454 731.646 z"/>
<path transform="translate(0,0)" fill="rgb(231,49,150)" d="M 534.201 1139.56 C 555.545 1142.59 569.352 1140.57 575.588 1164.45 C 572.132 1176.72 571.69 1178.88 560.427 1185.67 C 563.839 1197.05 568.04 1207.77 572.251 1218.86 C 564.669 1218.2 560.159 1218.03 552.826 1215.79 C 550.292 1211.86 546.189 1196.88 544.581 1191.56 L 543.383 1191.5 C 540.317 1197.48 544.943 1206.87 539.341 1212.8 C 535.333 1214.94 526.96 1214.03 523.994 1210.42 C 522.884 1204.71 531.882 1146.42 534.201 1139.56 z M 557.721 1168.27 C 558.741 1164.72 558.844 1166.18 557.328 1162.79 C 554.214 1160.1 552.251 1159.62 548.471 1158.23 C 547.566 1161.93 546.335 1164.74 547.773 1168.05 C 551.286 1170.13 553.481 1169.26 557.721 1168.27 z"/>
<path transform="translate(0,0)" fill="rgb(231,49,150)" d="M 88.9171 391.329 C 97.3851 394.345 131.34 433.466 146.628 443.406 C 139.894 463.568 135.142 460.131 115.712 459.131 C 112.551 458.969 108.954 458.843 105.75 458.714 C 90.9504 457.905 76.1297 457.535 61.3079 457.607 C 66.6527 441.962 66.0405 439.408 83.3426 441.308 C 86.7646 435.081 91.071 423.597 93.1055 416.828 C 88.9373 413.571 85.9402 410.957 82.0509 407.36 L 88.9171 391.329 z M 115.782 442.558 L 117.437 441.581 C 116.29 438.408 108.89 431.959 105.701 431.212 C 104.076 435.309 102.633 436.916 103.231 440.75 C 106.342 442.47 110.959 441.532 115.782 442.558 z"/>
<path transform="translate(0,0)" fill="rgb(231,49,150)" d="M 31.9721 610.498 C 40.2339 611.109 100.471 628.508 104.99 632.062 C 107.825 636.446 109.01 640.249 108.339 645.52 C 105.346 650.812 82.7724 660.216 76.2889 663.314 C 68.2941 667.314 46.579 678.689 39.3464 680.241 L 38.0447 679.181 C 36.4938 674.88 36.8634 668.789 36.8523 664.075 C 40.9686 661.491 46.1855 658.733 50.4887 656.309 C 49.7381 649.76 49.0094 641.513 47.6056 635.148 C 46.362 629.509 40.4826 630.039 35.0328 627.304 C 30.8211 622.497 31.8181 616.863 31.9721 610.498 z"/>
<path transform="translate(0,0)" fill="rgb(231,49,150)" d="M 1109.48 849.227 C 1126.24 847.824 1136.16 852.125 1137.94 870.167 C 1149 868.144 1161.04 869.455 1173.87 867.298 C 1171.71 873.001 1169.66 878.323 1167.24 883.942 C 1157.52 886.149 1146.05 885.474 1135.77 885.752 C 1144.3 890.342 1151 891.913 1159.81 897.61 C 1154.62 914.259 1153.63 914.002 1136.44 905.362 C 1128.38 901.315 1091.9 886.436 1088.77 881.346 C 1088.22 871.713 1100.58 853.636 1109.48 849.227 z"/>
<path transform="translate(0,0)" fill="rgb(231,49,150)" d="M 600.48 41.317 C 610.622 40.7957 620.879 40.7748 628.929 48.1389 C 632.89 51.724 635.188 56.7891 635.279 62.1302 C 635.372 70.3377 631.165 75.8977 625.829 81.4818 C 630.437 88.3461 642.616 101.209 636.56 108.174 C 632.751 110.12 626.901 109.662 622.447 109.674 C 618.108 106.155 612.965 95.3054 610.147 90.029 C 611.319 96.6832 613.938 103.452 609.743 108.994 C 605.72 111.293 598.153 111.237 593.25 111.565 C 593.145 99.8248 588.829 50.3681 590.295 43.3459 C 593.238 41.4552 596.846 41.6072 600.48 41.317 z M 615.35 64.4534 C 616.132 63.1964 615.764 61.5447 614.522 60.7387 C 613.28 59.9327 611.622 60.2691 610.792 61.4952 C 610.241 62.3095 610.173 63.3579 610.614 64.2366 C 611.055 65.1153 611.936 65.6873 612.918 65.7323 C 613.9 65.7772 614.83 65.2882 615.35 64.4534 z"/>
<path transform="translate(0,0)" fill="rgb(231,49,150)" d="M 723.138 46.6596 C 731.408 47.443 734.809 48.5521 742.807 50.7809 C 739.469 63.1827 736.819 82.5174 733.724 95.3933 C 733.11 97.9446 735.757 100.23 738.017 101.44 C 749.493 98.4173 745.115 62.9618 752.561 53.7732 C 754.483 51.4008 767.01 54.129 770.511 54.6707 C 770.191 61.7652 770.123 64.2356 768.223 71.2162 C 766.355 81.8217 764.954 92.5333 762.018 102.942 C 754.499 129.596 712.216 122.95 714.324 95.7143 C 715.461 81.0152 719.697 61.2399 723.138 46.6596 z"/>
<path transform="translate(0,0)" fill="rgb(231,49,150)" d="M 354.211 117.16 C 372.926 101.143 397.382 93.8811 405.872 123.83 C 405.024 127.211 404.234 129.992 403.953 133.502 C 406.14 140.871 419.163 146.6 427.804 154.208 C 420.73 158.731 413.607 165.101 405.357 160.921 C 401.155 157.099 398.893 155.102 394.229 151.932 C 396.721 156.65 399.21 161.513 401.892 166.114 C 399.756 169.042 389.759 176.921 387.131 173.969 C 373.864 159.071 364.596 135.06 354.211 117.16 z"/>
<path transform="translate(0,0)" fill="rgb(231,49,150)" d="M 1005.55 171.568 C 1011.14 171.776 1017.26 178.236 1021.71 182.077 C 1012.32 194.273 1002.44 206.052 992.357 217.711 C 990.738 219.583 990.856 221.229 991.31 223.481 C 994.177 226.088 992.79 225.525 996.478 225.736 C 1007.83 220.996 1021.23 191.767 1031.33 191.248 C 1035.72 193.156 1039.82 197.585 1043.38 200.953 L 1038.22 208.109 C 1025.5 224.182 1016.47 239.738 997.373 246.751 C 944.767 230.24 985.498 195.883 1005.55 171.568 z"/>
<path transform="translate(0,0)" fill="rgb(231,49,150)" d="M 181.051 257.546 C 186.469 259.149 213.589 306.826 219.846 315.523 C 217.124 322.055 214.564 324.741 210.079 329.995 C 196.722 325.714 181.883 319.773 168.767 316.116 C 161.365 313.293 144.733 310.896 144.619 302.404 C 146.703 298.654 150.018 293.992 154.054 292.314 C 161.332 291.348 183.896 301.262 191.162 304.87 C 185.136 294.086 171.41 281.143 171.918 269.97 C 172.15 264.861 177.424 260.797 181.051 257.546 z"/>
<path transform="translate(0,0)" fill="rgb(231,49,150)" d="M 38.7738 687.116 C 51.4989 682.657 94.4437 675.153 109.816 671.652 L 112.074 673.764 C 115.101 684.389 118.034 699.374 113.273 709.666 C 108.189 720.656 95.9753 725.317 85.2397 719.122 C 75.8674 713.713 73.8488 706.631 71.0162 697.031 C 62.7055 699.615 51.7142 701.515 42.9867 703.256 C 41.9933 697.94 40.2641 692.351 38.7738 687.116 z"/>
<path transform="translate(0,0)" fill="rgb(231,49,150)" d="M 486.263 1128.29 C 502.312 1133.35 542.004 1137.65 519.749 1171.46 C 514.189 1179.91 502.872 1176.22 494.088 1176.39 C 491.815 1178.65 492.03 1180.58 491.187 1184.18 C 490.326 1189.18 489.224 1200.28 485.497 1203.1 C 480.348 1203.4 475.724 1202.36 471.448 1199.41 C 468.765 1193.69 483.902 1140.36 486.263 1128.29 z"/>
<path transform="translate(0,0)" fill="rgb(231,49,150)" d="M 1091.19 893.074 C 1099.86 892.618 1106.09 897.095 1112.76 901.767 C 1113.26 902.915 1113.73 904.08 1114.15 905.258 C 1118.12 916.324 1115.41 921.487 1110.68 931.565 C 1118.93 936.274 1127.27 939.979 1135.59 945.083 C 1133.54 949.875 1132.18 956.863 1127.82 959.025 C 1123.11 959.026 1123.94 958.624 1119.31 956.038 C 1109.37 950.387 1072.71 931.655 1066.26 925.7 C 1065.53 923.306 1065.4 921.7 1066.93 919.209 C 1074.68 906.588 1077.06 897.868 1091.19 893.074 z M 1094.47 922.611 C 1100.24 920.606 1099.34 913.443 1095.1 909.619 C 1092.45 911.891 1089.31 913.95 1088.31 917.082 C 1089.52 920.577 1090.57 920.479 1094.47 922.611 z"/>
<path transform="translate(0,0)" fill="rgb(231,49,150)" d="M 1054.42 271.766 C 1053.77 275.839 1053.47 277.667 1053.47 281.833 C 1055.09 284.979 1054.23 284.457 1056.86 285.796 C 1061.76 279.619 1054.54 255.608 1062.8 247.495 C 1070.42 240.013 1083.52 239.443 1091.4 246.587 C 1099.48 253.914 1099.03 264.67 1099.69 274.583 C 1093.07 274.499 1085.94 274.592 1079.93 271.902 C 1080.14 268.255 1080.71 265.543 1079.04 262.411 C 1076.9 264.685 1077.52 269.002 1077.79 272.011 C 1078.76 291.412 1076.61 297.197 1058.77 305.517 C 1048.05 302.843 1041.24 299.869 1035.66 289.341 C 1032.31 283.033 1029.74 271.529 1038.37 268.257 C 1043.62 266.267 1049.52 269.659 1054.42 271.766 z"/>
<path transform="translate(0,0)" fill="rgb(231,49,150)" d="M 422.986 1109.16 C 435.286 1107.81 447.629 1113.75 453.069 1126.5 C 454.777 1130.51 447.855 1135.19 443.737 1135.14 C 437.406 1135.06 432.52 1129.23 428.123 1125.05 C 423.001 1134.34 463.087 1173.52 420.11 1183.6 C 415.34 1183.24 411.838 1182.78 407.593 1180.45 C 402.619 1177.71 388.661 1165.36 391.803 1158.84 C 399.644 1142.56 412.479 1163.58 420.325 1166.58 C 433.858 1160.98 386.82 1123.21 422.986 1109.16 z"/>
<path transform="translate(0,0)" fill="rgb(231,49,150)" d="M 1168.15 377.128 C 1180.88 378.321 1188.65 386.507 1190.62 399.094 C 1191.82 406.709 1189.96 419.307 1180.25 419.838 C 1175.69 420.087 1171.63 415.26 1168.48 412.296 C 1170.52 408.271 1172.96 406.202 1173.85 401.411 C 1173.17 398.255 1173.15 397.583 1171 395.234 C 1160.34 395.214 1160.67 423.79 1143.88 433.229 C 1129.13 435.972 1118.89 429.85 1115.65 414.114 C 1114.42 408.166 1117.63 402.282 1121.39 397.722 C 1126.66 395.229 1131.87 398.411 1135.26 402.451 C 1136.56 408.904 1130.61 412.629 1134.59 417.214 L 1137.07 417.305 C 1150.59 403.808 1138.94 382.761 1168.15 377.128 z"/>
<path transform="translate(0,0)" fill="rgb(231,49,150)" d="M 444.58 74.0235 C 447.602 73.7445 447.817 73.6445 450.658 74.5093 C 453.476 80.2719 447.74 108.573 448.9 117.135 C 449.221 124.505 456.357 131.866 456.335 138.891 C 456.319 144.169 447.125 148.819 442.385 148.371 C 436.965 145.165 432.974 131.065 429.845 123.848 C 423.273 114.861 400.291 103.94 401.771 93.6036 C 404.692 89.6893 409.138 88.1929 413.774 87.2016 C 420.581 88.2981 426.992 95.7112 432.117 100.586 C 429.866 84.8594 429.307 80.522 444.58 74.0235 z"/>
<path transform="translate(0,0)" fill="rgb(231,49,150)" d="M 162.344 327.814 C 164.73 330.534 166.609 340.483 168.809 346.011 C 174.672 348.178 184.418 351.015 187.655 356.24 C 185.294 361.195 176.218 362.357 173.536 369.551 C 171.06 376.191 170.839 380.773 170.241 387.674 L 168.763 388.257 C 161.647 385.381 158.042 382.11 151.725 377.704 C 148.122 379.6 140.668 382.697 136.6 382.616 C 129.172 379.108 135.73 367.799 138.104 361.763 C 134.188 357.11 126.244 350.146 129.966 344.48 C 135.212 341.932 142.411 342.581 148.433 342.506 C 153.088 336.481 155.942 331.979 162.344 327.814 z"/>
<path transform="translate(0,0)" fill="rgb(231,49,150)" d="M 512.664 54.2308 C 515.165 53.9413 515.849 54.0744 518.38 54.3509 C 523.716 59.0391 525.367 63.8625 522.384 70.4141 C 521.488 72.3812 515.86 74.0967 513.85 74.8195 C 519.26 90.9448 522.382 104.663 526.14 120.989 C 525.229 121.475 524.296 121.917 523.343 122.315 C 518.072 124.522 512.289 126.969 507.003 124.773 C 503.483 114.618 498.287 85.5467 494.619 80.0096 C 481.489 80.0658 482.289 73.5859 480.482 62.7117 C 489.573 61.2306 503.899 57.2186 512.664 54.2308 z"/>
<path transform="translate(0,0)" fill="rgb(231,49,150)" d="M 1045.8 205.744 C 1053.51 207.229 1070.9 227.107 1076.38 233.475 C 1072.53 237.203 1067.61 241.131 1063.45 244.62 L 1054.65 239.566 C 1046.47 247.779 1040.12 255.989 1031.32 264.028 C 1025.83 270.437 1018.02 277.341 1011.6 265.105 C 1006.69 255.747 1033.87 233.561 1041.53 226.094 L 1035.5 217.967 C 1038.36 213.495 1042.18 209.649 1045.8 205.744 z"/>
<path transform="translate(0,0)" fill="rgb(231,49,150)" d="M 45.2305 564.595 C 51.8707 566.729 53.8719 571.771 56.9865 577.61 C 54.2745 580.096 53.0554 581.01 51.1862 584.298 C 52.0768 595.842 99.1494 585.235 106.685 592.829 C 108.241 596.88 107.311 604.529 106.345 608.677 L 103.746 610.087 C 86.0202 606.028 49.7159 610.99 37.0507 598.532 C 26.9993 588.646 35.5191 573.102 45.2305 564.595 z"/>
<path transform="translate(0,0)" fill="rgb(231,49,150)" d="M 49.8265 501.507 C 58.4306 506.584 105.237 514.592 120.399 519.091 C 118.383 526.829 118.057 527.034 117.462 535.53 C 110.034 534.266 102.511 532.391 95.1581 530.685 C 83.1765 528.126 72.2231 526.287 60.5513 522.419 C 59.8449 528.624 58.4522 535.832 57.4065 542.072 C 53.3515 541.329 44.7534 540.346 42.169 537.464 C 40.9075 530.931 46.3053 507.084 49.8265 501.507 z"/>
<path transform="translate(0,0)" fill="rgb(231,49,150)" d="M 60.7922 462.369 C 71.9007 465.638 122.74 479.742 128.862 484.832 C 130.146 488.322 127.774 496.779 124.023 498.849 C 119.603 499.156 112.278 496.502 107.762 495.151 C 97.2442 492.24 80.9754 486.674 70.7974 482.84 L 70.2793 485.666 C 69.3308 490.754 69.0122 496.75 64.7942 499.639 C 61.5018 500.516 55.0621 498.562 51.1333 498.007 L 50.5391 496.7 C 51.6368 489.253 57.9097 469.692 60.7922 462.369 z"/>
<path transform="translate(0,0)" fill="rgb(231,49,150)" d="M 1099.77 313.241 C 1104.89 314.867 1107.96 320.889 1112.48 326.105 C 1120.06 325.884 1125.48 324.719 1132.88 323.342 C 1129.14 331.509 1120.13 339.369 1124.13 346.472 C 1125.72 349.296 1128.28 354.108 1128.5 356.977 L 1127.15 358.061 C 1122.59 358.436 1115.63 356.085 1110.98 354.814 C 1106.46 358.186 1101.55 363.981 1097.76 365.396 L 1095.93 364.494 C 1094.06 360.366 1094.6 354.277 1094.65 349.566 C 1090.59 346.473 1079.89 340.934 1078.88 339.422 C 1080.66 335.975 1090.88 331.859 1094.93 329.963 C 1096.84 327.583 1098.33 317.647 1099.77 313.241 z"/>
<path transform="translate(0,0)" fill="rgb(231,49,150)" d="M 196.539 240.69 C 204.292 241.904 240.294 276.84 246.261 285.606 C 247.707 287.731 238.517 296.391 236.687 298.18 C 227.373 293.877 192.232 261.12 185.344 252.456 C 188.147 248.872 193.209 244.055 196.539 240.69 z"/>
<path transform="translate(0,0)" fill="rgb(231,49,150)" d="M 956.2 1049.78 C 961.333 1051.52 996.408 1098.31 1002.78 1106.58 C 998.272 1110.38 994.385 1112.67 989.418 1115.74 L 988.445 1115.71 C 986.762 1114.72 949.021 1067.01 945.194 1061.48 C 945.976 1056.33 951.822 1053.06 956.2 1049.78 z"/>
<path transform="translate(0,0)" fill="rgb(231,49,150)" d="M 399.888 1094.41 C 404.625 1095.26 410.59 1098.8 415.016 1101.11 C 410.922 1109.37 408.942 1113.65 402.479 1120.1 C 398.789 1122.61 395.063 1125.72 391.342 1122.01 C 389.885 1115.27 396.744 1100.66 399.888 1094.41 z"/>
<path transform="translate(0,0)" fill="rgb(231,49,150)" d="M 73.712 547.3 C 77.1661 546.939 80.5455 548.474 82.5457 551.313 C 84.5459 554.152 84.854 557.851 83.351 560.982 C 81.8481 564.113 78.7693 566.187 75.303 566.402 C 70.0977 566.725 65.5892 562.827 65.1563 557.63 C 64.7234 552.432 68.525 547.843 73.712 547.3 z"/>
<path transform="translate(0,0)" fill="rgb(0,0,0)" fill-opacity="0.282353" d="M 1157.05 623.252 C 1155.84 622.851 1153.6 622.475 1153.51 621.143 C 1152.47 606.855 1151.64 587.736 1153.95 573.737 C 1154.16 572.472 1155.67 572.325 1156.95 571.865 C 1155.68 576.476 1156.85 581.881 1157.23 586.659 C 1158.19 598.86 1157.67 611.043 1157.05 623.252 z"/>
<path transform="translate(0,0)" fill="rgb(231,49,150)" fill-opacity="0.0117647" d="M 394.229 151.932 C 398.893 155.102 401.155 157.099 405.357 160.921 L 402.589 161.605 C 403.389 164.473 402.566 163.221 401.892 166.114 C 399.21 161.513 396.721 156.65 394.229 151.932 z"/>
<path transform="translate(0,0)" fill="rgb(231,49,150)" fill-opacity="0.027451" d="M 788.515 1191.72 C 787.358 1188.33 786.631 1187.88 787.196 1184.61 C 790.302 1185.46 790.472 1186.75 792.886 1189.71 L 792.423 1192.5 L 791.29 1192.6 L 789.334 1190.77 L 788.515 1191.72 z"/>
<path transform="translate(0,0)" fill="rgb(231,49,150)" fill-opacity="0.0156863" d="M 758.938 1154.33 C 758.932 1151.44 758.483 1151.73 759.776 1149.68 C 762.344 1151.41 762.722 1156.41 763.104 1159.37 C 762.086 1159.92 761.553 1160.03 760.455 1160.4 C 759.813 1158.26 759.417 1156.51 758.938 1154.33 z"/>
<path transform="translate(0,0)" fill="rgb(0,0,0)" fill-opacity="0.0196078" d="M 109.816 671.652 C 112.851 668.737 111.214 667.724 115.63 667.189 C 116.376 670.976 115.018 671.264 112.074 673.764 L 109.816 671.652 z"/>
<path transform="translate(0,0)" fill="rgb(231,49,150)" fill-opacity="0.129412" d="M 1077.79 272.011 C 1077.52 269.002 1076.9 264.685 1079.04 262.411 C 1080.71 265.543 1080.14 268.255 1079.93 271.902 L 1077.79 272.011 z"/>
<path transform="translate(0,0)" fill="rgb(231,49,150)" fill-opacity="0.0196078" d="M 720.734 1183.72 L 721.666 1181.48 C 723.824 1182.81 724.371 1185.27 725.323 1188.03 C 723.649 1188.49 724.083 1188.35 722.291 1188.29 L 720.734 1183.72 z"/>
<path transform="translate(0,0)" fill="rgb(231,49,150)" fill-opacity="0.290196" d="M 333.998 1075.99 C 335.657 1074.6 337.914 1072.27 339.896 1072.08 C 339.766 1074.78 339.941 1073.82 337.955 1076.3 L 333.998 1075.99 z"/>
</svg>