<svg width="8869" height="1714" xmlns="http://www.w3.org/2000/svg" xmlns:xlink="http://www.w3.org/1999/xlink" overflow="hidden"><defs><clipPath id="clip0"><rect x="-3802" y="-496" width="8869" height="1714"/></clipPath></defs><g clip-path="url(#clip0)" transform="translate(3802 496)"><path d="M3079.23 906.974C3007.53 906.974 2953.69 926.29 2917.7 964.956 2892.08 993.002 2879.26 1027.31 2879.26 1067.88 2879.26 1100.83 2887.04 1128.6 2902.58 1151.2 2909.39 1161.82 2919.07 1172.03 2931.61 1181.83 2961.87 1205.25 2999.36 1216.97 3044.06 1216.97 3081.41 1216.97 3113.43 1209.75 3140.15 1195.31 3149.69 1190.14 3158.41 1183.88 3166.31 1176.52L3166.31 1208.39 3255.88 1208.39 3255.88 1035.63 3083.73 1035.63 3083.73 1100.97 3158.96 1100.97C3157.6 1105.87 3156.93 1108.47 3156.93 1108.74 3152.29 1118.81 3142.74 1128.46 3128.3 1137.72 3113.85 1146.71 3096.13 1151.2 3075.13 1151.2 3044.33 1151.2 3020.89 1141.54 3004.81 1122.2 2992 1107.5 2985.59 1088.45 2985.59 1065.03 2985.59 1045.98 2989.4 1030.18 2997.03 1017.65 3004.94 1005.12 3013.52 995.457 3022.79 988.648 3038.33 977.484 3057.69 971.911 3080.86 971.911 3107.57 971.911 3128.7 980.349 3144.24 997.23L3246.47 986.208 3239.1 971.503C3234.47 963.879 3228.06 956.384 3219.88 949.032 3211.98 941.135 3202.03 934.195 3190.03 928.205 3160.87 914.047 3123.94 906.974 3079.23 906.974ZM1584.4 907.789C1516.53 907.789 1472.23 924.53 1451.51 958.022 1443.06 971.092 1438.84 985.256 1438.84 1000.5 1438.84 1015.48 1442.65 1028.82 1450.29 1040.53 1461.19 1057.41 1481.78 1070.06 1512.04 1078.5 1518.86 1080.41 1541.49 1085.17 1579.92 1092.8 1604.46 1097.15 1619.18 1100.42 1624.09 1102.6 1634.99 1107.23 1640.44 1114.18 1640.44 1123.44 1640.44 1132.97 1634.99 1140.58 1624.09 1146.3 1615.91 1150.39 1604.73 1152.43 1590.55 1152.43 1567.65 1152.43 1550.6 1148.21 1539.43 1139.78 1532.07 1134.33 1527.72 1127.66 1526.35 1119.76L1424.53 1122.2C1428.07 1145.62 1435.85 1163.86 1447.84 1176.93 1471.29 1203.62 1513.82 1216.97 1575.42 1216.97 1647.94 1216.97 1696.72 1201.31 1721.8 1170 1734.61 1154.2 1741.02 1135.96 1741.02 1115.27 1741.02 1095.12 1734.61 1078.65 1721.8 1065.85 1710.62 1053.87 1690.72 1044.47 1662.1 1037.66 1652.83 1035.48 1637.17 1032.22 1615.09 1027.86 1593.28 1023.5 1577.19 1019.96 1566.83 1017.24 1556.74 1014.25 1549.53 1010.98 1545.17 1007.44 1540.81 1003.9 1538.61 999.54 1538.61 994.363 1538.61 988.646 1540.81 984.016 1545.17 980.474 1553.07 973.94 1566 970.673 1584 970.673 1608.81 970.673 1624.62 976.536 1631.44 988.242 1631.71 988.787 1632.94 991.921 1635.12 997.638L1736.11 991.924C1732.03 966.6 1720.84 947.265 1702.58 933.922 1693.86 927.388 1684.47 922.486 1674.38 919.219 1651.75 911.593 1621.75 907.789 1584.4 907.789ZM263.878 920.031 333.798 1208.39 445.436 1208.39 491.228 1028.67 536.224 1208.39 647.03 1208.39 716.541 920.031 615.957 920.031 584.462 1105.06 545.206 920.031 439.715 920.031 396.774 1105.87 364.887 920.031ZM737.995 920.031 737.995 1208.39 841.856 1208.39 841.856 1103.41 896.648 1103.41 956.347 1208.39 1070.43 1208.39 998.473 1093.2C1010.46 1090.21 1019.46 1086.94 1025.45 1083.4 1051.62 1068.97 1064.71 1045.02 1064.71 1011.53 1064.71 992.74 1059.8 975.442 1049.99 959.651 1039.35 943.041 1026.13 932.293 1010.32 927.392 994.513 922.49 974.615 920.031 950.625 920.031ZM1098.92 920.031 1098.92 1208.39 1407.22 1208.39 1407.22 1143.05 1202.37 1143.05 1202.37 1096.88 1388.41 1096.88 1388.41 1031.95 1202.37 1031.95 1202.37 984.564 1403.55 984.564 1403.55 920.031ZM1755.74 920.031 1755.74 984.564 1858.38 984.564 1858.38 1208.39 1962.24 1208.39 1962.24 984.564 2064.47 984.564 2064.47 920.031ZM2086.83 920.031 2086.83 1208.39 2338.31 1208.39 2338.31 1138.15 2190.69 1138.15 2190.69 920.031ZM2361.32 920.031 2361.32 1208.39 2464.77 1208.39 2464.77 920.031ZM2517.79 920.031 2517.79 1208.39 2620.03 1208.39 2620.03 1053.99 2757 1208.39 2842.88 1208.39 2842.88 920.031 2741.05 920.031 2741.05 1071.97 2603.25 920.031ZM841.856 985.376 927.72 985.376C941.895 985.376 951.709 989.334 957.161 997.23 960.159 1001.32 961.661 1006.22 961.661 1011.93 961.661 1018.2 959.756 1023.64 955.939 1028.27 950.213 1035.07 938.092 1038.47 919.553 1038.47L841.856 1038.47Z" fill="#AD2230" fill-rule="evenodd"/><path d="M-3523.29-495.396-3801.72 813.295-3397.51 813.295-3119.09-495.396ZM-3015.29-495.396-3293.72 813.295-2889.51 813.295-2774.73 271.259-2623.29 813.295-2209.32 813.295-1828.33 271.259-1943.13 813.295-1538.92 813.295-1260.49-495.396-1755.06-495.396-2304.58 287.13-2521.94-495.396ZM-1156.7-495.396-1435.13 813.295-1030.92 813.295-928.348 332.299-237.178 332.299C-211.534 329.855-182.22 323.754-155.355 317.65L184.127-163.331C209.771-413.594 69.3213-483.187-58.8958-495.396ZM526.037-495.396-675.562 1207.61-168.784 1207.61 631.07 77.1588 833.767 813.295 1341.77 813.295 977.869-495.396ZM1871.76-495.396 1865.64-494.174C1600.65-447.784 1495.64-207.283 1455.34-14.3981L1382.08 332.299C1340.56 525.182 1342.99 765.682 1588.44 812.074L1594.55 813.295 2551.92 813.295 2558.04 812.074C2810.81 768.126 2920.71 532.519 2967.12 342.075L2984.21 274.926 2581.23 274.926 2565.35 335.964C2543.37 421.42 2523.85 454.389 2515.3 466.598L1776.5 466.598C1772.84 455.612 1767.95 421.414 1787.49 331.076L1860.75-15.6206C1880.29-105.961 1898.61-140.14 1907.16-151.126L2645.95-151.126C2649.62-138.917 2654.51-104.744 2639.86-20.5108L2630.08 40.529 3033.06 40.529 3045.27-26.6031C3105.1-368.425 2963.46-469.758 2834.01-494.174L2829.12-495.396ZM3211.34-495.396 3136.86-149.903 3643.63-149.903 3439.71 813.295 3842.68 813.295 4047.84-149.903 4554.62-149.903 4627.88-495.396ZM4723.13-495.396 4643.76-116.939 4571.71 437.283 4817.16 437.283 4990.56-134.033 5066.28-495.396ZM-826.983-149.903-202.981-149.903C-202.981-138.917-202.981-118.171-211.54-80.3262-218.866-44.9226-226.179-25.3862-231.065-14.3981L-855.083-14.3981ZM4510.66 510.545 4445.93 813.295 4786.64 813.295 4850.14 510.545Z" fill-rule="evenodd"/></g></svg>