<svg xmlns:dc="http://purl.org/dc/elements/1.1/" xmlns:cc="http://creativecommons.org/ns#" xmlns:rdf="http://www.w3.org/1999/02/22-rdf-syntax-ns#" xmlns:svg="http://www.w3.org/2000/svg" xmlns="http://www.w3.org/2000/svg" xmlns:sodipodi="http://sodipodi.sourceforge.net/DTD/sodipodi-0.dtd" xmlns:inkscape="http://www.inkscape.org/namespaces/inkscape" version="1.1" id="svg8" sodipodi:docname="Jim Crockett Promotions Logo.svg" inkscape:version="0.92.3 (2405546, 2018-03-11)" viewBox="33.05 47.4 198.47 169.8">
  <title id="title1405">Jim Crockett Promotions Logo</title>
  <defs id="defs2"/>
  <sodipodi:namedview id="base" pagecolor="#ffffff" bordercolor="#666666" borderopacity="1.0" inkscape:pageopacity="0.0" inkscape:pageshadow="2" inkscape:zoom="0.476" inkscape:cx="500" inkscape:cy="500" inkscape:document-units="px" inkscape:current-layer="layer1" showgrid="false" units="px" inkscape:pagecheckerboard="true" inkscape:showpageshadow="false" inkscape:window-width="1366" inkscape:window-height="705" inkscape:window-x="-8" inkscape:window-y="-8" inkscape:window-maximized="1" inkscape:snap-intersection-paths="false" inkscape:snap-smooth-nodes="true" inkscape:snap-midpoints="false" inkscape:object-paths="false" inkscape:snap-global="true"/>
  <metadata id="metadata5">
    <rdf:RDF>
      <cc:Work rdf:about="">
        <dc:format>image/svg+xml</dc:format>
        <dc:type rdf:resource="http://purl.org/dc/dcmitype/StillImage"/>
        <dc:title>Jim Crockett Promotions Logo</dc:title>
      </cc:Work>
    </rdf:RDF>
  </metadata>
  <g inkscape:label="Layer 1" inkscape:groupmode="layer" id="layer1" transform="translate(0,-32.41665)">
    <g id="g2412">
      <path id="path1388" d="m 114.43442,79.825944 v 9.235658 22.043098 c 3e-5,5.41557 -4.39016,9.80575 -9.80573,9.80573 -5.415564,2e-5 -9.805748,-4.39016 -9.805748,-9.80573 0,-5.41557 4.390184,-9.80575 9.805748,-9.80575 2.2225,0 4.2653,0.74851 5.90986,1.99475 V 87.710155 c -1.8914,-0.476286 -3.87063,-0.732162 -5.90986,-0.732139 -13.324417,4.41e-4 -24.125708,10.802267 -24.125476,24.126684 -2.32e-4,13.32442 10.801059,24.12625 24.125476,24.12667 13.32489,2.3e-4 24.1269,-10.80178 24.12667,-24.12667 V 79.825944 Z" style="opacity:1;fill:#2f0a69;fill-opacity:1;fill-rule:nonzero;stroke:none;stroke-width:35.60962677;stroke-linecap:round;stroke-linejoin:miter;stroke-miterlimit:50;stroke-dasharray:none;stroke-dashoffset:0;stroke-opacity:1" inkscape:connector-curvature="0"/>
      <path inkscape:connector-curvature="0" style="opacity:1;fill:#2f0a69;fill-opacity:1;fill-rule:nonzero;stroke:none;stroke-width:35.60962677;stroke-linecap:round;stroke-linejoin:miter;stroke-miterlimit:50;stroke-dasharray:none;stroke-dashoffset:0;stroke-opacity:1" d="m 184.08012,117.33379 h -9.23564 -22.0431 c -5.41556,3e-5 -9.80575,-4.39016 -9.80575,-9.80573 0,-5.41557 4.39019,-9.805748 9.80575,-9.805725 5.41557,-2.3e-5 9.80576,4.390155 9.80573,9.805725 3e-5,2.22252 -0.74851,4.2653 -1.99475,5.90986 h 15.58357 c 0.47629,-1.89137 0.73216,-3.87063 0.73214,-5.90986 -4.4e-4,-13.324417 -10.80227,-24.125708 -24.12669,-24.125476 -13.32442,-2.32e-4 -24.12624,10.801059 -24.12668,24.125476 -2.4e-4,13.32489 10.8018,24.12692 24.12668,24.12669 h 31.27874 z" id="path1401"/>
      <path id="path1403" d="m 121.99672,182.12296 v -9.23563 -22.04311 c -2e-5,-5.41556 4.39014,-9.80575 9.80573,-9.80575 5.41557,0 9.80575,4.39019 9.80573,9.80575 2e-5,5.41557 -4.39019,9.80576 -9.80576,9.80573 -2.22249,3e-5 -4.26527,-0.74851 -5.90985,-1.99475 l 2e-5,15.58357 c 1.89135,0.47629 3.87061,0.73216 5.90983,0.73214 13.32445,-4.4e-4 24.12574,-10.80227 24.12548,-24.12669 2.6e-4,-13.32442 -10.80103,-24.12624 -24.12548,-24.12668 -13.32486,-2.4e-4 -24.12689,10.8018 -24.12666,24.12668 l -2e-5,31.27874 z" style="opacity:1;fill:#2f0a69;fill-opacity:1;fill-rule:nonzero;stroke:none;stroke-width:35.60962677;stroke-linecap:round;stroke-linejoin:miter;stroke-miterlimit:50;stroke-dasharray:none;stroke-dashoffset:0;stroke-opacity:1" inkscape:connector-curvature="0"/>
      <rect y="241.78241" x="33.072918" height="7.80828" width="198.4375" id="rect1407" style="opacity:1;fill:#2f0a69;fill-opacity:1;fill-rule:nonzero;stroke:none;stroke-width:31.5083046;stroke-linecap:round;stroke-linejoin:miter;stroke-miterlimit:50;stroke-dasharray:none;stroke-dashoffset:0;stroke-opacity:1"/>
      <path inkscape:connector-curvature="0" id="path1414" d="m 95.075447,214.59184 c -6.089597,0 -6.788407,4.7519 -6.788407,10.43946 0,5.68757 0.69881,10.44065 6.788407,10.44065 6.089623,0 6.789593,-4.75308 6.789593,-10.44065 0,-5.68756 -0.69997,-10.43946 -6.789593,-10.43946 z m 36.707313,0 c -6.0896,0 -6.78841,4.75429 -6.78841,10.44186 0,5.68756 0.69881,10.43825 6.78841,10.43825 6.08962,0 6.78959,-4.75069 6.78959,-10.43825 0,-5.68757 -0.69997,-10.44186 -6.78959,-10.44186 z m 36.53207,0 c -6.08957,0 -6.7884,4.75429 -6.7884,10.44186 0,5.68756 0.69883,10.43825 6.7884,10.43825 6.08962,0 6.78962,-4.75069 6.78962,-10.43825 0,-5.68757 -0.7,-10.44186 -6.78962,-10.44186 z m 31.59201,0 c -6.64961,-0.10614 -6.64799,4.84492 -6.64799,5.70101 0,2.79257 1.34293,4.49038 3.55864,5.40816 2.21572,0.91778 5.78021,1.66365 5.78021,3.98111 0,1.42849 -0.30697,2.96693 -3.01251,2.96693 -2.70557,0 -2.66569,-3.4662 -2.66569,-3.4662 h -3.71706 c 0,0 -0.45267,6.3549 6.62877,6.29031 6.59654,-0.0602 6.52438,-4.97661 6.52438,-6.30111 0,-1.32453 -0.62843,-3.90759 -3.99672,-5.11292 -2.51409,-0.89967 -5.21731,-1.6705 -5.21731,-3.67026 0,-1.38076 0.42802,-2.97053 2.56484,-2.97053 2.50757,0 2.47004,2.81812 2.47004,2.81812 h 3.49142 c 0,0 0.69168,-5.54168 -5.76102,-5.64462 z m -135.297608,0.43448 c -0.989547,-0.0209 -1.949807,0.036 -2.750879,0.036 h -3.630639 v 19.98235 h 3.630639 v -8.26225 c 1.872002,0 8.952377,0.75492 8.952377,-5.93267 0,-5.01569 -3.232879,-5.76313 -6.201498,-5.82343 z m 14.888638,0 c -0.989524,-0.0209 -1.949807,0.036 -2.750879,0.036 h -3.630639 v 19.98235 h 3.630639 v -8.92718 c 1.756408,0 2.90015,-0.0996 3.714669,0.23765 1.044917,0.43283 1.321417,1.50218 1.321417,2.32961 v 6.35992 h 3.630639 1.012982 c -0.453362,-0.55042 -1.012982,-1.53939 -1.012982,-2.284 v -4.13113 c 0,-0.91072 -0.873326,-3.51662 -2.794078,-3.51662 1.653797,-0.67584 3.079729,-1.58552 3.079729,-4.47679 0,-5.0157 -3.232878,-5.54949 -6.201497,-5.60981 z m 25.03044,0.0163 v 5.34215 14.6402 h 3.63064 V 219.6178 l 3.70266,15.40713 h 3.11696 l 3.70266,-15.40713 v 15.40713 h 3.63064 v -14.6402 -5.34215 h -3.63064 -2.2024 l -2.8409,13.74004 h -0.43567 l -2.8409,-13.74004 h -2.20241 z m 35.41349,0 v 3.11696 h 4.60523 v 16.86539 h 3.63064 v -16.86539 h 4.6052 v -3.11696 h -4.6052 -3.63064 z m 15.09388,0 v 19.98235 h 3.63064 v -19.98235 z m 22.5352,0 v 19.98235 h 3.63064 v -12.96951 h 0.59771 l 4.81644,12.96951 h 4.51881 v -19.98235 h -3.63064 v 12.96951 h -0.59771 l -4.81646,-12.96951 z m -82.495433,2.37641 c 2.878642,0 3.209351,3.46672 3.209351,7.61536 0,4.14863 -0.330709,7.61535 -3.209351,7.61535 -2.878666,0 -3.208167,-3.46672 -3.208167,-7.61535 0,-4.14862 0.329501,-7.61536 3.208167,-7.61536 z m 36.707313,0 c 2.87864,0 3.20937,3.46674 3.20937,7.61536 0,4.14863 -0.33073,7.61535 -3.20937,7.61535 -2.87867,0 -3.20817,-3.46672 -3.20817,-7.61535 0,-4.14862 0.3295,-7.61536 3.20817,-7.61536 z m 36.53207,0 c 2.87865,0 3.20938,3.46674 3.20938,7.61536 0,4.14863 -0.33073,7.61535 -3.20938,7.61535 -2.87866,0 -3.20816,-3.46672 -3.20816,-7.61535 0,-4.14862 0.3295,-7.61536 3.20816,-7.61536 z m -90.733694,0.0186 v 10e-4 c 1.502112,-0.0163 4.506799,0.31206 4.506799,3.21177 0,3.86626 -5.340944,3.16257 -5.340944,3.16257 v -3.16257 -3.16255 c 0,0 0.333426,-0.0448 0.834145,-0.0504 z m -14.082107,0.0288 c 1.770738,0.036 3.700246,0.48161 3.700269,3.47341 0,3.98901 -4.22433,3.53943 -5.340945,3.53943 v -6.99124 c 0.477843,0 1.050491,-0.0334 1.640676,-0.0209 z" style="opacity:1;fill:#2f0a69;fill-opacity:1;fill-rule:nonzero;stroke:none;stroke-width:38.65274811;stroke-linecap:round;stroke-linejoin:miter;stroke-miterlimit:50;stroke-dasharray:none;stroke-dashoffset:0;stroke-opacity:1"/>
      <path inkscape:connector-curvature="0" id="path1509" d="m 105.07084,188.52204 c -6.089599,0 -6.788409,4.75308 -6.788409,10.44064 0,5.68756 0.69881,10.44065 6.788409,10.44065 5.16385,0 6.44759,-3.42266 6.71998,-7.9298 h -4.18515 c -0.18929,2.9413 -0.26716,5.1045 -2.53483,5.1045 -2.87869,0 -3.20817,-3.46671 -3.20817,-7.61535 0,-4.14861 0.32948,-7.61535 3.20817,-7.61535 2.03267,0 2.18317,1.74454 2.45563,4.22115 h 4.19474 c -0.392,-4.06338 -1.82929,-7.04644 -6.65037,-7.04644 z m 30.92227,0 c -6.0896,0 -6.78841,4.75308 -6.78841,10.44064 0,5.68756 0.69881,10.44065 6.78841,10.44065 6.08962,0 6.78961,-4.75309 6.78961,-10.44065 0,-5.68756 -0.69999,-10.44064 -6.78961,-10.44064 z m 15.80442,0 c -6.08962,0 -6.78841,4.75308 -6.78841,10.44064 0,5.68756 0.69879,10.44065 6.78841,10.44065 5.16385,0 6.44759,-3.42266 6.71998,-7.9298 h -4.18394 c -0.18929,2.9413 -0.26839,5.1045 -2.53604,5.1045 -2.87867,0 -3.20819,-3.46671 -3.20819,-7.61535 0,-4.14861 0.32952,-7.61535 3.20819,-7.61535 2.03265,0 2.18436,1.74454 2.45682,4.22115 h 4.19356 c -0.39203,-4.06338 -1.82932,-7.04644 -6.65038,-7.04644 z m -94.831223,0.17767 v 12.71986 3.02213 c 0,1.75334 -1.048145,2.16518 -1.986341,2.16518 -2.418173,0 -2.031955,-3.9871 -2.031955,-3.9871 h -3.172168 c -0.09834,4.95175 1.829917,6.60717 5.204123,6.60717 5.970155,0 5.616987,-5.22094 5.616987,-5.22094 v -2.58644 -12.71986 z m 63.295613,0.25683 c -0.98953,-0.0209 -1.94981,0.036 -2.75088,0.036 h -3.63064 v 19.98235 h 3.63064 v -8.9272 c 1.75641,0 2.90015,-0.0985 3.71467,0.23885 1.04491,0.43283 1.32141,1.50097 1.32141,2.3284 v 6.35995 h 3.63064 1.01299 c -0.45337,-0.5504 -1.01299,-1.53939 -1.01299,-2.284 v -4.12994 c 0,-0.9107 -0.87332,-3.51784 -2.7941,-3.51784 1.6538,-0.67586 3.07975,-1.58551 3.07975,-4.47679 0,-5.01569 -3.23287,-5.54946 -6.20149,-5.6098 z m -56.195164,0.0163 v 19.98234 h 3.630639 V 188.9728 Z m 6.937235,0 v 5.34215 14.64019 h 3.630639 v -15.40712 l 3.702662,15.40712 h 3.116937 l 3.702661,-15.40712 v 15.40712 h 3.630663 V 194.31495 188.9728 H 85.15689 82.954506 l -2.840902,13.74004 H 79.677916 L 76.837015,188.9728 H 74.63463 Z m 89.713519,0 v 19.98234 h 3.63063 v -5.88704 l 1.86513,-2.17359 4.35558,8.06063 h 3.63064 l -5.6926,-11.3492 5.52096,-8.63314 h -3.77345 l -5.22575,7.79419 h -0.68051 v -5.36975 -2.42444 z m 15.28591,0 v 19.98234 h 3.63063 7.2673 v -3.11696 h -7.2673 v -5.31574 h 6.7536 v -3.11694 h -6.7536 v -5.31574 h 7.2673 v -3.11696 h -7.2673 z m 12.16895,0 v 3.11696 h 4.60523 v 16.86538 h 3.63063 V 192.0898 h 4.60521 v -3.11696 h -4.60521 -3.63063 z m 13.79764,0 v 3.11696 h 4.60523 v 16.86538 h 3.63064 V 192.0898 h 4.6052 v -3.11696 h -4.6052 -3.63064 z m -65.9769,2.37523 c 2.87864,0 3.20937,3.46673 3.20937,7.61535 0,4.14864 -0.33073,7.61656 -3.20937,7.61656 -2.87867,0 -3.20817,-3.46792 -3.20817,-7.61656 0,-4.14862 0.3295,-7.61535 3.20817,-7.61535 z m -17.64793,0.0209 c 1.50216,-0.0163 4.5068,0.31211 4.5068,3.21177 0,3.86628 -5.34094,3.16257 -5.34094,3.16257 v -3.16257 -3.16255 c 0,0 0.33345,-0.0437 0.83414,-0.0492 z" style="opacity:1;fill:#2f0a69;fill-opacity:1;fill-rule:nonzero;stroke:none;stroke-width:30.36797142;stroke-linecap:round;stroke-linejoin:miter;stroke-miterlimit:50;stroke-dasharray:none;stroke-dashoffset:0;stroke-opacity:1"/>
    </g>
  </g>
</svg>