<?xml version="1.0" encoding="UTF-8"?>
<svg id="Lucha_Underground_logo" xmlns="http://www.w3.org/2000/svg" version="1.1" viewBox="0 0 175.9 51.5">
  <!-- Generator: Adobe Illustrator 30.0.0, SVG Export Plug-In . SVG Version: 2.1.1 Build 123)  -->
  <defs>
    <style>
      .st0 {
        fill: #e31717;
      }

      .st1 {
        fill: #e3ded1;
      }
    </style>
  </defs>
  <g id="Group_10">
    <path id="Path_77" class="st1" d="M117.5,0v8.7h-2.5V0h-58.7v14.6l-2.5.5V0h-16.8v18.1l-12.4,2.3V.1H6.4v42.1l32.3-6.6h0s32.7-6.7,32.7-6.7h28.2l15.3,3.1v-10.4h2.5v10.7l16,3.3h0l15,3.1v-11.3h2.8v11.9l18.1,3.7V0h-51.9Z"/>
    <path id="Path_78" class="st1" d="M29.8,42.9v6.5h-2.8v-6.5h-2.4v8.7h7.7v-8.7h-2.4Z"/>
    <path id="Path_79" class="st1" d="M41.8,42.9v4l-3-2.9v-1h-2.4v8.7h2.4v-4l3,2.9v1h2.4v-8.7h-2.4Z"/>
    <path id="Path_80" class="st1" d="M50.8,45.1h2.1l.8.7v2.8l-.8.7h-2.1v-4.3ZM48.4,42.9v8.7h5.4l2.3-2.3v-4.1l-2.3-2.3h-5.4Z"/>
    <path id="Path_81" class="st1" d="M60.9,42.9v8.7h6.5v-2.2h-4.1v-1.1h3.2v-2.2h-3.2v-1h4v-2.2h-6.5Z"/>
    <path id="Path_82" class="st1" d="M74.8,45.1h2.4v1.8h-2.4v-1.8ZM72.4,42.9v8.7h2.4v-2.4h1l1.4,2.4h2.5l-1.4-2.4h1.4v-6.2h-7.2Z"/>
    <path id="Path_83" class="st1" d="M84.3,42.9v8.7h7.2v-4.8h-3.4v1.4h1v1.2h-2.3v-4.3h4.8v-2.2h-7.2Z"/>
    <path id="Path_84" class="st1" d="M98.6,45.1h2.4v1.8h-2.4v-1.8ZM96.2,42.9v8.7h2.4v-2.4h1l1.4,2.4h2.5l-1.4-2.4h1.4v-6.2h-7.2Z"/>
    <path id="Path_85" class="st1" d="M110.4,45.1h2.8v4.3h-2.8v-4.3ZM107.9,51.5h7.7v-8.7h-7.7v8.7Z"/>
    <path id="Path_86" class="st1" d="M125.1,42.9v6.5h-2.8v-6.5h-2.4v8.7h7.7v-8.7h-2.4Z"/>
    <path id="Path_87" class="st1" d="M137.1,42.9v4l-3-2.9v-1h-2.4v8.7h2.4v-4l3,2.9v1h2.4v-8.7h-2.4Z"/>
    <path id="Path_88" class="st1" d="M146.1,45.1h2.1l.8.7v2.8l-.8.7h-2.1v-4.3ZM143.7,42.9v8.7h5.4l2.3-2.3v-4.1l-2.3-2.3h-5.4Z"/>
    <path id="Path_89" class="st0" d="M23,1.7h-14.9v38.5l29-5.9v-14.6l-14.1,2.6V1.7Z"/>
    <path id="Path_90" class="st0" d="M57.9,15.9l-5.8,1.1V1.6h-13.6v32.4l32.1-6.5V1.6h-12.7v14.3Z"/>
    <path id="Path_91" class="st0" d="M119.4,10.3h-6V1.6h-12.8v25.9l12.8,2.6v-10.1h6v11l12.8,2.6V1.6h-12.8v8.7Z"/>
    <path id="Path_92" class="st0" d="M147.2,12.6h6v3.4h-6v-3.4ZM133.6,1.8v32.2l13.6,2.8v-10.9h6v12.1l14.9,3V1.8h-34.5Z"/>
    <path id="Path_93" class="st0" d="M72.2,27.4h27v-11.3h-15.5v-3.6h15.5V1.6h-27s0,25.7,0,25.7Z"/>
    <path id="Path_94" class="st1" d="M20.4,4.3h-9.8v32.8l23.9-4.9v-9.4l-14.1,2.6V4.3Z"/>
    <path id="Path_95" class="st1" d="M60.5,18.1l-10.9,2V4.2h-8.4v26.7l26.9-5.5V4.2h-7.6v13.9Z"/>
    <path id="Path_96" class="st1" d="M122,12.9h-11.1V4.2h-7.6v21.2l7.6,1.6v-9.5h11.1v11.5l7.6,1.6V4.2h-7.6v8.7Z"/>
    <path id="Path_97" class="st1" d="M155.7,18.6h-11.1v-8.5h11.1v8.5ZM136.2,4.3v27.5l8.4,1.7v-10.4h11.1v12.6l9.8,2V4.3h-29.4Z"/>
    <path id="Path_98" class="st1" d="M74.8,24.8h21.9v-6.2h-15.5v-8.7h15.5v-5.8h-21.9s0,20.6,0,20.6Z"/>
    <path id="Path_99" d="M19.7,5h-8.4v31.3l22.6-4.6v-8l-14.1,2.6V5Z"/>
    <path id="Path_100" d="M61.2,18.6l-12.2,2.2V4.8h-7.1v25.2l25.6-5.2V4.8h-6.3v13.8Z"/>
    <path id="Path_101" d="M122.6,13.5h-12.5V4.8h-6.3v20l6.3,1.3v-9.3h12.5v11.6l6.3,1.3V4.8h-6.3v8.7Z"/>
    <path id="Path_102" d="M143.9,9.4h12.5v9.9h-12.5v-9.9ZM136.8,5v26.3l7.1,1.4v-10.2h12.5v12.7l8.4,1.7V5h-28Z"/>
    <path id="Path_103" d="M75.4,4.8v19.3h20.5v-4.8h-15.5v-10h15.5v-4.4h-20.5Z"/>
    <path id="Path_104" d="M19.7,5h-8.4v31.3l22.6-4.6v-8l-14.1,2.6V5Z"/>
    <path id="Path_105" d="M61.2,18.6l-12.2,2.2V4.8h-7.1v25.2l25.6-5.2V4.8h-6.3v13.8Z"/>
    <path id="Path_106" d="M122.6,13.5h-12.5V4.8h-6.3v20l6.3,1.3v-9.3h12.5v11.6l6.3,1.3V4.8h-6.3v8.7Z"/>
    <path id="Path_107" d="M143.9,9.4h12.5v9.9h-12.5v-9.9ZM136.8,5v26.3l7.1,1.4v-10.2h12.5v12.7l8.4,1.7V5h-28Z"/>
    <path id="Path_108" d="M75.4,4.8v19.3h20.5v-4.8h-15.5v-10h15.5v-4.4h-20.5Z"/>
  </g>
  <path class="st1" d="M175.7,2.1c0,1.2-1,2.2-2.2,2.2s-2.2-1-2.2-2.2S172.2,0,173.5,0s2.2,1,2.2,2.1ZM171.8,2.1c0,1,.7,1.7,1.7,1.7s1.6-.8,1.6-1.7-.7-1.7-1.7-1.7-1.7.8-1.7,1.7ZM173.1,3.3h-.5V1.1c.2,0,.5,0,.8,0s.6,0,.7.2c.1,0,.2.3.2.5s-.2.4-.4.5h0c.2.1.3.3.4.5,0,.3.1.5.2.5h-.5c0,0-.1-.3-.2-.5,0-.2-.2-.3-.4-.3h-.2v.9ZM173.1,2.1h.2c.3,0,.5,0,.5-.3s-.1-.3-.5-.3-.2,0-.3,0v.6Z"/>
</svg>