<svg version="1.1" xmlns="http://www.w3.org/2000/svg" style="display: block;" viewBox="0 0 2048 1152" width="640" height="360" preserveAspectRatio="none">
<defs>
	<linearGradient id="Gradient1" gradientUnits="userSpaceOnUse" x1="1499.06" y1="525.285" x2="1511.48" y2="510.626">
		<stop class="stop0" offset="0" stop-opacity="0" stop-color="rgb(0,0,0)"/>
		<stop class="stop1" offset="1" stop-opacity="0.0823529" stop-color="rgb(0,0,0)"/>
	</linearGradient>
	<linearGradient id="Gradient2" gradientUnits="userSpaceOnUse" x1="1535.28" y1="567.351" x2="1526.83" y2="646.468">
		<stop class="stop0" offset="0" stop-opacity="0" stop-color="rgb(0,0,0)"/>
		<stop class="stop1" offset="1" stop-opacity="0.0352941" stop-color="rgb(0,0,0)"/>
	</linearGradient>
</defs>
<path transform="translate(0,0)" fill="rgb(0,0,0)" d="M 631.096 423.49 C 635.333 409.862 645.3 388.985 651.901 376.696 C 692.963 301.967 754.817 240.751 829.967 200.465 C 927.102 149.379 1050.37 140.329 1155.03 173.262 C 1258.03 205.672 1349.09 280.773 1400.37 376.161 C 1416.37 405.941 1432.69 446.073 1439.54 479.005 C 1443.91 477.819 1460.46 455.267 1469.51 450.352 C 1495.9 436.01 1522.02 446.096 1549.26 450.235 C 1572.78 453.809 1573.54 450.076 1592.86 465.282 C 1595.67 461.563 1606.47 449.319 1607.47 445.827 C 1613.93 423.329 1601.16 380.086 1634.33 374.145 C 1660.63 369.866 1682.03 413.035 1684.34 434.6 C 1686.14 451.471 1683.98 473.847 1681.36 490.738 C 1730.91 524.047 1724.67 552.259 1721.6 606.948 C 1721.16 614.954 1706.29 625.972 1716.32 631.9 C 1718.12 633.045 1721.81 634.974 1723.78 633.882 C 1744.55 622.401 1752.47 607.762 1778.05 624.304 C 1802.05 640.124 1831.16 664.336 1838.43 694.858 C 1839.48 699.491 1840.2 704.196 1840.56 708.934 C 1865.07 709.496 1889.16 709.216 1913.57 709.553 C 1913.66 722.904 1914.06 738.15 1913.48 751.31 C 1870.26 752.356 1823.73 751.482 1780.25 751.49 L 1534.33 751.717 C 1508.06 751.743 1481.76 751.788 1455.49 751.666 C 1449.72 751.639 1420.49 750.566 1416.25 751.37 C 1373.47 849.016 1290.54 932.476 1192.09 973.609 C 1088.02 1017.05 971.033 1017.77 866.442 975.603 C 766.198 934.23 678.838 852.198 636.962 751.57 C 632.358 749.523 578.11 750.95 567.918 751.003 L 429.816 751.377 C 333.447 751.507 233.662 750.195 137.592 752.019 L 137.784 709.175 C 151.141 709.564 165.451 709.315 178.895 709.288 C 181.07 615.058 177.796 517.917 179.347 423.23 C 188.562 424.115 206.519 423.605 216.224 423.604 L 285.777 423.594 L 510.547 423.682 C 510.01 518.411 511.937 614.529 510.489 709.072 C 516.235 709.052 522.229 709.297 527.992 709.447 C 528.745 678.658 528.258 646.263 528.254 615.378 L 528.387 423.309 C 537.293 424.226 563.509 423.734 573.387 423.615 C 590.786 423.406 614.275 424.57 631.096 423.49 z M 655.122 752.127 L 654.678 751.639 C 650.449 750.811 641.604 751.412 636.962 751.57 C 678.838 852.198 766.198 934.23 866.442 975.603 C 971.033 1017.77 1088.02 1017.05 1192.09 973.609 C 1290.54 932.476 1373.47 849.016 1416.25 751.37 C 1410.9 751.044 1404.13 751.2 1398.67 751.172 C 1383.77 751.121 1361.99 750.345 1347.64 751.267 C 1342.46 751.186 1334.46 750.719 1329.67 751.892 C 1324.93 750.539 1281.8 751.124 1275.04 751.41 C 1270.05 750.995 1263.22 751.215 1258.07 751.231 C 1238.31 750.995 1218.55 750.984 1198.8 751.198 C 1193.02 751.104 1187.15 750.77 1181.48 751.83 C 1161.48 749.607 1134.57 752.011 1113.58 751.299 L 1096.75 751.208 C 1089.79 750.711 1080.07 751.159 1072.87 751.306 C 1072.32 758.999 1072.15 771.739 1062.17 772.924 C 1052.48 771.01 1052.86 758.688 1052.75 751.154 C 1048.87 750.487 1040.16 751.144 1035.88 751.333 L 1019.15 751.353 C 1014.27 750.498 1003.4 751.111 998.063 751.277 C 994.799 751.267 977.398 750.888 975.673 752.007 C 971.603 750.18 964.179 751.036 959.639 751.367 C 954.456 751.161 950.558 750.993 945.329 751.373 C 942.541 754.348 945.927 756.398 943.568 761.352 C 941.228 761.031 932.532 753.736 929.78 751.648 C 907.335 750.446 875.109 751.366 852.264 751.585 C 846.191 750.199 809.053 751.196 801.441 751.503 C 796.12 751.134 789.464 751.335 784.036 751.351 C 774.793 750.249 741.593 751.133 731.172 751.213 C 725.677 751.173 719.897 751.443 714.383 751.61 C 707.074 750.574 660.899 750.409 655.122 752.127 z M 776.356 423.774 C 781.808 423.912 787.262 424.01 792.716 424.067 C 807.263 423.705 822.621 424.308 836.643 423.818 C 845.758 425.241 864.379 424.948 874.435 425.136 C 873.985 441.125 873.788 457.12 873.842 473.115 C 879.176 473.945 887.794 475.021 892.785 476.343 C 892.762 459.45 892.58 442.557 892.237 425.667 C 888.05 425.728 883.694 425.459 879.496 425.267 C 904.223 425.229 929.462 425.416 954.132 424.976 C 962.406 423.474 986.633 424.712 996.456 424.813 C 1008.91 425.867 1023.25 425.5 1035.78 425.124 L 1068.67 424.936 C 1073.51 425.726 1112.86 426.282 1116.52 424.034 C 1119.6 425.696 1143.52 424.76 1150.22 425.244 C 1162.5 425.329 1174.77 425.328 1187.04 425.241 L 1189.58 424.836 C 1193.63 425.594 1194.47 424.538 1195.38 428.495 C 1196.94 435.287 1195.56 485.834 1197.03 487.681 C 1196.34 494.215 1194.23 505.416 1195.77 511.912 C 1196.85 516.462 1202.13 512.77 1204.66 511.266 C 1206.56 511.055 1218.11 506.562 1220.65 505.615 C 1228.29 505.061 1237.09 505.238 1244.65 506.495 L 1251.35 514.138 C 1262.05 516.646 1273.54 521.163 1282.71 515.546 C 1283.57 515.015 1284.42 514.47 1285.27 513.913 C 1292.64 512.538 1295.84 511.913 1303.39 511.863 C 1321.26 510.51 1337.78 518.094 1353.79 524.718 C 1355.13 519.645 1356.28 512.475 1358.16 507.788 C 1365.65 496.11 1368.15 485.12 1383.33 476.956 C 1394.52 470.93 1428 475.218 1439.54 479.005 C 1432.69 446.073 1416.37 405.941 1400.37 376.161 C 1349.09 280.773 1258.03 205.672 1155.03 173.262 C 1050.37 140.329 927.102 149.379 829.967 200.465 C 754.817 240.751 692.963 301.967 651.901 376.696 C 645.3 388.985 635.333 409.862 631.096 423.49 C 637.518 424.11 642.099 424.031 648.507 423.942 C 649.855 420.37 650.835 417.856 652.541 414.44 C 656.991 416.798 666.216 421.361 670.041 423.904 C 677.509 423.966 719.17 424.888 723.152 423.499 C 734.498 424.203 764.736 424.486 776.356 423.774 z M 873.996 709.165 C 879.996 709.212 886.381 709.145 892.345 709.405 L 892.562 563.624 C 892.569 545.543 893.838 509.179 892.598 492.924 L 873.833 490.598 C 874.696 563.135 873.947 636.555 873.996 709.165 z M 1375.75 707.933 C 1374.64 696.472 1369 695.278 1358.67 693.924 C 1357.42 689.734 1379.09 657.928 1383.47 653.62 C 1380.67 645.39 1377.4 634.936 1380.07 626.564 C 1384.21 613.583 1377 617.581 1373.96 604.897 C 1374.68 590.716 1359.91 582.472 1348.67 576.623 C 1364.23 591.528 1370.24 593.347 1372.84 614.399 C 1372.68 622.018 1372.74 628.537 1373.13 635.976 C 1373.78 648.324 1377.37 659.578 1366.97 668.851 C 1357.68 677.13 1346.01 685.31 1335.3 691.644 C 1344.79 692.052 1349.45 692.386 1358.87 695.068 C 1371.58 701.149 1372.13 700.188 1373.82 714.271 C 1370.28 717.858 1369.06 716.17 1364.34 715.354 L 1361.68 718.585 L 1362.09 721.534 C 1370.23 725.136 1381.25 717.442 1386.98 712.212 C 1400.28 709.6 1416.95 713.061 1430.12 713.596 C 1467.92 715.134 1505.91 718.64 1541.68 705.477 C 1569.25 695.327 1550.51 671.354 1554.46 651.778 C 1555.2 648.093 1565.04 645.978 1569.14 644.897 C 1570.53 664.745 1559.34 717.969 1585.96 717.246 C 1601.99 716.81 1620.96 724.843 1635.66 722.805 C 1642.24 721.891 1663.12 704.81 1672.38 704.367 C 1682.81 703.218 1684.92 701.036 1687.99 691.231 C 1714.2 690.928 1741.31 686.805 1767.53 691.436 C 1779.76 693.596 1813.24 718.14 1823.61 708.247 C 1828.11 685.473 1780.7 641.72 1760.74 634.872 C 1745.85 629.76 1743.87 646.821 1734.51 651.551 C 1722.23 657.759 1705.29 643.027 1695.33 637.25 C 1693.44 636.159 1687.61 634.383 1685.41 633.722 C 1689.97 626.389 1701.91 616.441 1702.84 608.23 C 1705.3 586.473 1704.49 561.359 1702.48 539.613 C 1701.03 523.948 1676.04 507.104 1664 498.565 C 1663.18 473.396 1672.29 447.472 1663.5 421.939 C 1660.28 412.564 1644.71 386.393 1632.85 391.509 C 1628.44 396.837 1628.18 408.974 1627.42 416.277 C 1625.91 438.95 1629.04 447.814 1615.36 464.832 C 1609.62 470.627 1604.33 477.211 1598.7 483.224 C 1595.05 488.022 1593.45 489.131 1588.62 492.862 C 1577.64 459.931 1549.69 470.684 1520.29 462.351 C 1480.15 450.975 1466.6 476.432 1444.39 503.207 C 1440.39 500.418 1433.79 495.35 1428.89 494.374 C 1415.07 491.724 1400.48 489.596 1387.12 494.839 C 1365.11 503.483 1378.81 552.495 1349.24 541 C 1316.64 528.33 1303.83 520.888 1273.49 542.577 C 1258.65 527.512 1251.99 536.078 1235.41 523.199 C 1181.78 521.65 1168.67 581.279 1204.3 612.137 C 1225.83 630.778 1222.01 625.273 1245.89 623.677 C 1245.72 639.677 1246.95 642.04 1231.73 649.341 C 1225.56 659.81 1224.85 664.002 1225.57 676.194 C 1214.52 679.11 1170.62 699.775 1192.74 717.199 C 1199.26 722.341 1258.38 717.178 1268.85 716.552 C 1276.4 715.817 1287.84 698.979 1289.77 700.121 C 1294.06 702.661 1311.39 705.834 1319.99 705.974 C 1326.37 722.649 1330.43 722.904 1347.95 722.778 C 1338.11 715.586 1327.84 716.27 1325.24 709.862 C 1324.63 704.061 1328.28 699.073 1331.32 694.25 C 1280.66 712.113 1289.35 670.711 1278.17 673.394 C 1276.76 683.055 1284.51 697.965 1272.95 706.652 C 1265.96 711.909 1239.61 713.068 1233.47 707.703 C 1233.09 704.491 1232.85 703.057 1233.19 699.749 C 1230.17 691.393 1226.96 693.807 1219.56 687.833 L 1219.4 686.377 C 1222.64 685.103 1233.01 684.718 1237.36 684.266 C 1234.02 679.504 1229.64 670.056 1230.6 665.059 C 1233.82 648.202 1251.29 651.286 1262.35 645.924 C 1263.49 645.375 1263.31 643.597 1263.47 642.006 C 1261.48 639.718 1258.35 640.255 1254.3 639.5 C 1253.08 637.961 1251.7 623.774 1251.02 620.092 C 1259.9 618.953 1266.05 618.005 1274.76 616.021 C 1263.27 615.193 1252.44 614.977 1241.18 612.57 C 1231.73 622.78 1218.07 623.284 1214.28 607.418 C 1211.51 595.817 1228.76 599.459 1232.56 593.942 C 1231.41 589.463 1217.97 582.468 1213.27 579.663 L 1212.21 566.234 C 1207.87 564 1204.78 562.989 1202.6 558.638 C 1203.04 544.112 1239.93 550.617 1244.88 543.387 L 1243.23 538.934 L 1244.28 537.697 C 1251.05 535.888 1262.18 538.909 1265.56 545.302 C 1266.53 547.09 1266.72 549.197 1266.1 551.132 C 1264.24 556.898 1256.91 561.497 1251.81 564.047 C 1248.99 565.852 1247.2 566.661 1245.66 569.694 L 1246.74 570.789 C 1249.85 570.239 1251.4 568.691 1253.96 566.789 C 1254.51 570.084 1254.65 573.309 1257.02 575.618 L 1258.68 575.518 C 1263.08 568.196 1261.85 563.414 1269.06 560.367 C 1272.74 560.898 1277.68 562.543 1280.03 565.568 C 1280.62 571.544 1279.97 572.595 1285.91 573.96 C 1287.57 579.013 1282.95 580.102 1284.97 582.332 C 1292.74 579.323 1294.07 583.277 1302.01 585.487 C 1303.88 589.483 1302.41 589.802 1305.53 594.841 L 1306.91 594.68 L 1306.65 595.366 L 1305.68 594.406 L 1306.9 593.138 C 1306.66 587.86 1305.81 586.334 1303.22 582.016 C 1293.72 568.053 1286.43 565.879 1280.16 551.19 C 1301 524.63 1309.54 534.876 1338.76 542.478 C 1362.87 548.749 1368.98 558.003 1382.49 577.765 C 1383.72 579.526 1414.58 600.738 1419.25 603.45 C 1419.28 643.738 1423.11 667.621 1391.67 698.287 C 1387.95 701.909 1381.24 708.097 1375.75 707.933 z M 664.385 677.392 C 667.502 665.499 692.486 562.252 695.957 560.36 C 697.692 559.414 700.289 559.173 702.15 559.908 C 704.336 560.77 705.284 564.254 706.028 566.341 C 710.211 578.07 712.802 590.887 716.001 602.956 L 735.684 677.142 C 763.964 677.391 792.244 677.466 820.524 677.366 C 823.378 662.476 825.134 644.503 827.006 629.278 L 836.8 549.245 L 848.289 454.829 C 827.954 454.886 795.631 456.093 776.228 455.067 L 768.431 531.212 C 767.288 542.489 766.018 560.229 764.106 570.917 C 759.283 570.594 754.463 570.238 749.645 569.849 C 741.296 531.642 732.017 493.308 723.89 455.148 C 710.969 455.002 695.576 455.4 682.99 454.923 C 674.272 488.347 662.549 538.82 652.095 570.73 C 648.436 570.558 644.312 570.159 640.745 570.786 C 639.414 533.041 636.481 492.51 636.164 455.195 C 612.234 454.66 588.774 454.881 564.87 454.806 C 572.151 519.51 576.887 584.785 583.773 649.559 C 584.728 658.547 585.683 667.871 586.313 676.867 C 612.332 677.451 638.36 677.625 664.385 677.392 z M 303.483 677.342 C 303.706 652.065 303.798 626.787 303.76 601.508 C 303.771 593.688 302.547 558.491 306.326 554.15 C 313.537 554.966 324.222 573.357 328.143 579.379 C 349.208 611.718 368.971 645.358 391.242 676.873 C 405.163 677.619 442.238 678.223 455.843 677.001 C 458.01 674.704 457.352 674.091 457.65 670.255 C 457.65 599.869 456.334 524.939 457.856 454.919 C 441.091 454.854 418.266 455.558 401.939 454.732 L 401.795 585.636 L 388.207 585.394 C 364.566 541.573 336.417 497.78 313.468 454.955 C 295.74 454.673 255.395 456.072 240.189 454.541 L 239.858 602.242 C 239.817 626.172 240.397 653.541 239.608 677.211 L 303.483 677.342 z M 1204.06 664.122 C 1205.87 655.516 1207.28 647.187 1208.74 638.513 C 1205.93 635.986 1198.89 629.208 1195.91 627.894 C 1195.84 639.969 1195.33 656.347 1196.07 667.993 L 1197.01 668.902 C 1200.18 668.524 1201.66 666.455 1204.06 664.122 z M 1000.58 454.993 L 954.238 598.14 C 947.174 620.114 936.55 657.165 928.41 677.667 C 948.592 676.69 980.833 676.915 1001.27 677.576 C 1003.12 669.368 1005.84 655.382 1008.29 647.775 C 1017.27 647.824 1063.6 646.828 1067.71 649.245 L 1068.5 651.235 C 1070.6 659.504 1073.21 668.899 1074.94 677.155 C 1092.51 677.277 1131.84 676.334 1146.85 677.71 C 1123.92 605.111 1096.47 527.443 1071.58 455.096 C 1047.99 454.728 1023.83 455.537 1000.58 454.993 z M 1230.62 709.158 C 1229.14 712.133 1228.93 712.839 1226.24 714.722 C 1220.82 715.473 1220.98 712.854 1218.76 712.81 C 1213.61 712.707 1194.19 716.606 1193.43 708.436 C 1192.62 699.584 1198.02 698.931 1205.04 698.135 C 1212.65 690.654 1220.07 696.448 1229.05 699.615 C 1229.56 702.618 1230.26 706.189 1230.62 709.158 z M 1306.28 667.958 C 1339.99 685.757 1332.85 671.859 1347.42 642.306 C 1351.14 634.759 1364.9 619.204 1364.43 612.884 C 1348.89 630.396 1341.31 639.378 1334.65 662.28 C 1328.47 683.516 1312.67 662.828 1304.52 666.576 L 1306.28 667.958 z"/>
<path transform="translate(0,0)" fill="rgb(254,181,31)" fill-opacity="0.192157" d="M 1187.04 425.241 C 1185.51 421.135 1182.8 412.52 1183.22 408.231 C 1187.23 415.211 1186.96 418.743 1189.58 424.836 L 1187.04 425.241 z"/>
<path transform="translate(0,0)" fill="rgb(254,181,31)" d="M 631.096 423.49 C 635.333 409.862 645.3 388.985 651.901 376.696 C 692.963 301.967 754.817 240.751 829.967 200.465 C 927.102 149.379 1050.37 140.329 1155.03 173.262 C 1258.03 205.672 1349.09 280.773 1400.37 376.161 C 1416.37 405.941 1432.69 446.073 1439.54 479.005 C 1428 475.218 1394.52 470.93 1383.33 476.956 C 1368.15 485.12 1365.65 496.11 1358.16 507.788 C 1353.12 485.902 1349.65 464.846 1342.26 443.536 L 1293.29 462.572 C 1297.27 478.338 1299.94 495.708 1303.39 511.863 C 1295.84 511.913 1292.64 512.538 1285.27 513.913 C 1283.15 497.552 1279.65 483.311 1277.38 467.434 C 1260.78 474.401 1235.86 479.625 1217.78 485.743 C 1218.63 492.381 1219.59 499.006 1220.65 505.615 C 1218.11 506.562 1206.56 511.055 1204.66 511.266 C 1203.75 504.964 1202.65 490.921 1197.03 487.681 C 1195.56 485.834 1196.94 435.287 1195.38 428.495 C 1194.47 424.538 1193.63 425.594 1189.58 424.836 C 1186.96 418.743 1187.23 415.211 1183.22 408.231 C 1182.8 412.52 1185.51 421.135 1187.04 425.241 C 1174.77 425.328 1162.5 425.329 1150.22 425.244 C 1149.18 394.638 1141.03 385.681 1111.76 382.62 C 1112.3 394.403 1114.99 412.023 1116.52 424.034 C 1112.86 426.282 1073.51 425.726 1068.67 424.936 C 1066.59 412.829 1064.39 408.223 1051.35 405.864 C 1046.04 404.903 1040.54 404.109 1035.19 403.299 C 1036.06 410.804 1035.85 417.59 1035.78 425.124 C 1023.25 425.5 1008.91 425.867 996.456 424.813 C 995.392 418.142 993.573 412.046 1001.06 409.126 C 1009.05 409.418 1014.8 413.715 1016.86 421.355 L 1017.81 421.479 C 1018.52 416.514 1018.48 383.065 1018.41 376.058 C 1000.44 374.894 980.279 372.564 962.468 373.121 C 964.559 378.117 968.815 388.959 971.312 393.115 C 976.126 393.94 986.138 395.074 987.713 399.326 C 990.706 407.407 974.997 421.201 966.635 418.372 C 962.823 417.083 958.764 414.189 956.552 415.032 C 955.787 418.356 954.98 421.671 954.132 424.976 C 929.462 425.416 904.223 425.229 879.496 425.267 L 874.435 425.136 C 864.379 424.948 845.758 425.241 836.643 423.818 C 836.383 417.771 830.631 404.985 824.739 402.139 C 816.055 397.943 810.331 400.891 801.901 403.423 C 798.431 410.142 797.225 416.07 792.716 424.067 C 787.262 424.01 781.808 423.912 776.356 423.774 C 784.63 398.546 800.616 362.567 814.782 339.645 C 801.933 334.494 788.409 329.723 775.36 324.971 C 765.205 341.447 755.9 354.496 746.56 372.108 C 737.047 390.045 731.273 405.25 723.152 423.499 C 719.17 424.888 677.509 423.966 670.041 423.904 C 666.216 421.361 656.991 416.798 652.541 414.44 C 650.835 417.856 649.855 420.37 648.507 423.942 C 642.099 424.031 637.518 424.11 631.096 423.49 z M 658.303 400.233 C 672.235 405.55 685.054 412.605 698.629 418.122 C 701.178 419.238 702.108 419.522 704.272 421.212 C 708.436 419.857 715.238 397.394 717.661 391.944 C 729.133 365.931 743.403 341.243 760.219 318.318 C 748.745 312.98 737.22 307.753 725.645 302.64 C 700.611 330.098 675.894 367.231 658.303 400.233 z M 1183.69 359.321 C 1193.57 375.582 1213.9 449.472 1215.41 468.55 C 1223.68 466.188 1268.78 454.216 1272.04 450.812 L 1271.83 448.631 C 1263.77 424.852 1256.98 407.357 1247.18 384.195 C 1238.99 385.226 1229.94 384.591 1221.63 384.237 C 1217.45 389.464 1209.41 399.669 1202.13 394.582 C 1200.39 391.544 1198.9 385.691 1200.48 383.316 C 1203.53 378.718 1209.24 363.004 1212.02 360.512 C 1217.92 358.907 1229.4 370.12 1237.18 368.122 C 1237.39 364.402 1230.11 352.835 1227.84 348.95 L 1225.51 347.98 C 1213.09 351.831 1196.41 356.423 1183.69 359.321 z M 1243.7 342.983 C 1259.7 371.382 1280.86 414.27 1288.15 446.415 L 1288.25 446.886 C 1290.49 445.81 1294.01 443.978 1296.25 443.215 L 1337.23 427.299 C 1333.49 419.446 1329.18 407.759 1324.09 401.504 C 1320.07 396.573 1311.33 393.562 1308 387.103 C 1302.83 377.085 1304.33 365.498 1299.98 355.498 L 1299.67 354.765 C 1296.51 347.505 1287.35 335.62 1282.82 328.377 L 1280.83 328.205 C 1273.03 331.386 1249.66 339.772 1243.7 342.983 z M 896.14 344.794 C 908.472 346.849 921.71 349.034 933.855 351.8 C 941.081 352.209 943.913 352.896 950.822 354.556 C 956.546 329.287 963.865 304.7 969.566 279.228 C 961.229 277.955 943.676 275.669 936.333 273.278 C 922.122 297.488 909.781 320.581 896.14 344.794 z M 967.682 355.835 C 978.9 356.943 990.525 358.269 1001.75 358.733 C 1007.45 358.931 1013.15 359.073 1018.85 359.159 C 1017.21 341.489 1018.41 301.483 1018.52 282.751 C 1009.73 282.758 997.074 281.652 988.148 280.765 C 983.431 296.221 979.167 311.813 975.36 327.519 C 973.811 333.677 969.855 350.923 967.682 355.835 z M 1133.7 266.376 C 1147.39 284.508 1168.1 323.588 1177.49 344.326 C 1184.38 342.067 1189.72 340.434 1196.77 338.748 C 1204.02 336.809 1211.21 334.644 1218.32 332.257 C 1198.44 308.441 1184.96 280.511 1158.71 264.43 C 1156.18 262.877 1154.51 259.913 1152.84 259.07 C 1146.84 261.336 1139.49 263.899 1133.7 266.376 z M 737.396 289.378 C 747.168 293.923 756.912 298.525 766.63 303.183 C 768.016 303.596 769.036 304.252 769.867 303.436 C 786.436 287.15 801.706 269.494 818.624 253.428 C 825.946 246.475 835.273 243.627 837.594 240.577 C 833.32 236.106 825.039 240.692 819.19 237.434 C 818.047 235.56 815.222 229.494 814.602 228.8 C 783.518 250.96 766.259 263.884 737.396 289.378 z M 1034.91 282.143 C 1034.92 289.127 1034.37 312.863 1035.75 317.834 C 1039.14 319.255 1044.45 315.296 1047.47 323.107 C 1049.76 329.007 1049.82 343.443 1049.42 349.8 C 1044.7 351.426 1039.35 352.62 1036.43 356.586 L 1036.88 358.313 C 1042.03 360.889 1050.21 359.723 1056.21 359.4 C 1067.15 358.902 1080.91 358.513 1091.59 357.111 C 1084.67 353.813 1077.51 350.256 1070.44 347.386 C 1068.59 332.854 1066.27 326.752 1078.59 316.924 C 1075.15 305.111 1070.87 291.61 1068.17 279.744 L 1058.64 280.411 C 1051.02 281.11 1042.49 282.071 1034.91 282.143 z M 1308.88 316.261 C 1318.63 324.116 1346.6 338.555 1350.19 348.079 C 1349.34 355.217 1340.65 353.493 1336.78 359.333 C 1336.67 362.783 1336.31 361.424 1338.3 364.441 C 1345.38 368.006 1358.29 365.336 1362.75 370.626 C 1363.91 378.121 1356.12 383.24 1350.88 387.464 C 1357.22 390.199 1364.78 393.086 1370.15 397.203 C 1371.19 403.827 1368.19 408.481 1365.26 414.641 C 1374.14 409.992 1385.59 404.396 1393.99 399.305 C 1384.16 382.443 1343.8 313.653 1329.85 306.068 C 1323.46 309.243 1314.86 313.025 1308.88 316.261 z M 1045.21 225.592 C 1040.36 226.084 1039.3 225.414 1035.8 227.844 C 1034.17 237.2 1035.48 255.626 1035.01 266.277 L 1050.77 264.349 C 1054.53 264.153 1058.44 263.882 1062.19 263.905 C 1059.42 257.075 1049.71 227.891 1045.47 225.591 L 1045.21 225.592 z M 1162.52 238.74 C 1165.79 236.981 1169.4 234.935 1172.71 233.334 L 1174.59 232.292 C 1172.45 225.92 1152.42 222.502 1146.16 221.645 C 1150.51 228.599 1156.6 232.696 1162.52 238.74 z M 1380.33 425.127 C 1376.87 439.644 1376.06 444.715 1362.07 451.664 C 1364.69 459.989 1366.96 468.169 1367.46 476.948 C 1377.57 465.588 1399.88 435.877 1390.79 420.65 L 1389.33 420 L 1380.33 425.127 z M 1224.87 268.675 C 1227.36 271.203 1232.25 273.336 1235.57 275.002 C 1231.92 271.125 1229.9 269.086 1225.8 265.748 C 1220.74 261.149 1215.59 255.641 1208.8 254.369 L 1208.55 255.68 C 1213.12 261.928 1218.36 264.555 1224.87 268.675 z M 992.021 265.417 L 1013.12 266.376 L 1016.75 265.704 C 1019.54 261.313 1018.78 236.83 1018.24 230.99 C 1014.62 230.529 1014.64 233.577 1009.71 232.877 C 1007.55 231.196 1007.01 229.845 1005.42 228.493 C 1001.8 238.947 996.553 256.071 992.021 265.417 z M 1228.05 317.846 C 1229.56 321.16 1231.25 325.931 1234.02 327.947 L 1236.2 327.256 C 1247.25 323.466 1261.27 319.04 1271.55 314.127 C 1269.49 311.445 1265.28 305.154 1262.56 304.108 C 1249.13 314.341 1243.8 305.99 1228.05 317.846 z M 788.288 312.124 C 792.769 313.913 798.743 316.506 803.257 317.805 C 808.276 319.459 817.218 322.153 821.701 324.165 C 821.482 318.345 821.857 309.527 819.406 304.731 C 816.653 302.947 817.835 303.195 814.772 303.222 C 804.715 305.444 797.373 310.56 788.288 312.124 z M 1275.61 290.751 C 1275.4 266.61 1275.36 269.121 1251.55 266.592 C 1256.22 273.611 1267.53 284.827 1273.73 291.339 L 1275.25 291.545 L 1275.61 290.751 z M 1084.44 277.759 C 1085.99 282.582 1090.77 301.074 1092.32 303.435 C 1095.4 302.337 1093.83 300.011 1098.72 297.925 C 1098.98 297.941 1101.75 298.111 1101.75 298.111 C 1109.62 304.684 1117.12 311.545 1125.54 317.405 C 1129.88 320.422 1135.01 322.71 1139.21 325.639 L 1139.93 326.392 C 1144.06 330.76 1151.42 342.951 1155.73 343.843 C 1156.83 339.211 1151.74 327.69 1149.14 323.946 C 1144.5 317.246 1120.6 272.201 1116.12 270.389 C 1106.15 273.19 1093.47 274.869 1084.44 277.759 z M 1078.3 261.46 C 1086.64 259.882 1095.48 258.356 1103.66 256.25 L 1104.98 255.001 C 1103.98 251.774 1082.21 224.174 1080 224.464 C 1065.19 226.41 1069.58 220.046 1061.31 215.554 C 1065.66 227.6 1075.76 250.855 1078.3 261.46 z M 944.654 234.745 L 931.725 235.067 C 928.519 239.797 922.64 247.451 922.408 252.923 C 924.313 255.27 923.668 254.523 927.544 255.181 C 929.026 254.731 930.043 254.64 930.908 253.401 L 944.654 234.745 z M 1065.52 386.963 C 1078.68 390.946 1088.41 395.236 1097.43 406.164 C 1096.22 398.621 1094.57 379.65 1090.73 374.555 C 1088.39 373.968 1088.51 374.014 1086.11 374.471 C 1074.82 375.285 1043.38 375.067 1035.32 378.614 L 1035.08 379.855 C 1042.52 385.546 1056.77 385.026 1065.52 386.963 z M 975.184 263.92 C 977.804 256.955 992.309 218.724 991.516 214.78 C 982.158 226.803 952.235 243.957 948.826 258.894 C 950.283 260.409 949.706 259.941 952.241 260.297 C 960.803 261.354 966.726 262.218 975.184 263.92 z M 844.399 319.595 C 842.07 322.194 840.08 323.732 839.826 327.066 C 842.589 332.213 849.264 332.706 854.786 334.083 C 867.169 337.701 871.822 333.201 880.284 338.141 C 880.063 338.3 914.495 276.774 917.924 270.991 C 916.175 267.943 913.411 268.095 909.974 267.906 C 892.923 276.503 870.859 280.352 869.127 301.047 C 868.836 304.522 868.228 308.998 867.363 312.33 C 859.718 317.391 853.301 317.957 844.399 319.595 z M 1124.2 252.12 C 1130.91 248.937 1132.65 248.444 1139.8 246.826 L 1143.6 245.294 L 1143.82 243.649 C 1138.96 238.531 1134.17 235.698 1129.28 230.429 C 1114.01 213.955 1112.39 204.694 1088.01 204.044 C 1098.76 222.32 1113.49 236.428 1124.2 252.12 z M 892.638 360.948 C 892.864 369.025 892.936 374.412 894.3 382.359 C 898.426 387.19 901.547 390.316 906.687 394.12 C 912.864 393.979 919.278 393.813 925.556 394.191 C 934.874 394.751 936.162 406.804 940.261 408.792 C 940.721 407.481 941.187 406.358 941.382 404.978 C 942.914 393.209 944.669 381.47 946.646 369.767 C 933.619 368.976 907.044 363.347 892.638 360.948 z"/>
<path transform="translate(0,0)" fill="rgb(254,181,31)" fill-opacity="0.0156863" d="M 1224.87 268.675 C 1218.36 264.555 1213.12 261.928 1208.55 255.68 L 1208.8 254.369 C 1215.59 255.641 1220.74 261.149 1225.8 265.748 C 1225.53 267.984 1225.99 267.133 1224.87 268.675 z"/>
<path transform="translate(0,0)" fill="rgb(254,181,31)" fill-opacity="0.184314" d="M 1225.8 265.748 C 1229.9 269.086 1231.92 271.125 1235.57 275.002 C 1232.25 273.336 1227.36 271.203 1224.87 268.675 C 1225.99 267.133 1225.53 267.984 1225.8 265.748 z"/>
<path transform="translate(0,0)" fill="rgb(254,181,31)" d="M 1181.48 751.83 C 1187.15 750.77 1193.02 751.104 1198.8 751.198 C 1197.64 759.671 1187.2 788.595 1183.74 797.164 C 1193.67 799.479 1219.88 805.007 1228.21 808.246 C 1241.83 787.959 1247.8 772.004 1258.07 751.231 C 1263.22 751.215 1270.05 750.995 1275.04 751.41 C 1268.86 770.733 1256.87 795.067 1245.7 812.421 C 1257.93 816.308 1272.41 820.542 1284.31 824.847 C 1299.8 804.445 1316.2 774.253 1329.67 751.892 C 1334.46 750.719 1342.46 751.186 1347.64 751.267 C 1338.94 774.011 1314.92 809.946 1301.3 831.691 C 1313.37 835.957 1326.58 841.098 1338.57 845.051 C 1367.7 807.448 1375.98 790.649 1398.67 751.172 C 1404.13 751.2 1410.9 751.044 1416.25 751.37 C 1373.47 849.016 1290.54 932.476 1192.09 973.609 C 1088.02 1017.05 971.033 1017.77 866.442 975.603 C 766.198 934.23 678.838 852.198 636.962 751.57 C 641.604 751.412 650.449 750.811 654.678 751.639 L 655.122 752.127 C 665.769 779.363 697.023 822.363 714.413 845.771 C 721.21 841.761 744.199 832.815 752.812 829.177 C 743.379 816.663 717.993 765.976 714.383 751.61 C 719.897 751.443 725.677 751.173 731.172 751.213 C 743.256 777.146 753.887 799.834 769.326 824.053 C 777.765 820.513 800.128 813.442 809.316 811.186 C 799.483 794.072 790.613 770.085 784.036 751.351 C 789.464 751.335 796.12 751.134 801.441 751.503 C 807.185 766.77 813.392 781.386 820.543 796.042 C 822.249 799.539 823.801 802.911 824.995 806.619 L 871.948 795.34 C 865.607 779.701 860.141 766.661 852.264 751.585 C 875.109 751.366 907.335 750.446 929.78 751.648 C 932.532 753.736 941.228 761.031 943.568 761.352 C 945.927 756.398 942.541 754.348 945.329 751.373 C 950.558 750.993 954.456 751.161 959.639 751.367 C 960.544 756.273 961.429 769.392 968.06 768.83 C 971.67 765.146 974.712 757.051 975.673 752.007 C 977.398 750.888 994.799 751.267 998.063 751.277 C 997.877 759.304 997.684 763.054 996.291 770.932 C 992.54 775.102 989.861 778.058 985.661 781.856 C 996.989 781.846 1008.43 781.924 1019.74 781.786 C 1018.83 772.017 1019.11 761.239 1019.15 751.353 L 1035.88 751.333 C 1036.05 759.543 1036.36 775.002 1034.91 782.528 C 1053.05 783.882 1071.19 785.035 1089.35 785.988 C 1090.53 777.414 1094.34 759.307 1096.75 751.208 L 1113.58 751.299 C 1112.58 754.966 1111.53 756.301 1112.47 759.475 C 1119.59 759.446 1129.97 758.605 1135.54 763.879 C 1142.44 770.407 1138.14 785.823 1128.04 785.716 C 1118.23 779.784 1125.8 774.763 1109.66 773.084 L 1106.13 787.69 C 1116.15 788.276 1156.22 793.093 1165.95 795.36 C 1172.1 781.205 1176.57 766.474 1181.48 751.83 z M 895.857 808.626 C 901.243 820.169 924.5 865.287 932.149 874.809 C 933.905 877.763 936.047 881.177 937.608 884.185 C 948.724 882.223 963.044 880.227 973.806 877.803 C 972.023 872.897 970.331 867.956 968.833 862.955 C 964.525 848.577 960.311 834.164 956.602 819.618 C 955.131 813.85 953.657 808.084 952.406 802.263 C 951.771 801.924 951.136 801.585 950.501 801.245 L 948.579 801.422 C 931.868 802.767 912.457 805.17 895.857 808.626 z M 833.884 821.905 C 847.988 841.428 867.774 871.41 884.674 887.956 C 886.628 889.919 889.693 893.176 891.678 894.877 C 899.694 892.557 913.115 889.701 919.919 887.143 C 904.225 865.011 890.798 836.163 878.213 811.902 C 877.599 811.731 876.986 811.56 876.373 811.389 C 862.39 815.255 847.981 818.169 833.884 821.905 z M 778.773 838.812 C 786.615 846.783 794.582 857.399 802.448 866.203 C 814.999 879.973 828.224 893.113 842.075 905.575 L 846.699 910.418 C 855.409 906.501 864.963 903.452 874.04 900.365 C 858.772 886.738 845.563 866.139 833.523 849.618 C 830.561 845.552 819.958 827.717 816.967 826.029 C 804.437 831.097 790.597 833.651 778.773 838.812 z M 726.094 858.428 C 747.941 879.904 769.386 899.751 794.538 917.301 C 797.025 919.036 800.243 921.255 802.521 923.195 C 804.518 924.732 807.222 926.951 809.278 928.261 C 816.836 923.65 822.502 920.931 830.551 917.138 C 812.722 904.201 797.338 885.446 782.726 868.939 C 779.672 865.489 764.394 845.302 762.076 844.116 C 752.511 847.521 734.918 853.855 726.094 858.428 z M 1226.66 914.242 L 1248.22 923.469 C 1250.89 921.742 1255.35 919.032 1257.62 917.053 C 1282.04 899.12 1305.71 880.094 1326.98 858.475 L 1290.64 844.597 C 1285.19 852.018 1280.04 858.925 1274.96 866.689 C 1270.1 874.108 1259.86 900.316 1253.52 904.096 C 1246.04 908.547 1240.27 905.695 1227.55 913.676 L 1226.66 914.242 z M 990.953 877.534 C 1008.53 875.13 1020.53 879.339 1019.11 856.75 C 1019.03 845.312 1018.39 825.113 1020.03 814.312 C 1006.69 832.24 994.921 846.214 986.039 814.1 C 981.505 810.155 974.904 803.861 969.581 801.567 C 972.441 823.273 984.993 855.549 990.953 877.534 z M 1118.71 839.427 C 1122.6 840.916 1127.4 842.9 1131.32 843.999 C 1135.53 842.069 1142.86 838.958 1146.58 836.667 C 1154.02 829.522 1156.29 821.15 1160.28 811.46 C 1141.13 807.25 1122.1 805.684 1102.62 803.679 C 1099.14 824.276 1084.4 847.263 1118.71 839.427 z M 1258.95 853.337 C 1265.86 852.331 1269.95 844.646 1274.89 839.127 C 1267.58 836.653 1243.2 828.051 1236.74 827.638 C 1231.12 833.795 1224.33 844.447 1219.47 851.617 C 1223.75 849.755 1228.45 847.543 1232.89 846.278 C 1240.5 848.193 1252.8 853.053 1258.95 853.337 z M 1081.08 986.629 C 1095.57 984.774 1115.14 980.612 1129.77 977.917 C 1120.62 975.543 1109.52 973 1100.95 969.413 C 1091.72 978.28 1089.78 980.064 1077.87 983.99 C 1073.39 984.315 1070.44 984.744 1066 985.532 L 1066.56 987.983 L 1064.57 987.318 C 1068.47 988.499 1076.99 987.501 1081.08 986.629 z M 977.527 962.209 C 972.985 955.962 930.943 903.406 929.374 902.811 L 927.193 903.218 C 920.751 904.686 910.945 906.614 904.868 908.443 C 920.798 922.634 944.988 944.288 962.417 955.03 C 967.811 958.026 971.918 959.804 977.527 962.209 z M 894.575 767.451 L 878.991 768.39 C 882.508 777.022 885.127 784.125 887.553 793.174 L 898.231 791.114 C 903.203 790.076 910.066 788.86 914.816 787.524 C 912.343 774.077 911.459 766.316 894.575 767.451 z M 1086.23 802.697 C 1069.7 801.131 1052.52 800.269 1036.17 798.428 L 1037.33 819.669 C 1044.83 819.827 1051.96 820.782 1059.39 821.655 C 1063.08 811.095 1064.1 806.004 1076.89 809.306 C 1080.38 810.653 1080.76 811.548 1083.59 810.473 C 1085 807.608 1085.42 805.724 1086.23 802.697 z M 921.684 977.489 C 900.441 964.259 877.09 954.802 857.389 938.656 C 854.131 935.987 846.361 929.892 842.565 929.951 C 836.735 932.471 831.989 934.395 826.526 937.704 C 840.711 945.303 855.443 953.064 870.339 959.186 C 883.189 964.467 896.72 968.821 909.738 973.896 L 921.684 977.489 z M 977.191 894.188 C 967.167 896.755 957.853 897.012 948.338 899.16 C 960.776 914.583 972.5 929.021 985.216 944.168 C 990.252 950.334 994.452 952.686 1001.27 956.806 C 998.248 947.082 983.453 900.735 978.614 894.635 L 977.191 894.188 z M 1017.09 946.742 L 1018.61 948.381 C 1020.4 945.819 1018.72 896.875 1017.96 891.681 L 1005.52 892.312 C 1002.01 892.747 999.952 892.407 997.421 894.263 C 1001.41 908.327 1011.54 932.382 1017.09 946.742 z M 1232.5 934.892 C 1229.38 933.452 1221.55 929.103 1219.7 928.339 C 1209.19 948.421 1193.23 948.374 1175.97 955.962 C 1165.83 960.485 1156.16 966.005 1147.12 972.44 L 1160.77 967.802 C 1187.19 957.972 1207.6 947.934 1232.5 934.892 z M 1044.8 929.651 C 1043.08 925.111 1041.68 919.737 1037.44 917.3 C 1036.81 925.019 1036.28 938.935 1037.51 946.358 L 1038.64 947.312 L 1039.75 945.829 C 1041.84 939.951 1043.23 935.765 1044.8 929.651 z M 1198.8 847.443 C 1209.25 840.9 1211.75 832.238 1219.56 823.244 C 1205.95 819.155 1192.9 816.566 1179.02 813.67 C 1174.31 821.01 1170.16 830.612 1166.85 838.749 C 1170.94 841.94 1172.54 842.731 1174.76 847.345 C 1176.09 850.11 1177.31 852.656 1180.08 853.901 C 1184.21 854.136 1194.86 849.426 1198.8 847.443 z M 1063.37 941.952 C 1060.46 943.659 1058.18 944.49 1056.95 947.483 C 1059.4 950.128 1064.14 950.1 1067.97 950.512 C 1072.18 948.431 1072.04 949.312 1073.96 945.822 C 1072.04 941.269 1067.84 941.48 1063.37 941.952 z M 1034.55 967.478 C 1006.73 968.247 982.223 971.361 957.122 984.853 C 966.317 986.016 975.531 987.016 984.76 987.852 C 1000.46 989.018 1016.2 989.688 1031.94 989.861 C 1039.01 978.698 1045.78 977.478 1053.91 967.463 C 1047.54 967.672 1040.94 967.526 1034.55 967.478 z M 884.632 914.14 C 877.133 916.849 868.938 919.639 861.632 922.674 C 886.932 936.573 909.652 954.54 937.674 965.798 C 941.313 967.457 945.814 969.913 949.68 969.983 L 950.742 969.026 C 948.637 964.568 934.447 955.271 929.328 951.913 C 916.901 943.759 897.466 921.445 886.57 914.294 L 884.632 914.14 z"/>
<path transform="translate(0,0)" fill="rgb(254,181,31)" fill-opacity="0.0117647" d="M 1081.08 986.629 C 1076.99 987.501 1068.47 988.499 1064.57 987.318 L 1066.56 987.983 L 1066 985.532 C 1070.44 984.744 1073.39 984.315 1077.87 983.99 C 1079.57 986.371 1078.5 985.563 1081.08 986.629 z"/>
<path transform="translate(0,0)" fill="rgb(254,181,31)" d="M 1052.75 751.154 L 1072.87 751.306 C 1072.32 758.999 1072.15 771.739 1062.17 772.924 C 1052.48 771.01 1052.86 758.688 1052.75 751.154 z"/>
<path transform="translate(0,0)" fill="rgb(254,181,31)" d="M 873.842 473.115 C 879.176 473.945 887.794 475.021 892.785 476.343 L 892.598 492.924 L 873.833 490.598 L 873.842 473.115 z"/>
<path transform="translate(0,0)" fill="rgb(0,0,0)" d="M 1460.3 498.212 C 1477.21 455.632 1509.25 467.191 1543.79 474.097 C 1556.63 476.666 1572.31 473.87 1579.88 488.158 C 1581.85 491.89 1581.28 493.604 1580.07 497.257 C 1577.2 497.786 1569.99 500.243 1567.46 501.805 C 1544.98 515.683 1556.29 539.558 1566.61 554.522 L 1559.42 561.709 C 1562.94 565.357 1567.89 570.133 1570.57 574.249 C 1569.86 570.521 1568.19 564.698 1569.48 561.619 C 1580.2 557.395 1593.24 588.939 1598.01 597.794 C 1596.52 601.071 1594.94 604.763 1593.33 607.94 C 1590.98 611.523 1587.85 617.151 1584.38 619.259 L 1582.31 618.912 L 1581.05 616.46 L 1580.82 614.983 C 1580.29 610.811 1577.66 606.474 1575.57 602.908 C 1572.92 597.541 1572.5 590.879 1571.73 584.866 L 1570.81 584.334 C 1564.73 592.425 1549.8 590.948 1541.14 587.879 C 1537.11 586.45 1535.35 576.544 1534.07 572.366 C 1533.84 563.738 1539.54 554.262 1538.42 548.03 C 1535.59 532.164 1531.25 526.717 1531.71 509.855 C 1533.29 507.049 1537.21 501.759 1539.19 498.92 C 1531.93 504.589 1527.05 511.139 1519.23 516.128 C 1507.82 517.834 1502.61 516.513 1492.69 510.284 C 1491.28 516.604 1490.47 520.49 1488.13 526.63 C 1502.12 519.961 1505.67 519.538 1521.14 519.588 C 1530.76 524.119 1535.82 544.155 1533.94 554.076 C 1533.27 557.625 1531.57 561.779 1531.16 565.174 C 1530.21 568.669 1530.31 570.752 1528 572.862 L 1524.49 573.694 C 1523.91 576.858 1529.55 583.567 1530.2 588.106 C 1531.42 596.612 1530.71 606.937 1529.23 615.271 C 1517.54 627.303 1503.76 640.015 1486.15 640.208 C 1484.73 640.23 1483.3 640.235 1481.88 640.223 C 1479.47 640.011 1477.21 639.478 1474.84 638.991 C 1475.23 633.866 1473.84 629.068 1472.7 624.054 C 1470.89 616.472 1470.02 608.259 1469.01 600.487 C 1468.96 585.017 1469.23 577.121 1471.61 561.836 C 1473.98 546.861 1476.13 539.342 1485.86 527.938 C 1472.96 533.207 1451.63 522.629 1451.76 507.364 C 1451.79 504.081 1457.47 499.918 1460.3 498.212 z"/>
<path transform="translate(0,0)" fill="rgb(0,0,0)" d="M 1582.68 500.446 C 1598.3 499.355 1613.35 501.996 1628.92 503.43 C 1634.91 504.504 1652.49 503.017 1657.58 505.087 C 1674.95 512.148 1695.7 532.588 1697.46 552.817 C 1699.05 571.079 1685.03 591.328 1663.77 580.323 C 1661.07 578.923 1655.85 564.938 1653.54 562.037 C 1645.07 552.26 1625.17 540.099 1613.89 533.786 C 1630.23 557.602 1657.96 560.947 1657.8 595.443 C 1657.78 601.181 1661.2 618.603 1654.38 621.741 C 1648.53 624.432 1645.68 625.099 1643.2 618.617 C 1643.67 609.316 1632.67 605.483 1624.83 613.367 L 1620.58 615.811 C 1602.93 607.942 1591.95 573.698 1580.9 558.822 C 1570.76 545.186 1548.63 535.519 1561.3 513.898 C 1566.42 505.155 1573.38 502.742 1582.68 500.446 z"/>
<path transform="translate(0,0)" fill="rgb(0,0,0)" d="M 1539.63 595.34 C 1553.6 594.573 1562.79 592.903 1573.32 603.617 C 1579.03 614.098 1576.83 613.017 1578.92 623.093 C 1574.99 624.087 1569.16 624.414 1564.99 624.785 C 1564.19 646.168 1555.59 639.607 1541.32 648.747 C 1509.2 669.326 1478.17 747.958 1443.51 679.266 C 1430.89 654.266 1423.84 631.653 1432.2 603.468 L 1433.26 603.635 C 1438.6 604.45 1444.44 604.504 1450.39 604.037 C 1459.06 603.358 1467.45 601.025 1467.2 613.893 C 1467.12 618.246 1462.12 617.838 1463.95 620.381 C 1465.96 623.109 1468.72 625.029 1470.62 628.006 C 1472.99 635.604 1472.97 639.525 1473.23 647.427 L 1473.34 648.14 L 1474.44 648.847 L 1487.06 644.032 C 1508.71 640.191 1521.12 631.522 1537.28 617.382 C 1538.64 611.151 1539.11 601.95 1539.63 595.34 z"/>
<path transform="translate(0,0)" fill="rgb(0,0,0)" d="M 1397.22 584.213 C 1388.15 580.761 1371.13 564.039 1376.51 554.646 C 1381.26 554.173 1389.59 560.857 1395.76 560.24 L 1396.6 559.051 C 1396.41 553.883 1393.47 549.036 1391.64 543.667 C 1388.23 533.688 1400.39 502.979 1414.38 510.486 C 1420.27 513.642 1421.78 523.837 1423.28 530.395 L 1436.03 524.675 C 1445.69 527.02 1442.97 525.554 1452.9 521.024 C 1456.21 520.792 1459.07 523.131 1461.95 524.959 C 1464.25 533.467 1464.28 534.35 1471.2 539.552 L 1469.98 553.665 C 1468.72 559.994 1465.82 580.147 1466.39 586.324 C 1463.89 598.257 1457.11 602.649 1445.06 601.211 C 1441.78 600.186 1438.53 599.351 1435.25 598.394 C 1426.83 595.935 1410.21 599.292 1407.87 588.725 C 1409.26 582.305 1414.26 579.163 1419.25 574.969 C 1413.66 575.561 1407.93 576.347 1402.33 577.044 L 1397.22 584.213 z M 1437 584.522 L 1436.24 582.545 C 1429.56 582.05 1427.79 582.342 1421.72 579.023 C 1425.44 585.052 1430.02 587.742 1437 584.522 z"/>
<path transform="translate(0,0)" fill="rgb(0,0,0)" fill-opacity="0.0588235" d="M 1421.72 579.023 C 1427.79 582.342 1429.56 582.05 1436.24 582.545 L 1437 584.522 C 1430.02 587.742 1425.44 585.052 1421.72 579.023 z"/>
<path transform="translate(0,0)" fill="rgb(0,0,0)" d="M 1595.41 609.495 C 1598.24 606.36 1597.45 606.294 1601.01 605.293 C 1607.9 606.73 1611.28 614.714 1616.06 617.363 C 1643.01 646.885 1634.8 642.672 1608.34 659.278 C 1613.98 657.92 1625 654.293 1629.79 657.025 C 1631.7 661.608 1631.51 670.953 1631.46 676.055 C 1631.3 692.07 1615.5 696.64 1605.13 705.159 C 1602.39 707.409 1605.73 709.276 1601.95 712.649 C 1570.27 716.901 1575.8 697.989 1575.87 675.616 C 1575.93 654.639 1575.69 641.712 1586.68 622.899 C 1588.42 620.818 1593.66 612.225 1595.41 609.495 z"/>
<path transform="translate(0,0)" fill="rgb(0,0,0)" d="M 1682.26 641.252 C 1686.89 641.289 1689.61 641.735 1693.77 643.895 C 1705.15 649.8 1727.19 679.26 1704.01 684.468 C 1697.99 684.677 1690.84 683.994 1684.75 683.581 C 1680.57 669.085 1659.08 649.526 1682.26 641.252 z"/>
<path transform="translate(0,0)" fill="rgb(0,0,0)" d="M 1542.56 661.078 L 1546.19 662.757 C 1549.41 666.147 1550.73 673.58 1550.92 678.16 C 1551.99 703.436 1532.98 700.367 1514.69 699.859 C 1509.83 699.486 1508.19 700.165 1505.52 695.988 C 1505.26 690.53 1511.12 684.777 1514.7 680.522 L 1524.43 677.566 C 1531.05 668.724 1532.43 664.8 1542.56 661.078 z"/>
<path transform="translate(0,0)" fill="rgb(0,0,0)" d="M 1678.57 590.273 C 1681.06 589.983 1683.57 589.776 1686.08 589.652 C 1692.72 589.364 1700.43 592.137 1699.66 600.065 C 1698.49 611.955 1687.28 622.546 1679.08 630.348 L 1671.66 636.54 C 1667.37 621.13 1664.16 609.861 1664.05 593.859 L 1678.57 590.273 z"/>
<path transform="translate(0,0)" fill="rgb(0,0,0)" d="M 1420.27 661.425 C 1423.85 661.941 1425.98 663.197 1428.71 665.342 C 1433.52 675.455 1418.81 681.493 1424.94 690.346 C 1431.71 689.895 1431.89 682.121 1436.99 680.039 C 1439.77 681.915 1448.96 696.88 1449.13 700.394 L 1446.97 702.175 C 1428.61 702.958 1412.85 701.951 1394.62 700.735 C 1407.26 685.467 1410.69 678.851 1420.27 661.425 z"/>
<path transform="translate(0,0)" fill="rgb(0,0,0)" fill-opacity="0.988235" d="M 1636.43 634.052 C 1638.25 633.964 1653.59 633.5 1653.5 636.565 C 1653.41 639.515 1648.02 654.972 1649.03 657.435 C 1652.41 665.579 1652.84 663.214 1648.73 671.069 C 1649.6 674.348 1652.58 675.059 1655.37 679.408 C 1655.24 685.182 1646.91 689.674 1641.58 696.436 C 1637.96 700.117 1626.96 707.734 1623.26 701.436 C 1624.14 695.421 1634.11 686.8 1638.83 681.993 C 1636.15 663.747 1635.27 652.262 1636.43 634.052 z"/>
<path transform="translate(0,0)" fill="url(#Gradient2)" d="M 1531.16 565.174 C 1532.34 567.794 1533.12 569.65 1534.07 572.366 C 1535.35 576.544 1537.11 586.45 1541.14 587.879 C 1549.8 590.948 1564.73 592.425 1570.81 584.334 L 1571.73 584.866 C 1572.5 590.879 1572.92 597.541 1575.57 602.908 L 1573.32 603.617 C 1562.79 592.903 1553.6 594.573 1539.63 595.34 C 1539.11 601.95 1538.64 611.151 1537.28 617.382 C 1521.12 631.522 1508.71 640.191 1487.06 644.032 L 1481.88 640.223 C 1483.3 640.235 1484.73 640.23 1486.15 640.208 C 1503.76 640.015 1517.54 627.303 1529.23 615.271 C 1530.71 606.937 1531.42 596.612 1530.2 588.106 C 1529.55 583.567 1523.91 576.858 1524.49 573.694 L 1528 572.862 C 1530.31 570.752 1530.21 568.669 1531.16 565.174 z"/>
<path transform="translate(0,0)" fill="rgb(0,0,0)" fill-opacity="0.984314" d="M 1725.95 667.415 C 1732.01 669.987 1741.65 673.081 1748.36 673.68 C 1750.24 673.811 1754.83 670.864 1756.4 672.072 C 1765.23 678.841 1763.68 673.974 1772.23 671.944 C 1775.6 671.144 1782.12 679.333 1785.09 682.317 C 1786.15 686.484 1787.66 691.483 1782.97 693.806 L 1773.63 687.617 C 1757.41 685.908 1741.08 687.305 1723 684.974 C 1723.76 678.942 1724.83 673.376 1725.95 667.415 z"/>
<path transform="translate(0,0)" fill="rgb(0,0,0)" fill-opacity="0.0235294" d="M 1580.07 497.257 C 1581.18 499.835 1580.44 499.092 1582.68 500.446 C 1573.38 502.742 1566.42 505.155 1561.3 513.898 C 1548.63 535.519 1570.76 545.186 1580.9 558.822 C 1591.95 573.698 1602.93 607.942 1620.58 615.811 L 1616.06 617.363 C 1611.28 614.714 1607.9 606.73 1601.01 605.293 C 1597.45 606.294 1598.24 606.36 1595.41 609.495 L 1593.33 607.94 C 1594.94 604.763 1596.52 601.071 1598.01 597.794 C 1593.24 588.939 1580.2 557.395 1569.48 561.619 C 1568.19 564.698 1569.86 570.521 1570.57 574.249 C 1567.89 570.133 1562.94 565.357 1559.42 561.709 L 1566.61 554.522 C 1556.29 539.558 1544.98 515.683 1567.46 501.805 C 1569.99 500.243 1577.2 497.786 1580.07 497.257 z"/>
<path transform="translate(0,0)" fill="rgb(0,0,0)" fill-opacity="0.0156863" d="M 1539.19 498.92 C 1537.21 501.759 1533.29 507.049 1531.71 509.855 C 1531.25 526.717 1535.59 532.164 1538.42 548.03 C 1539.54 554.262 1533.84 563.738 1534.07 572.366 C 1533.12 569.65 1532.34 567.794 1531.16 565.174 C 1531.57 561.779 1533.27 557.625 1533.94 554.076 C 1535.82 544.155 1530.76 524.119 1521.14 519.588 L 1519.23 516.128 C 1527.05 511.139 1531.93 504.589 1539.19 498.92 z"/>
<path transform="translate(0,0)" fill="rgb(0,0,0)" fill-opacity="0.0196078" d="M 1466.39 586.324 L 1467.72 587.009 C 1467.95 589.349 1468.6 599.004 1469.01 600.487 C 1470.02 608.259 1470.89 616.472 1472.7 624.054 L 1472.04 627.468 L 1470.62 628.006 C 1468.72 625.029 1465.96 623.109 1463.95 620.381 C 1462.12 617.838 1467.12 618.246 1467.2 613.893 C 1467.45 601.025 1459.06 603.358 1450.39 604.037 C 1444.44 604.504 1438.6 604.45 1433.26 603.635 L 1432.2 603.468 C 1438.94 601.672 1439.27 604.804 1445.06 601.211 C 1457.11 602.649 1463.89 598.257 1466.39 586.324 z"/>
<path transform="translate(0,0)" fill="url(#Gradient1)" d="M 1492.69 510.284 C 1502.61 516.513 1507.82 517.834 1519.23 516.128 L 1521.14 519.588 C 1505.67 519.538 1502.12 519.961 1488.13 526.63 C 1490.47 520.49 1491.28 516.604 1492.69 510.284 z"/>
<path transform="translate(0,0)" fill="rgb(0,0,0)" fill-opacity="0.976471" d="M 1665.63 675.642 C 1668.05 674.283 1671.02 674.358 1673.37 675.839 C 1675.72 677.32 1677.07 679.968 1676.89 682.74 C 1676.71 685.511 1675.03 687.961 1672.5 689.124 C 1668.81 690.826 1664.44 689.309 1662.59 685.687 C 1660.74 682.066 1662.08 677.632 1665.63 675.642 z"/>
<path transform="translate(0,0)" fill="rgb(0,0,0)" fill-opacity="0.984314" d="M 1625 623.1 C 1625.97 616.191 1627.32 612.001 1635.4 611.788 C 1641.55 614.411 1642.12 616.763 1640.18 622.718 C 1633.49 626.622 1631.26 628.107 1625 623.1 z"/>
<path transform="translate(0,0)" fill="rgb(0,0,0)" fill-opacity="0.188235" d="M 1469.98 553.665 L 1470.01 560.983 L 1471.61 561.836 C 1469.23 577.121 1468.96 585.017 1469.01 600.487 C 1468.6 599.004 1467.95 589.349 1467.72 587.009 L 1466.39 586.324 C 1465.82 580.147 1468.72 559.994 1469.98 553.665 z"/>
<path transform="translate(0,0)" fill="rgb(0,0,0)" fill-opacity="0.952941" d="M 1785.09 682.317 C 1789.74 686.057 1794.3 690.106 1791.18 696.464 C 1787.9 697.123 1785.61 695.914 1782.97 693.806 C 1787.66 691.483 1786.15 686.484 1785.09 682.317 z"/>
<path transform="translate(0,0)" fill="rgb(0,0,0)" fill-opacity="0.25098" d="M 1624.83 613.367 C 1632.67 605.483 1643.67 609.316 1643.2 618.617 L 1641.96 621.968 L 1640.18 622.718 C 1642.12 616.763 1641.55 614.411 1635.4 611.788 C 1627.32 612.001 1625.97 616.191 1625 623.1 C 1623.79 618.099 1626.28 617.43 1624.83 613.367 z"/>
<path transform="translate(0,0)" fill="rgb(0,0,0)" fill-opacity="0.172549" d="M 1593.33 607.94 L 1595.41 609.495 C 1593.66 612.225 1588.42 620.818 1586.68 622.899 L 1585.57 620.934 C 1583.33 620.507 1583.02 620.462 1580.98 619.506 L 1581.05 616.46 L 1582.31 618.912 L 1584.38 619.259 C 1587.85 617.151 1590.98 611.523 1593.33 607.94 z"/>
<path transform="translate(0,0)" fill="rgb(0,0,0)" fill-opacity="0.270588" d="M 1575.57 602.908 C 1577.66 606.474 1580.29 610.811 1580.82 614.983 C 1578.43 617.6 1579.18 618.753 1578.92 623.093 C 1576.83 613.017 1579.03 614.098 1573.32 603.617 L 1575.57 602.908 z"/>
<path transform="translate(0,0)" fill="rgb(0,0,0)" fill-opacity="0.513725" d="M 1472.7 624.054 C 1473.84 629.068 1475.23 633.866 1474.84 638.991 C 1473.31 642.557 1473.9 644.041 1473.23 647.427 C 1472.97 639.525 1472.99 635.604 1470.62 628.006 L 1472.04 627.468 L 1472.7 624.054 z"/>
<path transform="translate(0,0)" fill="rgb(0,0,0)" d="M 1033.99 518.977 C 1036.67 518.909 1038.45 519.133 1041.07 519.406 C 1041.57 519.804 1042.18 520.287 1042.89 520.854 C 1048.97 547.441 1056.19 587.125 1060.33 613.004 C 1054.13 613.207 1047.94 613.369 1041.75 613.491 C 1032.14 613.336 1022.54 613.241 1012.93 613.207 C 1017.59 589.447 1027.15 541.07 1033.99 518.977 z"/>
<path transform="translate(0,0)" fill="rgb(0,0,0)" fill-opacity="0.988235" d="M 1630.04 418.268 C 1647.65 414.957 1647.55 457.3 1643.11 463.307 C 1637.95 466.515 1636.08 464.847 1631.89 469.7 C 1626.78 475.622 1620.93 480.638 1616.64 487.32 C 1617.22 492.83 1620.66 489.485 1618.55 493.766 C 1614.61 495.377 1602.69 494.967 1600.21 490.205 C 1599.52 488.873 1600.53 485.563 1600.95 483.94 C 1602.84 483.343 1615.52 468.524 1618.09 465.684 L 1629.65 453.52 C 1629.73 444.453 1630.46 426.425 1630.04 418.268 z"/>
<path transform="translate(0,0)" fill="rgb(0,0,0)" fill-opacity="0.00784314" d="M 1373.96 604.897 C 1377 617.581 1384.21 613.583 1380.07 626.564 C 1377.4 634.936 1380.67 645.39 1383.47 653.62 C 1379.09 657.928 1357.42 689.734 1358.67 693.924 L 1358.87 695.068 C 1349.45 692.386 1344.79 692.052 1335.3 691.644 C 1346.01 685.31 1357.68 677.13 1366.97 668.851 C 1377.37 659.578 1373.78 648.324 1373.13 635.976 C 1372.74 628.537 1372.68 622.018 1372.84 614.399 L 1373.96 604.897 z"/>
<path transform="translate(0,0)" fill="rgb(0,0,0)" d="M 1230.62 709.158 C 1229.14 712.133 1228.93 712.839 1226.24 714.722 C 1220.82 715.473 1220.98 712.854 1218.76 712.81 C 1213.61 712.707 1194.19 716.606 1193.43 708.436 C 1192.62 699.584 1198.02 698.931 1205.04 698.135 C 1212.65 690.654 1220.07 696.448 1229.05 699.615 C 1229.56 702.618 1230.26 706.189 1230.62 709.158 z"/>
<path transform="translate(0,0)" fill="rgb(0,0,0)" fill-opacity="0.0313725" d="M 1364.43 612.884 C 1364.9 619.204 1351.14 634.759 1347.42 642.306 C 1332.85 671.859 1339.99 685.757 1306.28 667.958 L 1304.52 666.576 C 1312.67 662.828 1328.47 683.516 1334.65 662.28 C 1341.31 639.378 1348.89 630.396 1364.43 612.884 z"/>
<path transform="translate(0,0)" fill="rgb(0,0,0)" fill-opacity="0.054902" d="M 1627.42 416.277 C 1628.81 417.931 1628.36 417.963 1630.04 418.268 C 1630.46 426.425 1629.73 444.453 1629.65 453.52 L 1618.09 465.684 L 1615.36 464.832 C 1629.04 447.814 1625.91 438.95 1627.42 416.277 z"/>
<path transform="translate(0,0)" fill="rgb(0,0,0)" fill-opacity="0.0588235" d="M 1372.84 614.399 C 1370.24 593.347 1364.23 591.528 1348.67 576.623 C 1359.91 582.472 1374.68 590.716 1373.96 604.897 L 1372.84 614.399 z"/>
<path transform="translate(0,0)" fill="rgb(0,0,0)" fill-opacity="0.0901961" d="M 1358.67 693.924 C 1369 695.278 1374.64 696.472 1375.75 707.933 L 1374.64 707.087 L 1373.82 714.271 C 1372.13 700.188 1371.58 701.149 1358.87 695.068 L 1358.67 693.924 z"/>
<path transform="translate(0,0)" fill="rgb(0,0,0)" fill-opacity="0.384314" d="M 1615.36 464.832 L 1618.09 465.684 C 1615.52 468.524 1602.84 483.343 1600.95 483.94 L 1598.7 483.224 C 1604.33 477.211 1609.62 470.627 1615.36 464.832 z"/>
<path transform="translate(0,0)" fill="rgb(0,0,0)" fill-opacity="0.168627" d="M 1303.22 582.016 C 1305.81 586.334 1306.66 587.86 1306.9 593.138 L 1305.68 594.406 L 1306.65 595.366 L 1306.91 594.68 L 1305.53 594.841 C 1302.41 589.802 1303.88 589.483 1302.01 585.487 L 1303.22 582.016 z"/>
<path transform="translate(0,0)" fill="rgb(0,0,0)" fill-opacity="0.0392157" d="M 1233.19 699.749 C 1232.85 703.057 1233.09 704.491 1233.47 707.703 L 1230.62 709.158 C 1230.26 706.189 1229.56 702.618 1229.05 699.615 L 1233.19 699.749 z"/>
<path transform="translate(0,0)" fill="rgb(0,0,0)" fill-opacity="0.180392" d="M 1251.81 564.047 L 1253.96 566.789 C 1251.4 568.691 1249.85 570.239 1246.74 570.789 L 1245.66 569.694 C 1247.2 566.661 1248.99 565.852 1251.81 564.047 z"/>
<path transform="translate(0,0)" fill="rgb(0,0,0)" d="M 640.187 796.543 C 643.989 797.577 647.729 805.273 650.059 809.06 C 640.033 818.087 625.604 827.9 614.388 837.594 L 654.644 816.39 C 657.67 820.183 659.928 823.935 662.484 828.022 C 653.287 836.637 637.09 849.1 626.915 857.454 C 639.937 851.466 653.855 842.533 667.478 835.85 C 670.406 839.963 673.926 843.791 673.421 848.671 C 667.878 853.451 638.088 868.453 630.323 872.537 C 617.829 879.663 604.39 885.912 591.604 893.291 L 582.55 879.095 C 595.26 868.417 608.222 858.152 620.904 847.382 C 607.417 853.714 590.529 863.408 577.127 870.614 C 574.21 866.684 570.606 860.559 567.914 856.285 C 583.545 840.942 621.659 811.595 640.187 796.543 z"/>
<path transform="translate(0,0)" fill="rgb(0,0,0)" d="M 1054.51 39.3261 C 1062.42 38.0824 1079.31 38.0344 1085.12 44.0349 C 1089.16 55.4656 1082.6 118.058 1080.48 133.669 C 1079.85 138.284 1077.47 140.712 1073.66 143.019 C 1066.38 143.868 1058.44 143.497 1051.22 142.202 C 1049.07 141.815 1044.45 140.701 1043.25 138.771 C 1038.28 130.777 1044.86 62.4357 1047.43 49.9534 C 1048.52 44.6067 1049.91 42.2987 1054.51 39.3261 z M 1062.45 128.964 C 1064.47 121.939 1069.01 61.5309 1068.14 55.4888 C 1067.48 54.8707 1066.48 53.8626 1065.78 53.3774 C 1062.93 59.1443 1059.1 116.229 1059.74 126.541 C 1059.8 127.562 1061.34 128.239 1062.45 128.964 z"/>
<path transform="translate(0,0)" fill="rgb(0,0,0)" d="M 721.719 132.069 C 724.864 134.803 740.109 155.574 743.67 160.572 C 756.202 178.157 770.758 196.314 782.75 214.071 C 777.901 218.651 775.474 220.289 770.048 223.909 C 759.623 213.603 747.058 202.47 736.202 192.41 C 740.788 200.772 756.217 220.985 762.506 229.798 C 759.651 232.87 755.895 235.434 752.492 237.94 L 750.623 238.124 C 746.243 236.205 694.856 165.294 688.825 156.264 C 692.23 153.384 698.109 149.345 701.856 146.589 C 709.725 154.638 725.549 168.796 734.234 175.837 C 728.075 166.119 716.596 151.566 709.419 141.392 C 712.507 138.568 718.187 134.659 721.719 132.069 z"/>
<path transform="translate(0,0)" fill="rgb(0,0,0)" d="M 1153.39 52.6698 L 1169.17 57.0819 C 1167.56 66.9937 1165.77 91.7347 1165.83 101.59 C 1168.79 89.7713 1174.18 70.9766 1178.26 59.6672 L 1193.29 64.3249 C 1189 78.6479 1168.62 155.025 1163.78 162.857 L 1149.95 158.228 C 1150.99 143.12 1152.59 128.026 1153.59 112.799 C 1148.9 123.731 1143.46 144.379 1140.07 156.445 L 1125.39 151.664 C 1132.97 121.102 1144.29 82.9649 1153.39 52.6698 z"/>
<path transform="translate(0,0)" fill="rgb(0,0,0)" d="M 804.377 85.9675 L 806.405 86.0236 C 811.154 88.0676 854.829 163.331 860.076 173.206 C 854.252 176.289 849.864 178.001 843.779 180.391 C 841.257 175.634 836.355 163.328 831.263 163.346 L 829.786 165.261 L 835.951 184.461 C 830.875 187.314 825.411 189.55 820.064 191.872 C 812.028 170.889 805.33 148.986 797.414 127.901 C 793.293 116.922 789.151 105.233 785.952 94.0044 L 804.377 85.9675 z M 826.657 150.586 C 825.554 144.231 816.122 127.238 812.082 122.819 C 814.479 130.387 818.728 149.202 826.657 150.586 z"/>
<path transform="translate(0,0)" fill="rgb(0,0,0)" fill-opacity="0.0509804" d="M 812.082 122.819 C 816.122 127.238 825.554 144.231 826.657 150.586 C 818.728 149.202 814.479 130.387 812.082 122.819 z"/>
<path transform="translate(0,0)" fill="rgb(0,0,0)" d="M 1261.33 92.4475 C 1267.14 93.8705 1277.64 100.242 1282.85 103.355 C 1279.05 111.082 1273.63 126.535 1270.2 135.389 C 1262.07 156.686 1253.73 177.901 1245.16 199.029 C 1240.87 197.248 1233.47 193.177 1229.08 190.924 C 1231.31 186.555 1233.89 179.995 1235.88 175.347 C 1236.53 172.578 1236.86 171.596 1235.32 169.441 C 1230.45 170.456 1224.18 182.034 1221.48 186.328 C 1216.19 184.377 1210.49 181.548 1205.33 179.149 C 1224.13 151.354 1243.07 120.819 1261.33 92.4475 z M 1241.97 158.604 C 1246.26 155.759 1255.21 135.111 1255.61 130.038 C 1251.56 134.943 1241.24 149.938 1240.97 156.015 L 1241.97 158.604 z"/>
<path transform="translate(0,0)" fill="rgb(0,0,0)" fill-opacity="0.0509804" d="M 1255.61 130.038 C 1255.21 135.111 1246.26 155.759 1241.97 158.604 L 1240.97 156.015 C 1241.24 149.938 1251.56 134.943 1255.61 130.038 z"/>
<path transform="translate(0,0)" fill="rgb(0,0,0)" d="M 616.517 924.448 L 687.751 860.474 C 712.891 888.212 715.129 889.049 683.615 913.888 C 680.701 916.184 677.677 917.585 674.326 919.08 C 667.758 930.763 652.148 943.636 641.956 953 C 638.109 948.58 635.016 944.999 630.717 940.944 C 634.975 936.586 658.832 917.241 657.886 912.711 C 651.079 914.083 634.492 931.515 627.327 937.059 C 624.183 932.276 620.436 928.585 616.517 924.448 z M 671.431 903.459 C 676.504 899.346 689.182 889.837 690.335 884.018 L 688.752 882.598 C 683.583 886.806 670.656 896.156 669.523 901.767 L 671.431 903.459 z"/>
<path transform="translate(0,0)" fill="rgb(0,0,0)" fill-opacity="0.0156863" d="M 688.752 882.598 L 690.335 884.018 C 689.182 889.837 676.504 899.346 671.431 903.459 L 669.523 901.767 C 670.656 896.156 683.583 886.806 688.752 882.598 z"/>
<path transform="translate(0,0)" fill="rgb(0,0,0)" d="M 939.372 1012.6 C 943.455 1012.86 950.585 1014.14 954.851 1014.76 C 954.403 1025.41 955.242 1042.84 955.62 1053.73 C 958.688 1043.72 960.973 1027.12 963.298 1016.06 C 967.912 1016.97 972.995 1017.54 977.688 1018.16 C 972.995 1048.15 968.046 1082.87 962.034 1112.36 C 957.408 1111.54 952.761 1110.84 948.099 1110.26 C 947.744 1097.02 947.699 1081.88 946.251 1068.86 C 943.059 1080.57 940.739 1096.96 938.523 1109.31 C 933.711 1108.03 929.603 1107.46 924.713 1106.73 C 930.107 1076.59 934.724 1043.03 939.372 1012.6 z"/>
<path transform="translate(0,0)" fill="rgb(0,0,0)" d="M 1344.43 885.668 C 1349 886.641 1401.85 943.948 1409.89 952.356 L 1400.13 962.502 C 1387.97 955.136 1377 945.914 1363.95 938.307 C 1370.75 945.837 1387.5 961.063 1392.24 968.259 C 1391.72 971.615 1389.19 973.303 1386.58 975.781 L 1384.46 977.879 C 1379.65 977.15 1324.95 918.599 1317.76 910.957 C 1321.15 907.61 1324.84 904.232 1328.31 900.944 C 1339.53 907.877 1349.81 916.032 1361.42 923.217 C 1354.3 914.894 1342.41 903.251 1334.57 894.897 L 1344.43 885.668 z"/>
<path transform="translate(0,0)" fill="rgb(0,0,0)" d="M 1009.58 1020.4 C 1040.65 1019.24 1036.35 1026.99 1036.08 1054.08 C 1030.45 1053.92 1025.55 1054.01 1019.95 1054.18 C 1020.01 1046.69 1020.45 1042.68 1018.16 1035.61 L 1017.19 1035.67 C 1014.77 1040.97 1012.87 1063.22 1016.65 1067.43 C 1023.36 1066.85 1028.27 1066.8 1034.97 1066.82 C 1034.68 1074.34 1034.84 1082.84 1034.81 1090.44 C 1034.81 1095.26 1035.63 1111.91 1032.92 1114.97 C 1021.38 1112.87 1019.21 1116.74 1008.3 1116.64 C 1005.33 1116.61 999.625 1114.1 999.169 1111.02 C 997.214 1097.86 996.246 1032.58 1000.78 1023.6 C 1003.61 1021.01 1005.77 1021.01 1009.58 1020.4 z M 1017.47 1103.89 C 1018.59 1096.64 1019.49 1082.15 1016.16 1075.65 C 1014.49 1081.08 1012.66 1100.33 1017.47 1103.89 z"/>
<path transform="translate(0,0)" fill="rgb(0,0,0)" fill-opacity="0.0980392" d="M 1016.16 1075.65 C 1019.49 1082.15 1018.59 1096.64 1017.47 1103.89 C 1012.66 1100.33 1014.49 1081.08 1016.16 1075.65 z"/>
<path transform="translate(0,0)" fill="rgb(0,0,0)" d="M 765.155 938.801 C 769.788 939.125 771.49 940.317 775.558 941.902 C 801.267 951.919 788.847 967.21 777.43 984.09 C 773.076 980.855 768.021 977.747 763.428 974.79 C 766.961 969.513 771.306 964.126 772.251 957.946 L 771.14 957.499 C 764.821 962.894 763.252 966.486 759.447 973.761 C 761.706 977.917 767.978 988.702 767.561 993.119 C 766.636 1002.91 752.371 1020.35 745.726 1027.94 C 743.12 1030.91 740.419 1030.33 737.269 1030.22 C 704.782 1012.94 715.655 1005.9 733.673 981.098 C 738.045 984.117 742.609 986.957 747.096 989.813 C 743.648 995.857 734.144 1007.42 734.177 1013.02 L 735.762 1013.61 C 740.274 1011.56 741.33 1007.38 743.95 1004.48 C 759.173 987.636 740.638 983.176 743.833 968.426 C 745.302 961.642 758.825 942.139 765.155 938.801 z"/>
<path transform="translate(0,0)" fill="rgb(0,0,0)" d="M 1293.06 930.604 C 1297.21 931.074 1312.73 950.054 1316.37 954.126 C 1330.17 969.664 1344.14 985.047 1358.28 1000.27 C 1353.73 1003.73 1349.7 1006.86 1345.31 1010.56 C 1341.84 1006.86 1334.83 996.554 1329.7 996.697 L 1329.02 998.305 L 1330.28 1001.38 L 1337.98 1015.03 L 1325.62 1025.14 C 1313.85 1006.6 1303.12 986.96 1291.51 968.267 C 1286.48 960.163 1280.76 950.872 1276.91 942.238 L 1293.06 930.604 z M 1323.46 986.252 C 1322.08 979.945 1310.81 968.413 1306.01 963.965 C 1308.65 970.042 1316.41 986.377 1323.46 986.252 z"/>
<path transform="translate(0,0)" fill="rgb(0,0,0)" fill-opacity="0.0627451" d="M 1306.01 963.965 C 1310.81 968.413 1322.08 979.945 1323.46 986.252 C 1316.41 986.377 1308.65 970.042 1306.01 963.965 z"/>
<path transform="translate(0,0)" fill="rgb(0,0,0)" fill-opacity="0.988235" d="M 1118.69 1011.36 L 1122 1011.06 C 1122.62 1011.43 1123.23 1011.79 1123.85 1012.16 C 1130.55 1030.04 1147.3 1086.56 1151.77 1101.32 C 1146.89 1102.56 1140.19 1103.66 1135.12 1104.65 C 1133.93 1098.14 1132.43 1090.32 1129.46 1084.47 L 1127.09 1085.61 C 1125.1 1089.09 1126.83 1101.57 1127.25 1106.41 C 1120.63 1107.32 1118.11 1108 1111.8 1109.91 C 1109.19 1080.54 1105.8 1043.81 1101.81 1014.78 C 1107.01 1013.23 1113.28 1012.31 1118.69 1011.36 z M 1127.1 1072.9 C 1126.57 1067.07 1123.1 1053.79 1120.26 1048.72 C 1120.45 1057 1120.05 1063.25 1122.91 1071.06 C 1124.79 1072.69 1124.66 1072.69 1127.1 1072.9 z"/>
<path transform="translate(0,0)" fill="rgb(0,0,0)" fill-opacity="0.0313725" d="M 1120.26 1048.72 C 1123.1 1053.79 1126.57 1067.07 1127.1 1072.9 C 1124.66 1072.69 1124.79 1072.69 1122.91 1071.06 C 1120.05 1063.25 1120.45 1057 1120.26 1048.72 z"/>
<path transform="translate(0,0)" fill="rgb(0,0,0)" fill-opacity="0.988235" d="M 1381.7 842.8 C 1390.37 843.045 1400.78 853.083 1408.38 858.849 C 1405.14 863.304 1401.56 867.716 1398.13 872.045 C 1394.51 869.249 1386.49 862.141 1382.62 862.113 L 1381.67 863.107 C 1384.02 868.155 1430.72 904.224 1435.02 904.636 C 1434.52 898.536 1420.2 889.459 1415.32 885.663 C 1419.56 881.151 1421.31 875.255 1426.92 874.122 L 1429.62 876.014 C 1450.69 892.033 1466.91 902.661 1432.17 923.065 C 1428.67 925.119 1372.36 878.635 1366.52 872.23 C 1357.75 862.594 1374.18 848.182 1381.7 842.8 z"/>
<path transform="translate(0,0)" fill="rgb(0,0,0)" fill-opacity="0.988235" d="M 904.378 52.058 L 906.838 53.1619 C 913.441 62.6039 902.524 67.6168 904.092 73.9283 C 905.93 81.3266 908.58 90.7783 910.572 98.4255 C 915.338 116.517 919.93 134.654 924.347 152.834 C 919.524 154.472 908.406 159.21 905.98 153.44 C 902.76 141.649 888.191 78.9071 883.771 73.6201 C 880.829 72.9845 880.063 72.7908 877.341 71.5274 C 874.496 68.9283 873.94 63.8743 873.08 59.9403 C 883.54 57.4215 893.973 54.794 904.378 52.058 z"/>
<path transform="translate(0,0)" fill="rgb(0,0,0)" fill-opacity="0.988235" d="M 1344.46 141.526 C 1348.07 144.034 1354.47 149.371 1358.12 152.241 C 1343.99 175.668 1322.36 196.986 1308.44 220.708 C 1306.07 224.74 1318.28 235.194 1303.23 239.799 C 1296.3 234.422 1288.55 228.951 1281.44 223.723 C 1293.5 207.103 1305.87 190.707 1318.54 174.543 C 1326.57 164.095 1335.88 151.245 1344.46 141.526 z"/>
<path transform="translate(0,0)" fill="rgb(0,0,0)" fill-opacity="0.988235" d="M 727.554 904.524 C 732.042 906.894 743.723 917.23 747.832 920.764 C 745.841 924.021 742.756 928.127 740.488 931.33 C 738.281 929.792 735.12 927.036 732.945 925.244 C 727.154 931.176 722.781 936.285 717.46 942.664 L 724.323 948.967 C 721.802 952.024 718.413 957.126 714.927 957.861 L 711.619 955.488 C 704.279 955.052 689.365 972.285 688.803 978.505 L 691.496 981.613 L 693.053 983.01 C 692.62 985.87 688.309 991.08 686.368 993.738 C 680.878 989.648 671.537 980.713 666.14 975.843 C 686.398 951.888 706.87 928.114 727.554 904.524 z"/>
<path transform="translate(0,0)" fill="rgb(0,0,0)" fill-opacity="0.988235" d="M 1408.51 799.403 C 1411.86 800.902 1415.88 802.164 1417.74 805.055 C 1418.33 808.418 1416.39 810.877 1414.66 814.075 C 1420.31 816.537 1425.47 821.446 1431.02 823.476 C 1436.83 825.607 1440.17 817.591 1448.09 821.127 C 1450.29 825.395 1447.78 829.187 1445.81 833.001 C 1453.67 836.757 1467.52 848.433 1474.31 847.964 C 1476.32 845.674 1476.82 844.836 1479.67 843.884 C 1483.22 844.062 1486.6 846.903 1489.65 848.969 L 1484.06 857.606 L 1475.16 871.296 C 1456.2 858.66 1435.81 847.328 1416.59 835.036 C 1409.5 830.505 1401.94 825.909 1394.55 821.956 C 1399.22 813.936 1403.38 807.125 1408.51 799.403 z"/>
<path transform="translate(0,0)" fill="rgb(0,0,0)" fill-opacity="0.988235" d="M 979.928 39.4182 C 983.243 39.1339 982.28 38.7435 984.779 40.1732 C 986.346 47.6402 987.43 66.2063 988.124 74.4187 L 993.687 142.591 L 981.243 143.628 C 977.834 143.869 978.71 144.315 976.313 142.787 C 974.327 134.126 973.17 115.569 972.332 105.953 L 966.475 40.226 C 970.882 40.0768 975.509 39.7028 979.928 39.4182 z"/>
<path transform="translate(0,0)" fill="rgb(0,0,0)" fill-opacity="0.988235" d="M 811.254 965.702 C 817.999 967.885 834.597 976.429 840.442 980.217 C 838.904 983.732 838.285 985.243 836.129 988.463 C 832.206 990.565 833.715 990.066 829.058 989.764 C 824.553 991.975 799.753 1043.04 795.06 1052.21 L 790.408 1061.19 C 786.152 1059.06 780.848 1056.76 777.436 1053.59 C 777.721 1042.6 806.657 997.756 810.482 983.911 C 812.626 976.15 803.721 981.006 811.254 965.702 z"/>
<path transform="translate(0,0)" fill="rgb(0,0,0)" fill-opacity="0.988235" d="M 1210.14 981.086 C 1215.04 983.627 1238.41 1043.38 1244.93 1051.63 C 1245.55 1052.41 1251.92 1052.98 1253.55 1053.32 C 1256.65 1054.96 1257.79 1059.08 1259.21 1062.47 L 1243.22 1069.96 C 1240.58 1071.21 1237.04 1072.45 1234.26 1073.51 C 1222.21 1044.43 1207.73 1016.16 1195.8 986.655 C 1200.6 984.528 1205.22 982.878 1210.14 981.086 z"/>
<path transform="translate(0,0)" fill="rgb(0,0,0)" fill-opacity="0.988235" d="M 857.846 987.323 C 861.574 988.263 869.529 991.39 873.455 992.8 C 865.833 1017.88 854.979 1042.1 847.076 1067.07 C 845.66 1071.55 859.764 1073.63 848.755 1084.91 C 840.693 1082.79 834.257 1079.17 824.816 1077.18 C 825.73 1073.9 826.772 1070.81 827.994 1067.62 C 838.215 1041.01 847.211 1013.77 857.846 987.323 z"/>
<path transform="translate(0,0)" fill="rgb(0,0,0)" fill-opacity="0.988235" d="M 1164.08 999.093 C 1164.79 998.836 1168.12 998.494 1168.47 999.074 C 1176.23 1011.67 1187.58 1065.09 1195.63 1073.74 C 1198.67 1073.41 1199.12 1073.47 1202.11 1074.13 C 1205.47 1077.6 1205.03 1079.09 1206.42 1084.22 C 1201.67 1086.52 1197.22 1087.87 1192.24 1089.5 C 1187.63 1090.8 1186.15 1091.39 1181.84 1093.49 C 1172.03 1063.39 1162.8 1032.26 1152.63 1002.37 L 1164.08 999.093 z"/>
<path transform="translate(0,0)" fill="rgb(0,0,0)" fill-opacity="0.988235" d="M 1249.2 959.865 L 1251.9 960.23 C 1256.28 963.878 1294.09 1032.28 1298.67 1041.4 L 1286.33 1048.77 L 1285.56 1048.96 C 1284.96 1048.75 1284.36 1048.53 1283.75 1048.32 C 1270.89 1025.79 1249.1 988.103 1237.11 967.394 C 1240.43 964.981 1245.58 962.062 1249.2 959.865 z"/>
<path transform="translate(0,0)" fill="rgb(0,0,0)" d="M 901.35 1002.54 L 917.776 1006.05 C 916.094 1016.46 910.377 1035.74 907.463 1046.23 C 902.846 1062.86 898.017 1082.45 892.491 1098.61 C 887.338 1096.88 881.934 1095.78 876.626 1094.57 C 884.869 1070.09 894.432 1028.66 901.35 1002.54 z"/>
<path transform="translate(0,0)" fill="rgb(0,0,0)" fill-opacity="0.0156863" d="M 627.327 937.059 C 634.492 931.515 651.079 914.083 657.886 912.711 C 658.832 917.241 634.975 936.586 630.717 940.944 C 629.98 939.657 629.038 939.36 627.754 938.735 L 627.327 937.059 z"/>
</svg>