<?xml version="1.0" encoding="UTF-8" standalone="no"?>
<!-- Created with Inkscape (http://www.inkscape.org/) -->
<svg
   xmlns:dc="http://purl.org/dc/elements/1.1/"
   xmlns:cc="http://creativecommons.org/ns#"
   xmlns:rdf="http://www.w3.org/1999/02/22-rdf-syntax-ns#"
   xmlns:svg="http://www.w3.org/2000/svg"
   xmlns="http://www.w3.org/2000/svg"
   xmlns:sodipodi="http://sodipodi.sourceforge.net/DTD/sodipodi-0.dtd"
   xmlns:inkscape="http://www.inkscape.org/namespaces/inkscape"
   width="300"
   height="300"
   viewBox="0 0 264.58333 264.58334"
   version="1.1"
   id="svg8"
   inkscape:version="0.92.3 (2405546, 2018-03-11)"
   sodipodi:docname="PWG Logo.svg">
  <title
     id="title4543">PWG Logo</title>
  <defs
     id="defs2" />
  <sodipodi:namedview
     id="base"
     pagecolor="#ffffff"
     bordercolor="#666666"
     borderopacity="1.0"
     inkscape:pageopacity="0.0"
     inkscape:pageshadow="2"
     inkscape:zoom="0.34"
     inkscape:cx="-12.941176"
     inkscape:cy="451.2605"
     inkscape:document-units="px"
     inkscape:current-layer="layer1"
     showgrid="false"
     units="px"
     inkscape:showpageshadow="false"
     inkscape:snap-global="false" />
  <metadata
     id="metadata5">
    <rdf:RDF>
      <cc:Work
         rdf:about="">
        <dc:format>image/svg+xml</dc:format>
        <dc:type
           rdf:resource="http://purl.org/dc/dcmitype/StillImage" />
        <dc:title>PWG Logo</dc:title>
      </cc:Work>
    </rdf:RDF>
  </metadata>
  <g
     inkscape:label="Layer 1"
     inkscape:groupmode="layer"
     id="layer1"
     transform="translate(0,-32.41665)">
    <g
       id="g837"
       transform="translate(-3.702051e-7,1.7551472e-6)">
      <path
         inkscape:connector-curvature="0"
         id="path4638"
         d="m 214.16345,193.96935 -18.62066,-2.6601 -25.12311,-4.72905 -82.167351,1.47782 -22.247252,2.18252 -21.526663,8.56886 1.671976,-16.92873 27.796563,-42.63534 27.169567,-43.05332 c 0,0 14.42078,-12.330812 15.46577,-12.539809 1.04498,-0.208997 23.61663,-5.433915 23.61663,-5.433915 l 11.70381,0.208996 19.22771,13.375791 10.03184,21.317667 7.31488,18.80971 0.83599,19.43669 1.46298,11.28582 7.10589,8.15088 7.94187,4.80693 6.2699,13.58478 4.59793,4.80693 z"
         style="fill:#999999;fill-opacity:1;stroke:none;stroke-width:0.28137884px;stroke-linecap:butt;stroke-linejoin:miter;stroke-opacity:1" />
      <path
         inkscape:connector-curvature="0"
         id="path4640"
         d="m 150.91233,185.54571 17.14282,-1.92117 c 0,0 3.84236,-32.2167 4.58127,-32.66005 0.73891,-0.44334 0.0739,-10.86205 0.0739,-10.86205 l -3.17733,-3.69458 -3.02956,-1.47782 -3.95319,-1.33005 -2.03202,-0.40641 -5.43102,1.10838 -3.84236,0.59113 -2.77093,1.51477 -4.50739,8.49753 -0.73891,3.84236 -3.39901,11.97043 -2.80788,2.36453 -0.59113,15.22164 11.08372,7.53694 z"
         style="fill:#ffffff;fill-opacity:1;stroke:none;stroke-width:0.28137884px;stroke-linecap:butt;stroke-linejoin:miter;stroke-opacity:1" />
      <path
         sodipodi:nodetypes="csccccccsccsscsccscccccccccccccccccccccccccccccccccccccscscccscssccccccscccccsccscssscccscccccccccccscccccscssccccccsssscsccccccscscscccccsccccccccccccscccccscccccsccccccccccsccsccccccsscccsscccsccscsccccccccccccccscccscccccccscscccccccsscccsccscscccccscccsscsccsccccccccscccscccscccsccccccscccccccscccsccccccccccccscccsccscscccccccccsscccccccccccccccscscscccsssccccsccccccsccccccccsscsccccccscccssccccccccccccsscsccccccsccccccccccsscccscsccsscccscscsscccccscsscsscscccscccccccccccscccsccsscccscsccssscscccccccccccsccccccccccscssscccscccccccccccccccccccccccccccscccccccccsscccs"
         id="path4588"
         d="m 149.8486,73.222075 c -2.15077,-0.04294 -5.34926,0.297352 -11.40244,0.872165 -13.6953,1.300507 -13.90822,1.341959 -21.34082,4.144294 l -6.60746,2.490641 -1.6509,2.870942 c -0.9081,1.578799 -1.6807,2.915096 -1.71685,2.969866 -0.0363,0.05475 -1.05881,0.358213 -2.27247,0.674319 -4.32308,1.126025 -6.409757,2.332243 -8.234174,4.759262 -0.961046,1.278461 -1.678383,2.63955 -1.678383,3.185295 0,0.524125 -0.523182,2.659765 -1.162885,4.746077 -1.466313,4.782144 -2.446535,6.105794 -10.368701,14.002444 -3.35587,3.34504 -6.101303,6.34816 -6.101303,6.67395 0,0.98051 -1.457647,3.53127 -3.986567,6.97676 -1.315342,1.79207 -2.39195,3.57221 -2.392268,3.95579 -0.0012,1.34465 -5.84745,9.48074 -9.998294,13.91397 -4.758557,5.08229 -5.92792,6.77998 -6.693189,9.71802 -0.620625,2.38276 -2.122288,4.90413 -4.886758,8.20505 -1.823048,2.17681 -1.969648,2.53537 -4.458646,10.87979 -3.999968,13.40995 -9.542103,30.28892 -11.69316,35.61257 -0.243016,0.60142 -0.171678,0.67729 0.429762,0.45613 0.396923,-0.14595 5.835914,-2.23757 12.086651,-4.64824 l 11.365067,-4.38281 7.383997,-7.79068 -2.507679,6.54316 1.484932,-0.23742 1.485483,-0.23741 v 27.74825 27.74824 l 11.629958,0.0269 11.630508,0.0269 v -3.00943 -3.00945 h 3.001193 3.001741 v -7.32519 -7.32519 l 1.031538,-0.36821 c 1.53579,-0.54848 3.110967,-1.45062 4.714747,-2.70002 0.78746,-0.61349 1.5075,-1.03975 1.60034,-0.94691 0.0928,0.0928 0.51112,2.85328 0.92932,6.13427 0.4182,3.28102 1.13952,8.75121 1.60308,12.1559 l 0.84305,6.19034 23.10713,0.10443 23.10769,0.10391 0.25995,-2.1675 c 0.32974,-2.74998 0.59296,-3.85577 0.91778,-3.85577 0.14134,1e-5 1.26261,0.97589 2.49174,2.1686 2.28332,2.21569 4.67248,3.59677 7.67471,4.43665 2.36933,0.66285 8.11428,0.64304 10.35168,-0.0357 1.3864,-0.42058 3.85881,-0.55956 10.00158,-0.56275 l 8.15999,-0.004 v -3.00174 -3.0012 h 3.00118 3.0012 v -23.55723 c 0,-25.10778 -0.032,-25.61479 -1.87293,-29.42497 -0.41133,-0.85133 -0.68173,-1.61382 -0.60123,-1.69432 0.0805,-0.0805 1.55621,0.27759 3.27982,0.79578 1.72362,0.51818 7.52352,1.80324 12.88848,2.85556 5.36496,1.0523 12.16247,2.41173 15.10542,3.02097 2.94297,0.60925 5.50662,1.10793 5.69738,1.10793 0.19075,0 -0.89014,-1.93543 -2.40217,-4.30037 -1.81592,-2.84021 -2.90146,-4.9731 -3.19793,-6.28377 -0.24687,-1.09134 -0.5228,-2.2561 -0.61277,-2.58846 -0.09,-0.33236 -0.99952,-1.46251 -2.02131,-2.51152 -1.7438,-1.79024 -2.10578,-1.97581 -5.90016,-3.01658 -2.22336,-0.60985 -4.56984,-1.21844 -5.21486,-1.35304 -1.1441,-0.23874 -1.17918,-0.30835 -1.42942,-2.84787 l -0.25665,-2.6033 -2.50988,-1.47119 c -1.38053,-0.80919 -3.0169,-2.00385 -3.63594,-2.65496 -0.61903,-0.65109 -2.06871,-1.87493 -3.22157,-2.71926 -1.59901,-1.1711 -2.57749,-2.33602 -4.1267,-4.91315 -1.11694,-1.85804 -2.66562,-4.19198 -3.4414,-5.18626 l -1.41019,-1.80754 0.78093,-2.91435 c 0.47854,-1.78519 0.86132,-4.65789 0.98758,-7.41588 0.20328,-4.44058 0.18733,-4.55453 -1.13431,-8.3298 -0.73698,-2.10516 -1.60891,-5.14404 -1.93778,-6.7531 -0.32885,-1.60904 -2.3638,-8.27468 -4.5224,-14.81249 -3.25509,-9.8588 -4.24464,-12.4079 -5.79904,-14.94057 -1.03078,-1.67952 -1.87402,-3.098877 -1.87402,-3.153965 0,-0.478715 -4.36551,-7.141052 -7.76486,-11.85034 -4.89952,-6.78757 -6.67434,-8.325288 -14.05849,-12.179529 -3.13872,-1.638288 -4.17137,-2.32662 -6.93665,-2.381826 z m -3.12978,7.432909 c 0.20633,0 0.37535,0.506485 0.37535,1.125515 0,1.320851 0.14123,1.36361 1.35359,0.409977 0.76724,-0.603523 1.08505,-0.649093 2.03009,-0.292371 0.61615,0.232561 1.20792,0.699265 1.31512,1.037035 0.1325,0.417513 0.4852,0.558427 1.10079,0.440755 0.67397,-0.128841 1.60703,0.359219 3.64914,1.907551 1.50921,1.144303 3.2056,2.57864 3.76948,3.187493 0.88348,0.953942 0.94898,1.170289 0.47318,1.56517 -0.30372,0.252034 -0.44874,0.62595 -0.32205,0.830945 0.14004,0.226586 0.35935,0.17315 0.55891,-0.136291 0.2722,-0.422094 0.39109,-0.412766 0.6974,0.05385 0.20319,0.309471 0.37217,0.40987 0.37536,0.223122 0.003,-0.186734 0.36142,-0.01773 0.79577,0.375356 0.43436,0.393084 0.89662,0.630193 1.02769,0.527037 0.13107,-0.103168 0.32459,0.243466 0.42977,0.770494 0.23173,1.160924 1.44148,2.738494 2.37193,3.092418 0.37416,0.142344 0.58026,0.420646 0.45779,0.618825 -0.12248,0.198169 0.0754,0.708373 0.43966,1.133754 0.36423,0.425381 1.2059,2.456732 1.87018,4.514151 0.66428,2.05743 1.63723,4.37308 2.16255,5.14616 0.59761,0.87945 0.95514,1.92518 0.95514,2.79289 0,1.60658 0.78692,2.56539 2.1043,2.56539 0.75421,0 1.34025,0.64072 3.17595,3.47052 1.30019,2.00427 2.18121,3.74753 2.08507,4.12671 -0.10819,0.42677 0.0505,0.65853 0.45449,0.66278 0.35573,0.003 0.46153,0.12359 0.24676,0.28138 -0.20635,0.1516 -0.42119,0.78181 -0.47703,1.40084 -0.60219,6.68035 -0.6747,6.00201 0.79853,7.47523 0.73773,0.73774 1.51571,1.34149 1.72894,1.34149 0.21321,0 0.38799,0.67495 0.38799,1.50033 0,1.08383 0.15633,1.50087 0.56276,1.50087 0.80573,0 0.69429,0.65374 -0.19235,1.12826 -0.62918,0.33673 -0.6851,0.53498 -0.33523,1.18872 0.23477,0.43868 0.31988,1.41071 0.19289,2.20486 -0.20872,1.30527 -0.12754,1.48194 1.00571,2.18234 0.67826,0.41918 1.59809,1.4112 2.04385,2.20431 0.78412,1.39519 0.79151,1.52064 0.23026,3.86402 -0.31905,1.33211 -0.62494,3.09405 -0.67982,3.91567 -0.0818,1.22338 -0.26141,1.53243 -0.99141,1.70476 -0.60677,0.14324 -0.74257,0.30222 -0.42592,0.49791 0.25586,0.15813 0.46494,0.79391 0.46494,1.41294 0,0.65482 -0.15654,1.0285 -0.37481,0.8936 -0.21829,-0.13489 -0.37535,0.23878 -0.37535,0.8936 0,0.61903 -0.17156,1.23139 -0.38085,1.36073 -0.34091,0.21069 -1.87019,2.92054 -1.87019,3.31389 0,0.0872 0.95137,0.62423 2.11419,1.19311 1.71072,0.83698 2.22199,1.30896 2.67969,2.47415 0.3111,0.792 0.88486,1.54137 1.27501,1.6652 0.39016,0.12383 1.04177,0.5822 1.4481,1.01835 0.40633,0.43615 0.9647,0.82625 1.24038,0.86667 0.2757,0.0404 1.88708,1.18306 3.58099,2.53955 2.29272,1.83603 3.64856,2.6264 5.30553,3.09132 1.22419,0.3435 2.14746,0.75106 2.05154,0.90624 -0.0959,0.15516 -0.77453,0.56697 -1.50802,0.91503 l -1.3338,0.63311 1.47339,1.75751 c 2.04921,2.44454 2.62061,2.91006 4.62571,3.76948 2.14348,0.91875 2.63108,1.75341 2.4846,4.25531 l -0.11321,1.93009 -2.81378,0.86501 c -1.74918,0.53786 -3.78267,0.86847 -5.37423,0.87272 l -2.55989,0.007 -2.16365,-2.06309 c -1.78623,-1.70378 -2.3945,-2.06363 -3.48921,-2.06363 -1.45945,0 -3.67636,-1.70528 -4.6455,-3.57328 -0.74627,-1.43842 -0.66197,-1.87213 0.46274,-2.38458 l 0.98922,-0.45065 -0.79633,-0.84743 c -0.67672,-0.72033 -0.71923,-0.92903 -0.28412,-1.3915 0.28156,-0.29928 0.59874,-1.24805 0.70509,-2.10815 0.17327,-1.40136 0.10263,-1.58669 -0.68091,-1.78334 -0.4809,-0.1207 -1.88373,0.0162 -3.11714,0.30391 -2.03309,0.47428 -2.34169,0.4623 -3.30621,-0.12586 -1.50358,-0.91684 -2.09946,-1.74721 -1.83996,-2.56483 0.24989,-0.78733 -0.99638,-2.1812 -1.61078,-1.80148 -0.71931,0.44455 -2.30268,-0.6125 -2.30268,-1.53714 0,-0.59787 -0.32916,-1.03543 -1.01177,-1.34644 l -1.01119,-0.46054 1.10517,-0.20005 c 0.80714,-0.14601 1.07338,-0.38283 0.98703,-0.87876 -0.065,-0.37344 0.14817,-0.87452 0.47373,-1.11343 0.37405,-0.27448 0.62091,-1.10392 0.67047,-2.25322 0.0641,-1.48737 0.27318,-1.98274 1.14915,-2.71981 1.25144,-1.05302 1.60273,-1.11266 1.90589,-0.3226 0.16787,0.43747 0.39276,0.48797 0.92053,0.20553 0.48316,-0.25862 0.83172,-0.24048 1.13102,0.0588 0.32672,0.32674 0.43306,0.29047 0.43306,-0.1473 0,-0.3188 -0.33803,-0.88502 -0.75072,-1.25851 -0.80131,-0.72518 -0.99172,-1.86975 -0.3748,-2.25102 0.20634,-0.12753 0.3748,-1.13321 0.3748,-2.23455 0,-1.81878 -0.12026,-2.10788 -1.31291,-3.15507 -2.15684,-1.89372 -1.69482,-4.10072 0.89634,-4.28278 1.17592,-0.0826 1.48281,-0.40561 0.79193,-0.83259 -0.641,-0.39615 -0.41219,-1.37346 0.36931,-1.57781 0.73775,-0.19295 0.73729,-0.20323 -0.0297,-1.17829 -0.61334,-0.77971 -0.72597,-1.30287 -0.54298,-2.52306 0.24167,-1.61158 -0.25512,-3.53702 -0.91283,-3.53702 -0.21145,0 -0.3847,0.3255 -0.3847,0.72378 0,0.63784 -0.14553,0.68332 -1.2195,0.37865 -2.24114,-0.63578 -3.93395,-3.73377 -2.36863,-4.33444 0.32003,-0.1228 0.3371,-0.75702 0.0643,-2.40656 -0.20376,-1.23205 -0.46897,-2.24004 -0.58913,-2.24004 -0.12012,0 -0.11523,-1.13958 0.011,-2.53241 0.12618,-1.39282 0.0849,-2.72214 -0.0918,-2.95393 -0.17664,-0.23177 -0.21516,-0.69756 -0.0857,-1.03484 0.3416,-0.8902 -0.76743,-2.36304 -2.4104,-3.20123 -0.78477,-0.40035 -2.85061,-0.91729 -4.59054,-1.14859 -4.07582,-0.54181 -4.51775,-0.68694 -4.3927,-1.44427 0.0782,-0.47325 -0.15087,-0.61099 -0.92822,-0.55781 -0.70335,0.0482 -1.03154,-0.11027 -1.03154,-0.49845 0,-0.4375 -0.26074,-0.51254 -1.12551,-0.3226 -0.72526,0.1593 -1.12553,0.0986 -1.12553,-0.17092 0,-0.29687 -0.21007,-0.30543 -0.72432,-0.0302 -0.5486,0.2936 -0.86992,0.24185 -1.32501,-0.21323 -0.36695,-0.36697 -1.32651,-0.62537 -2.46481,-0.66334 -1.63838,-0.0545 -1.86432,0.0299 -1.86963,0.69576 -0.004,0.577 -0.0836,0.63402 -0.33304,0.24016 -0.18011,-0.28491 -0.49282,-0.41491 -0.69466,-0.29017 -0.20183,0.12474 -0.6679,-0.10614 -1.03593,-0.51275 -0.36803,-0.40666 -1.27737,-0.90818 -2.02022,-1.11452 -2.60444,-0.72347 -9.448,-0.30081 -10.12799,0.62541 -0.12456,0.16967 -0.55845,0.49255 -0.96449,0.71719 -0.99296,0.54935 -3.43029,4.70794 -3.24629,5.53909 0.17174,0.77581 -0.46559,1.79396 -1.43767,2.29664 -0.82713,0.42772 -1.10687,0.89569 -1.29809,2.1708 -0.14233,0.94914 -0.78531,2.38662 -1.54538,3.45569 -0.71586,1.00686 -1.30138,2.16741 -1.30138,2.57911 0,0.41171 -0.26703,1.04341 -0.59298,1.4036 -0.48459,0.53548 -0.51017,0.80877 -0.14124,1.49813 0.64918,1.21301 0.23347,4.26194 -0.94196,6.91026 -0.54951,1.23806 -1.15991,3.09115 -1.35633,4.11792 -0.2481,1.29688 -0.65961,2.1083 -1.34864,2.65771 -0.97884,0.78051 -1.59726,2.39877 -2.41865,6.32772 -0.31158,1.49041 -0.25636,2.34913 0.28578,4.43941 l 0.67212,2.59176 -0.92438,0.72763 c -0.50854,0.39999 -1.40628,0.83205 -1.99493,0.96064 -0.73224,0.15999 -1.1883,0.57201 -1.44371,1.30468 -0.20533,0.589 -0.43056,1.07112 -0.50011,1.07112 -0.82132,0 -2.03275,-0.93651 -2.61814,-2.02352 -0.42255,-0.78463 -1.01332,-1.35303 -1.4058,-1.35303 -0.37224,0 -0.77364,-0.25223 -0.89195,-0.56056 -0.11833,-0.30831 -0.38899,-0.453 -0.60177,-0.3215 -0.21278,0.13151 -0.7437,0.25717 -1.17993,0.27918 -0.65696,0.0332 -0.81294,0.31347 -0.90844,1.63276 -0.097,1.34071 -0.2635,1.62987 -1.05242,1.82787 -0.68131,0.17101 -1.18805,-1.3e-4 -1.85479,-0.62651 l -0.91723,-0.86117 v 1.09364 c 0,0.63971 -0.55247,1.89655 -1.33105,3.02702 -1.06372,1.54448 -1.49,1.8917 -2.12079,1.72674 -0.73786,-0.19296 -0.77294,-0.10252 -0.53473,1.38712 0.14018,0.87662 0.58804,2.24693 0.99527,3.04515 0.40722,0.79822 0.74027,1.5258 0.74027,1.61683 0,0.091 -0.56636,0.49974 -1.25906,0.90844 -1.0758,0.63473 -1.35784,1.11892 -1.93503,3.31993 -0.37165,1.4172 -0.81244,2.73177 -0.97932,2.92095 -0.17977,0.2038 -0.920383,0.0657 -1.816885,-0.33852 -1.253489,-0.56524 -1.512958,-0.86574 -1.512958,-1.75092 0,-1.44945 -1.033322,-1.41219 -2.462066,0.089 -1.773033,1.86295 -2.099299,1.9212 -3.94315,0.69795 -0.913348,-0.60594 -1.846343,-1.10279 -2.072972,-1.10353 -0.226636,-8.4e-4 -0.677098,0.67384 -1.001311,1.49922 l -0.589686,1.50032 h -4.20035 c -3.660069,0 -4.423185,0.11332 -5.938633,0.87931 -1.789504,0.90451 -5.393568,2.10454 -9.100846,3.03032 -1.160053,0.28968 -3.354993,1.27598 -4.877415,2.19222 -1.522424,0.91625 -4.82512,2.87275 -7.339482,4.34764 -2.514363,1.4749 -4.651421,2.68134 -4.749367,2.68134 -0.591848,0 0.97276,-4.34022 2.135621,-5.92434 0.942338,-1.28373 1.370073,-2.26522 1.370073,-3.14243 0,-1.05141 0.366298,-1.63638 2.083413,-3.32653 2.061448,-2.02911 3.542622,-4.59036 3.545812,-6.13154 0.0045,-2.06475 4.745525,-10.90246 6.074927,-11.3244 1.394167,-0.44249 2.604015,-2.64329 2.944584,-5.35553 0.179174,-1.42698 0.670957,-3.50149 1.092541,-4.61033 0.562974,-1.48077 0.705881,-2.47623 0.537478,-3.74805 -0.192437,-1.45327 -0.110997,-1.81513 0.508351,-2.25104 0.405898,-0.28567 1.084558,-1.19484 1.508013,-2.02022 0.423458,-0.82538 1.587194,-2.11956 2.586268,-2.87643 0.999065,-0.75687 2.225266,-1.81137 2.724758,-2.34335 0.5292,-0.56364 1.820802,-1.22354 3.095167,-1.58111 1.202838,-0.3375 2.187282,-0.69916 2.187282,-0.80402 0,-0.10486 -0.275954,-0.39232 -0.612767,-0.6386 -0.564922,-0.41308 -0.562126,-0.52423 0.03243,-1.43162 0.354478,-0.54102 1.388847,-1.41988 2.298842,-1.95317 0.909999,-0.5333 2.62609,-1.77405 3.813454,-2.75719 1.187363,-0.98313 3.244093,-2.45354 4.570209,-3.26773 2.379416,-1.46091 2.397368,-1.48474 1.406343,-1.8339 -1.196988,-0.42171 -1.270707,-0.97697 -0.253351,-1.89766 0.412696,-0.37349 0.750163,-0.88197 0.750163,-1.13046 0,-0.24848 0.502384,-1.3932 1.11617,-2.54341 0.948857,-1.77812 1.108258,-2.47435 1.065612,-4.64879 -0.10035,-5.12275 2.726218,-13.01521 5.215398,-14.56246 0.66392,-0.41269 1.32195,-1.08732 1.46184,-1.49922 0.13989,-0.411883 0.47688,-0.918376 0.74907,-1.125499 0.27219,-0.207155 0.71228,-1.051951 0.97768,-1.877328 0.34024,-1.05813 0.72056,-1.535039 1.29039,-1.61629 0.4454,-0.06349 1.2458,-0.775708 1.7828,-1.587151 0.59201,-0.894599 1.37891,-1.567511 2.00537,-1.714655 0.56706,-0.133188 1.53746,-0.690482 2.15651,-1.238726 0.61903,-0.548244 1.96946,-1.566042 3.00119,-2.261472 1.03172,-0.695431 2.49657,-1.851301 3.25509,-2.56868 1.05552,-0.998279 1.60802,-1.260498 2.35434,-1.117823 0.62998,0.120428 1.08603,-0.01202 1.28875,-0.374256 0.19938,-0.356276 0.40235,-0.417386 0.55671,-0.167617 0.13363,0.216205 -0.0286,0.664465 -0.36052,0.996365 -0.49739,0.49739 -0.5188,0.705541 -0.12145,1.184321 0.48333,0.582381 0.20583,0.981204 -0.96999,1.393155 -0.20633,0.0723 -0.37535,0.877093 -0.37535,1.788294 0,1.636108 -0.0266,1.670946 -2.15596,2.782462 -1.86404,0.97302 -2.15686,1.271715 -2.15761,2.205417 -10e-4,1.307972 1.81599,6.939353 2.50604,7.765953 0.27195,0.32576 0.49461,0.79753 0.49461,1.04857 0,0.31439 0.39036,0.38317 1.25521,0.22092 1.46,-0.27389 2.71365,0.63662 2.2818,1.65696 -0.14157,0.33449 -0.34685,1.02463 -0.45613,1.53383 -0.10929,0.50923 -0.55156,1.23599 -0.98318,1.61464 -0.76251,0.6689 -0.76366,0.6832 -0.0347,0.5089 2.60595,-0.62309 3.18947,-0.65437 3.19903,-0.17147 0.005,0.27433 0.29315,0.0423 0.63915,-0.51549 0.51082,-0.8236 0.9495,-1.03523 2.33457,-1.12552 1.6667,-0.10869 1.707,-0.14141 1.75752,-1.42448 0.10177,-2.58733 0.61379,-3.22151 3.01328,-3.73321 1.84215,-0.39285 2.41716,-0.72753 3.64309,-2.11858 l 1.45581,-1.651449 h -1.32172 c -0.82435,0 -1.40237,-0.209984 -1.53604,-0.558369 -0.16753,-0.436558 -0.42774,-0.477906 -1.19037,-0.187948 -1.29599,0.492688 -4.27802,0.471748 -5.74793,-0.04063 -1.0775,-0.3756 -1.18157,-0.553445 -1.18157,-2.02022 0,-1.265848 -0.18428,-1.729344 -0.86557,-2.17574 -0.5715,-0.374462 -1.08163,-1.34323 -1.50087,-2.851158 -0.34927,-1.256247 -0.63475,-2.369031 -0.63475,-2.472507 0,-0.103519 0.59071,-0.435209 1.31292,-0.736971 0.7521,-0.314246 1.31347,-0.814293 1.31347,-1.170581 0,-0.409693 0.19951,-0.545374 0.58528,-0.397338 0.33018,0.126694 1.77683,-0.428608 3.315,-1.272797 2.12262,-1.164967 3.13879,-1.499474 4.57296,-1.506916 1.01412,-0.0049 2.48842,-0.158375 3.27652,-0.341281 0.78809,-0.182954 1.91672,-0.194219 2.50768,-0.02474 0.97041,0.2783 1.11187,0.200092 1.4646,-0.811713 0.21479,-0.616147 0.55628,-1.017756 0.75895,-0.892497 0.20267,0.125255 0.28025,0.458231 0.17202,0.740267 -0.23664,0.616722 0.45344,1.136963 0.78863,0.594633 0.12961,-0.209708 0.56342,-0.380852 0.96394,-0.380852 0.47808,0 0.72817,-0.258086 0.72817,-0.75071 0,-0.412682 0.16847,-0.750159 0.37482,-0.750159 z m -4.48943,22.672976 c -0.47008,-0.006 -0.82848,0.0157 -1.00021,0.077 -0.38527,0.13734 -0.95394,0.46208 -1.26346,0.72158 -0.30951,0.25949 -1.49148,0.77285 -2.62638,1.1409 -1.1349,0.36804 -2.44994,0.86908 -2.92261,1.11343 -0.72552,0.37508 -0.76404,0.48097 -0.24731,0.67927 0.34668,0.13303 1.08687,-0.10305 1.70696,-0.54463 0.6278,-0.44704 1.53369,-0.73346 2.12354,-0.67157 0.56573,0.0593 1.21318,-0.006 1.43877,-0.14563 0.22558,-0.13939 0.98487,-0.10252 1.68772,0.0824 0.70284,0.18491 2.12225,0.42012 3.15397,0.52263 2.10808,0.20952 4.22244,0.57784 5.06482,0.88206 0.67097,0.24233 1.55148,0.312 5.15824,0.40888 2.25143,0.0605 2.72037,0.18016 2.72037,0.69411 0,0.57776 0.0474,0.57776 0.68586,0 0.37734,-0.3415 1.132,-0.62102 1.67673,-0.62102 0.72618,0 0.93269,-0.15012 0.77434,-0.56275 -0.11878,-0.30953 -0.50194,-0.56276 -0.85128,-0.56276 -0.34934,0 -0.81927,-0.18452 -1.04473,-0.40998 -0.28693,-0.28696 -0.62814,-0.29294 -1.13651,-0.0208 -0.55497,0.29701 -1.00898,0.21639 -1.92514,-0.34074 -1.43016,-0.86973 -3.63866,-0.95077 -4.42676,-0.16267 -0.6294,0.6294 -1.25631,0.42958 -1.25631,-0.40064 0,-0.29733 -0.23911,-0.54078 -0.53143,-0.54078 -0.29232,0 -0.58738,-0.15976 -0.65619,-0.35502 -0.13173,-0.37396 -4.266,-0.95393 -6.303,-0.98317 z m 12.06962,18.66058 c 1.31133,0.004 2.17103,0.63943 3.83653,2.05704 1.4733,1.25401 2.6605,1.60517 2.90886,0.86008 0.20911,-0.62738 2.85135,-1.10761 3.06275,-0.55671 0.097,0.25272 1.20817,0.84516 2.4692,1.31675 2.90069,1.08479 3.93061,2.3035 4.66364,5.51712 0.3891,1.70584 0.85681,2.75575 1.43986,3.23201 0.47493,0.38792 0.65252,0.59654 0.39459,0.46328 -0.25792,-0.13326 -0.46878,-0.0585 -0.46878,0.16652 0,0.225 0.25817,0.50816 0.57376,0.62926 0.49838,0.19125 0.48814,0.28286 -0.0781,0.69685 -0.87943,0.64306 -1.33187,0.40485 -2.16255,-1.13761 -0.66603,-1.23675 -1.63192,-1.86978 -1.22168,-0.80071 0.36624,0.95445 -0.3026,1.49874 -1.23103,1.00186 -0.46111,-0.24678 -2.29721,-0.95545 -4.08055,-1.57507 -3.03562,-1.0547 -3.372,-1.09786 -5.26925,-0.67596 -1.30478,0.29011 -3.14168,0.35759 -5.15825,0.18959 -2.76508,-0.23033 -3.13199,-0.18832 -3.13199,0.35778 0,0.34017 -0.14729,0.52764 -0.327,0.41657 -0.1797,-0.11107 -0.70791,0.12841 -1.17388,0.53253 -0.46595,0.40412 -0.977,0.65466 -1.1354,0.55671 -0.15839,-0.098 -0.85399,0.0683 -1.54593,0.36876 -0.87977,0.382 -1.03462,0.54993 -0.51495,0.56056 0.64428,0.0128 0.57931,0.17722 -0.48912,1.23433 -1.19639,1.18374 -1.24815,1.198 -1.7762,0.48912 -0.32642,-0.43823 -0.6677,-0.58842 -0.85348,-0.37536 -0.17026,0.19525 -0.6764,0.84185 -1.12442,1.43712 -0.72523,0.9636 -0.81445,0.99745 -0.81445,0.30611 0,-1.20918 0.707,-2.77232 1.1343,-2.50822 0.21182,0.13089 0.34286,0.0987 0.29128,-0.0715 -0.0516,-0.17009 0.36176,-0.79304 0.91832,-1.38436 0.88886,-0.9444 3.28368,-6.30822 3.28368,-7.35432 0,-0.213 -0.50971,-0.3869 -1.13267,-0.3869 -1.04781,0 -1.11318,-0.0776 -0.87546,-1.03208 0.23305,-0.9357 0.19803,-0.98271 -0.377,-0.50891 -1.10292,0.90875 -1.03112,0.21964 0.11046,-1.05901 0.60336,-0.67579 1.26649,-1.12368 1.47339,-0.99582 0.2069,0.12787 1.96633,-0.27697 3.91018,-0.89964 2.15801,-0.69127 3.45136,-1.07075 4.47129,-1.06782 z m -6.26728,0.27534 -2.62583,0.97823 c -1.44442,0.53802 -3.35768,1.04391 -4.25146,1.12442 -1.45698,0.13131 -1.5734,0.0843 -1.12552,-0.4556 0.44326,-0.53432 0.36199,-0.53131 -0.71994,0.0281 -0.71348,0.36886 -1.21894,0.46536 -1.21894,0.23246 v -5.6e-4 c 0,-0.27869 -0.22401,-0.27748 -0.7507,0.004 -0.58755,0.31444 -0.75016,0.28492 -0.75016,-0.13464 0,-0.69124 0.89771,-1.04234 3.00119,-1.17388 0.92855,-0.0581 3.20772,-0.2177 5.06482,-0.35447 z m 6.33267,1.57067 c -0.33011,0.0209 -0.60354,0.17966 -0.84304,0.46823 -0.32438,0.39087 -0.10284,0.75552 0.99362,1.63661 2.25047,1.80852 6.18358,3.52483 9.08656,3.96459 1.62957,0.24685 3.15777,-0.16295 4.12726,-1.10629 0.91772,-0.89297 0.92194,-0.92443 0.20938,-1.4547 -1.04603,-0.77841 -1.99849,-0.67545 -4.23937,0.45834 -2.35231,1.19016 -2.65446,1.0906 -6.07986,-2.00922 -1.52609,-1.38103 -2.5283,-2.00349 -3.25455,-1.95756 z m 6.61735,9.86144 c 0.38327,-0.005 0.74057,0.0186 1.06286,0.0742 2.18356,0.37619 6.43387,2.43853 6.436,3.12264 10e-4,0.33056 0.57697,1.22683 1.27994,1.99219 0.70297,0.76536 1.39175,1.90869 1.53055,2.54065 0.49765,2.2658 -0.71776,6.38543 -1.88391,6.38543 -0.30423,0 -0.55343,0.30767 -0.55343,0.68422 0,0.37654 -0.39597,1.85414 -0.8804,3.28311 -0.48441,1.42897 -1.10111,3.52233 -1.37062,4.6521 -0.26953,1.12977 -0.7175,2.28154 -0.99527,2.55934 -0.27779,0.27779 -0.50506,1.01492 -0.50506,1.63826 0,0.62334 -0.33747,1.56261 -0.75015,2.08726 -0.4127,0.52465 -0.75072,1.49929 -0.75072,2.16584 0,0.66656 -0.32995,1.63132 -0.73312,2.14387 -0.69424,0.88259 -1.50878,4.52091 -1.51516,6.76629 -0.002,0.85113 0.1616,1.03208 0.93537,1.03208 0.61816,0 0.93756,0.20891 0.93756,0.61332 0,0.60409 -3.67428,4.20716 -5.58361,5.47535 -0.53751,0.35701 -1.52633,0.61029 -2.19773,0.56276 -1.31755,-0.0932 -1.3903,-0.17766 -0.86611,-1.00627 0.53377,-0.84375 -0.79711,-1.61747 -1.99713,-1.16123 -1.00811,0.38328 -4.11494,0.0156 -6.00294,-0.71004 -0.89823,-0.34527 -1.15627,-0.30693 -1.54868,0.22972 -0.41374,0.56581 -0.65741,0.58857 -2.00372,0.18519 -1.67444,-0.50166 -2.68519,-1.61993 -2.68519,-2.97095 0,-0.47646 -0.32362,-1.83222 -0.71884,-3.01219 -0.39522,-1.17997 -0.83865,-3.70717 -0.98593,-5.61603 l -0.26819,-3.47053 1.26786,0.24182 c 1.64917,0.31452 1.78397,0.46678 0.95075,1.07605 -0.66659,0.48738 -0.66356,0.52965 0.094,1.17828 0.43214,0.36998 0.78588,0.88823 0.78588,1.15188 0,0.26366 0.12662,0.47929 0.28138,0.47923 0.15476,-8e-5 0.28138,-1.51952 0.28138,-3.37655 0,-1.85701 0.14243,-3.37598 0.31655,-3.37599 0.17412,-1e-5 0.2007,-0.8445 0.0588,-1.87622 -0.21653,-1.57433 -0.16221,-1.87568 0.33963,-1.87568 0.32888,0 0.59793,-0.17745 0.59793,-0.39404 0,-0.25852 0.75684,-0.30811 2.20267,-0.14454 1.46621,0.16588 2.28837,0.10964 2.46041,-0.16872 0.66897,-1.08242 3.0286,-0.0308 3.9459,1.75862 0.39562,0.77176 0.61937,0.83695 2.10704,0.61386 l 1.66464,-0.2495 v 5.2231 c 0,4.01184 0.12814,5.39192 0.55123,5.95127 0.43895,0.58035 0.55318,0.6099 0.56275,0.14509 0.006,-0.32081 0.77128,-1.6622 1.69981,-2.98086 1.73971,-2.47058 2.15682,-3.48001 1.06507,-2.57802 -0.56203,0.46434 -0.60238,0.40428 -0.40998,-0.60783 0.11735,-0.61727 0.0364,-2.12839 -0.18026,-3.35841 -0.29092,-1.6514 -0.28189,-2.27413 0.0347,-2.37963 0.23575,-0.0786 0.43437,-0.76186 0.44075,-1.51845 0.014,-1.61914 0.96081,-3.16742 1.45141,-2.37359 0.22764,0.36833 0.36816,0.26969 0.53803,-0.37701 0.12653,-0.48171 0.0644,-0.93262 -0.13794,-1.00186 -0.58137,-0.19882 -0.0165,-0.81171 0.74796,-0.81171 0.67886,0 1.6907,-1.95075 1.24367,-2.39776 -0.11572,-0.11573 0.0248,-0.49924 0.31216,-0.85238 0.46745,-0.5745 0.44331,-0.61061 -0.22807,-0.34183 -1.66458,0.66644 -2.06363,0.68022 -2.06363,0.0715 0,-0.33358 -0.21085,-0.62577 -0.46878,-0.64959 -0.25793,-0.0238 -0.72257,-0.0663 -1.03209,-0.094 -0.6369,-0.0572 -1.02616,-2.11419 -0.40009,-2.11419 0.22005,0 0.40009,0.23715 0.40009,0.52648 0,0.28934 0.53174,0.71103 1.18157,0.93756 1.61961,0.56459 1.83705,0.49291 0.57595,-0.19069 -0.85684,-0.46447 -0.97288,-0.67478 -0.61112,-1.11068 0.24541,-0.2957 0.75831,-0.53748 1.13925,-0.53748 0.46148,0 0.62037,-0.18777 0.47647,-0.56276 -0.1631,-0.42505 0.0666,-0.56275 0.93812,-0.56275 0.93175,0 1.10655,-0.12322 0.90899,-0.63805 -0.15304,-0.3988 -0.3008,-0.46886 -0.3946,-0.1874 -0.0825,0.2475 -0.46002,0.45009 -0.83864,0.45009 -1.08886,0 -1.87512,0.41032 -1.87512,0.97823 0,0.34112 -0.43005,0.52264 -1.23818,0.52264 -0.68093,0 -1.44066,0.20249 -1.68827,0.4501 -0.24762,0.24757 -0.4501,0.31149 -0.4501,0.14179 0,-0.16971 -0.25324,-0.0986 -0.56276,0.15827 -0.47343,0.39295 -0.56203,0.32569 -0.55671,-0.42317 0.007,-1.11407 0.2918,-1.50509 1.58055,-2.16914 0.82548,-0.42535 0.97951,-0.70568 0.79358,-1.44647 -0.14376,-0.5728 -0.0448,-1.03383 0.2627,-1.22388 0.27134,-0.16769 0.5357,-0.59392 0.58749,-0.94691 0.18334,-1.2492 0.83207,-1.49359 2.05154,-0.77324 1.67324,0.98841 1.72793,0.50782 0.0715,-0.62926 l -1.41404,-0.97053 -3.35292,0.57925 c -3.17182,0.5477 -3.37914,0.54248 -3.84533,-0.0951 -0.41621,-0.56909 -0.49295,-0.58162 -0.49295,-0.0797 0,0.32687 0.26434,0.69561 0.58693,0.8194 0.32266,0.1238 0.47948,0.39775 0.34898,0.60892 -0.13051,0.2112 -0.37293,0.30025 -0.53857,0.19784 -0.16564,-0.10241 -0.59023,0.57248 -0.94416,1.49922 -0.66073,1.73008 -1.72902,2.64126 -2.67146,2.27961 -0.65334,-0.25071 -0.75075,-4.74871 -0.12804,-5.91225 0.43461,-0.81207 2.7915,-1.97504 3.32928,-1.64266 0.17879,0.11049 1.15013,-0.21308 2.15815,-0.71938 1.93216,-0.97047 4.08327,-1.54445 5.74409,-1.56683 z m -0.0286,5.86114 c -0.21851,0 -0.29295,0.16901 -0.16542,0.37536 0.12752,0.20636 0.3063,0.37481 0.39734,0.37481 0.091,0 0.16542,-0.16845 0.16542,-0.37481 0,-0.20635 -0.17882,-0.37536 -0.39734,-0.37536 z m 5.68144,1.55584 c -0.28358,0.0229 -0.58662,0.34067 -0.81995,0.97273 -0.25948,0.70287 -0.15878,0.87869 0.61441,1.07276 0.50845,0.1276 0.92438,0.41034 0.92438,0.6287 0,0.21838 0.0602,0.32664 0.13409,0.24071 0.0739,-0.0859 0.0549,-0.79786 -0.0429,-1.5822 -0.11257,-0.90373 -0.44546,-1.36208 -0.81006,-1.3327 z m 1.23707,3.63813 c -0.22689,-0.006 -0.47512,0.81004 -0.71279,2.40326 -0.29328,1.96606 0.17363,2.38652 0.89416,0.80512 0.25926,-0.56893 0.34138,-1.52946 0.19674,-2.30049 -0.11348,-0.60493 -0.24196,-0.90436 -0.37811,-0.90789 z m -1.39975,0.1962 c -0.0308,0.0132 -0.0755,0.15712 -0.14178,0.42482 -0.1022,0.41269 -0.42023,0.88576 -0.70675,1.05077 -0.32036,0.1845 -0.51297,0.90658 -0.5001,1.87568 l 0.0208,1.57561 0.7084,-1.68828 c 0.38962,-0.92854 0.6983,-2.10997 0.68586,-2.62583 -0.0106,-0.43023 -0.0269,-0.62974 -0.0665,-0.61277 z m -25.02018,2.11144 c 0.0826,-0.007 0.16012,0.0222 0.22917,0.0913 0.0904,0.0903 -0.0744,0.65592 -0.36546,1.25686 -0.29107,0.60094 -0.64454,1.97563 -0.78588,3.05505 -0.14451,1.1035 -0.60768,2.40792 -1.05793,2.98031 -0.44041,0.5599 -0.8971,1.78697 -1.01505,2.72696 l -0.21433,1.70916 -0.29127,-1.20851 c -0.2122,-0.881 -0.11618,-1.50557 0.35503,-2.30324 0.52911,-0.89573 0.57709,-1.36732 0.26433,-2.59945 -0.34898,-1.3749 -0.30877,-1.54452 0.45889,-1.95537 0.46801,-0.25047 1.03246,-1.09126 1.2739,-1.89711 0.33192,-1.10783 0.7907,-1.82395 1.1486,-1.85588 z m 20.85006,7.65438 c -0.11434,0.0272 -0.2587,0.21382 -0.36436,0.49132 -0.2036,0.5347 -0.16059,0.57769 0.20994,0.20993 0.25639,-0.2545 0.3716,-0.55715 0.25609,-0.67267 -0.0289,-0.0289 -0.0636,-0.0377 -0.10167,-0.0286 z m 1.09968,0.0241 c -0.0678,-0.0253 -0.11595,0.19015 -0.11595,0.57704 0,0.51586 0.0855,0.72672 0.1896,0.46878 0.10411,-0.25792 0.10411,-0.67964 0,-0.93756 -0.026,-0.0644 -0.0511,-0.0999 -0.0737,-0.10826 z"
         style="fill:#1a1a1a;stroke-width:0.37517184"
         inkscape:connector-curvature="0" />
      <path
         id="path4529"
         d="m 175.6783,190.52738 c -9.30819,0.0723 -14.80133,5.34133 -15.53959,14.07223 v 24.90644 c 0,7.55504 1.60543,11.72566 6.58328,14.66301 2.60343,1.53625 9.81681,3.44301 16.4123,-1.60088 v 1.81631 l 9.26517,-0.0555 V 217.0061 h -17.84008 v -15.46594 h 3.97118 V 212.049 h 13.8689 v -8.26221 c -1.22365,-11.54172 -9.44705,-13.31598 -16.72116,-13.25942 z m -100.39674,1.1376 v 52.62719 h 14.334932 l -0.118705,-19.39645 c 19.674073,1.52564 18.051793,-11.95609 18.121453,-14.73448 v -18.49626 z m 34.2859,0.0165 6.89104,52.59861 h 15.80118 l 2.05263,-11.40189 2.06528,11.40189 h 15.4011 l 7.14823,-52.59861 h -14.40088 l -1.99494,14.82241 -3.11934,-14.82241 h -10.18734 l -3.27544,14.82241 -1.83829,-14.82241 z m -19.547035,10.17196 h 3.082528 v 12.95826 h -3.082528 z m 86.068395,22.37786 1.49044,4.61966 5.18517,-0.0121 -4.21683,2.99404 1.55912,4.76091 -4.08055,-2.91656 -4.03712,3.05395 1.51351,-4.78783 -4.14594,-3.1232 5.17089,0.0275 z"
         style="opacity:1;fill:#999999;stroke:none;stroke-width:0.28137884px;stroke-linecap:butt;stroke-linejoin:miter;stroke-opacity:1"
         inkscape:connector-curvature="0" />
      <path
         id="path4533"
         d="m 176.91373,192.10463 c -0.42479,8.6e-4 -0.84409,0.0134 -1.25521,0.0352 -8.79562,0.0683 -14.29965,5.04724 -14.16127,13.29735 v 23.5347 c 0,7.13903 0.99473,11.18453 5.69846,13.96013 2.46009,1.45167 10.50436,3.51629 16.57993,-2.50383 l 0.55397,2.71376 6.71131,-0.0522 V 218.2685 h -17.6219 v -18.08684 h 6.26453 v 10.8166 h 11.36891 v -6.32937 c -0.14778,-10.07906 -7.76682,-12.57872 -14.13873,-12.56423 z m -65.7789,1.05463 6.45358,49.9387 h 13.70018 l 3.01987,-17.25205 3.03088,17.25205 h 13.32592 l 6.69429,-49.9387 h -11.71294 l -2.75499,20.87094 -4.84224,-20.87094 h -7.84069 l -4.69332,20.87094 -2.46041,-20.87094 z m -34.596959,0.0484 v 49.97607 h 11.738774 l -0.109364,-19.60144 c 18.218539,1.45511 17.959689,-9.13761 18.048909,-12.80989 v -17.56474 z m 12.22844,7.26694 h 5.43138 l 0.0022,15.6429 h -5.43358 z m 87.340099,21.49195 2.00153,6.20298 6.96138,-0.016 -5.66166,4.02009 2.09331,6.39202 -5.47864,-3.91622 -5.42039,4.10088 2.03176,-6.42885 -5.56548,-4.1932 6.9416,0.0368 z"
         style="opacity:1;fill:#ffffff;stroke:none;stroke-width:0.26328766px;stroke-linecap:butt;stroke-linejoin:miter;stroke-opacity:1"
         inkscape:connector-curvature="0" />
    </g>
  </g>
</svg>