<svg xmlns="http://www.w3.org/2000/svg"  viewBox="0 0 48 48" width="48px" height="48px"><path d="M28.96 5.66c-3.24-.88-6.68-.88-9.92 0L24-.04 28.96 5.66zM14.539 7.524c-2.913 1.669-5.346 4.101-7.014 7.014L7.001 7.001 14.539 7.524zM5.66 19.04c-.88 3.24-.88 6.68 0 9.92L-.04 24 5.66 19.04zM7.524 33.461c1.669 2.913 4.101 5.346 7.014 7.014l-7.538.523L7.524 33.461zM19.04 42.34c3.24.88 6.68.88 9.92 0L24 48.04 19.04 42.34zM33.461 40.476c2.913-1.669 5.346-4.101 7.014-7.014l.523 7.538L33.461 40.476zM42.34 28.96c.88-3.24.88-6.68 0-9.92l5.7 4.96L42.34 28.96zM40.476 14.539c-1.669-2.913-4.101-5.346-7.014-7.014l7.538-.523L40.476 14.539zM24 8A16 16 0 1024 40 16 16 0 1024 8z"/></svg>