<svg xmlns="http://www.w3.org/2000/svg" version="1.0" preserveAspectRatio="xMidYMid meet" viewBox="225.3 367.33 1055.7 216.6">

<g transform="translate(0.000000,1024.000000) scale(0.100000,-0.100000)" fill="#e50914" stroke="none">
<path d="M2255 6547 c3 -12 25 -157 50 -322 25 -165 54 -356 64 -425 11 -69 61 -386 110 -705 111 -709 104 -670 116 -670 16 0 228 26 251 31 20 3 24 22 58 271 102 741 121 873 126 873 3 0 18 -80 33 -178 15 -97 41 -253 58 -347 16 -93 45 -259 64 -369 19 -109 36 -200 38 -202 2 -2 55 3 117 11 63 8 128 15 146 15 39 0 25 -80 114 680 38 333 88 753 110 935 21 181 37 331 34 334 -4 5 -256 23 -260 18 -1 -1 -32 -279 -69 -617 -36 -338 -69 -631 -72 -650 -8 -44 -66 298 -149 881 l-59 406 -99 7 c-54 3 -101 4 -103 2 -5 -4 -16 -93 -68 -516 -65 -527 -103 -804 -108 -790 -8 21 -102 695 -152 1090 -16 118 -31 219 -36 224 -4 4 -65 12 -136 17 -70 5 -140 11 -156 14 -24 4 -27 2 -22 -18z"/>
<path d="M12735 6533 c-11 -2 -76 -7 -145 -11 l-124 -7 -32 -100 c-18 -55 -62 -199 -97 -320 -36 -121 -68 -213 -70 -205 -3 8 -33 107 -66 220 -110 370 -115 385 -137 383 -10 -1 -82 -5 -159 -9 -77 -3 -145 -9 -151 -13 -8 -4 43 -172 154 -508 l166 -502 -129 -363 c-70 -200 -145 -410 -166 -468 -21 -57 -37 -105 -36 -106 6 -6 298 -35 305 -30 4 2 48 131 98 285 81 257 103 312 104 264 0 -10 42 -151 93 -313 l92 -295 183 -20 c127 -15 182 -18 182 -10 0 13 -55 169 -230 660 -67 187 -124 347 -126 355 -3 8 79 262 181 563 102 302 185 551 185 553 0 5 -46 3 -75 -3z"/>
<path d="M3945 6153 c3 -170 7 -594 10 -943 3 -349 7 -635 8 -636 2 -1 303 23 316 25 2 1 0 165 -4 366 l-7 365 39 0 c35 0 41 -4 56 -35 14 -29 113 -354 187 -610 9 -33 21 -60 26 -60 5 1 74 5 152 9 l144 9 -6 33 c-15 76 -199 618 -231 678 l-35 66 29 14 c15 8 50 40 78 69 76 84 105 178 110 367 5 166 -8 255 -55 354 -50 106 -149 180 -272 205 -53 10 -376 31 -493 31 l-58 0 6 -307z m437 27 c90 -25 125 -92 135 -256 10 -171 -28 -289 -106 -328 -39 -20 -141 -29 -146 -14 -2 7 -5 147 -7 311 l-4 297 45 0 c26 0 63 -5 83 -10z"/>
<path d="M11268 6453 l-68 -4 0 -919 c0 -505 -3 -925 -6 -933 -4 -11 11 -16 78 -21 46 -4 116 -9 156 -13 l72 -6 0 952 0 951 -82 -2 c-46 -1 -113 -3 -150 -5z"/>
<path d="M5005 5539 c4 -486 8 -884 9 -885 0 0 129 5 286 12 157 7 318 13 358 13 l72 1 0 131 0 131 -205 -7 -205 -8 0 247 0 246 160 0 160 0 0 33 c0 19 -3 75 -6 125 l-7 92 -158 0 -159 0 0 230 0 230 200 0 200 0 0 134 0 133 -292 7 c-161 3 -322 9 -356 12 l-64 7 7 -884z"/>
<path d="M10402 6403 l-143 -4 3 -882 3 -882 330 -17 c182 -9 349 -18 373 -20 l42 -3 0 137 0 138 -93 0 c-52 0 -149 3 -215 7 l-122 6 0 764 c0 721 -1 763 -17 761 -10 -1 -82 -4 -161 -5z"/>
<path d="M6120 6384 c-112 -30 -191 -99 -232 -203 -19 -47 -22 -75 -22 -171 1 -213 50 -305 294 -555 92 -93 181 -192 200 -219 62 -92 78 -197 37 -257 -29 -44 -60 -59 -123 -59 -87 0 -125 44 -145 170 l-12 73 -66 -7 c-36 -3 -101 -6 -145 -6 l-79 0 7 -62 c22 -201 89 -313 225 -376 48 -23 73 -27 175 -30 197 -7 304 26 393 121 73 77 96 144 96 277 -1 188 -51 275 -303 535 -173 177 -221 237 -245 306 -30 85 -13 193 34 219 29 15 104 12 129 -6 34 -23 53 -70 60 -143 6 -54 10 -66 25 -65 9 0 69 1 133 2 l117 2 -6 88 c-3 48 -12 110 -21 137 -36 116 -123 199 -241 230 -74 19 -212 18 -285 -1z"/>
<path d="M9603 6383 l-193 -3 0 -845 0 -845 118 0 c64 0 134 -3 155 -6 l37 -7 0 367 0 366 155 0 155 0 0 125 0 125 -154 0 c-131 0 -155 2 -160 16 -3 9 -6 112 -6 230 l0 214 195 0 194 0 -1 135 -2 135 -150 -2 c-83 -2 -238 -4 -343 -5z"/>
<path d="M8706 6363 l-159 -4 6 -112 c4 -61 7 -432 7 -823 l0 -711 208 -7 c114 -3 268 -7 342 -8 l135 -2 3 39 c2 22 1 77 -3 123 l-7 82 -189 0 -189 0 0 241 0 242 150 -7 150 -7 0 125 0 125 -152 3 -153 3 0 219 0 219 187 1 188 1 0 133 0 132 -182 -2 c-101 -1 -255 -4 -342 -5z"/>
<path d="M6800 6231 l0 -131 109 0 109 0 4 -67 c1 -38 3 -348 3 -691 l0 -622 148 2 148 3 -1 688 0 687 125 0 125 0 0 128 0 127 -385 4 -385 3 0 -131z"/>
<path d="M7720 5535 l0 -815 310 -2 c171 -1 322 -2 337 -2 l27 -1 -3 120 c-1 66 -3 121 -5 122 -1 1 -82 3 -181 5 l-180 3 -3 693 -2 692 -150 0 -150 0 0 -815z"/>
</g>
</svg>